<?xml version="1.0" encoding="UTF-8"?>
<svg id="Layer_2" data-name="Layer 2" xmlns="http://www.w3.org/2000/svg" xmlns:xlink="http://www.w3.org/1999/xlink" viewBox="0 0 1440.76 964">
  <defs>
    <style>
      .cls-1 {
        fill: none;
      }

      .cls-2 {
        opacity: .1;
      }

      .cls-2, .cls-3, .cls-4, .cls-5 {
        fill: #fff;
      }

      .cls-6 {
        fill: url(#linear-gradient);
      }

      .cls-7 {
        clip-path: url(#clippath);
      }

      .cls-3 {
        opacity: .15;
      }

      .cls-4 {
        opacity: .14;
      }

      .cls-8 {
        fill: url(#linear-gradient-3);
      }

      .cls-9 {
        fill: url(#_É_πÌÚ_·ÂÁ_Ì_Á_Ë_18-6);
      }

      .cls-10 {
        fill: url(#_É_πÌÚ_·ÂÁ_Ì_Á_Ë_18-8);
      }

      .cls-11 {
        fill: url(#_É_πÌÚ_·ÂÁ_Ì_Á_Ë_18-7);
      }

      .cls-12 {
        fill: url(#_É_πÌÚ_·ÂÁ_Ì_Á_Ë_18-9);
      }

      .cls-13 {
        fill: url(#_É_πÌÚ_·ÂÁ_Ì_Á_Ë_18-3);
      }

      .cls-14 {
        fill: url(#_É_πÌÚ_·ÂÁ_Ì_Á_Ë_18-2);
      }

      .cls-15 {
        fill: url(#_É_πÌÚ_·ÂÁ_Ì_Á_Ë_18-5);
      }

      .cls-16 {
        fill: url(#_É_πÌÚ_·ÂÁ_Ì_Á_Ë_18-4);
      }

      .cls-17 {
        fill: url(#_É_πÌÚ_·ÂÁ_Ì_Á_Ë_75-2);
      }

      .cls-18 {
        opacity: .5;
      }

      .cls-19 {
        fill: #115472;
        opacity: .02;
      }

      .cls-20 {
        fill: url(#_É_πÌÚ_·ÂÁ_Ì_Á_Ë_18-65);
      }

      .cls-21 {
        fill: url(#_É_πÌÚ_·ÂÁ_Ì_Á_Ë_18-60);
      }

      .cls-22 {
        fill: url(#_É_πÌÚ_·ÂÁ_Ì_Á_Ë_18-61);
      }

      .cls-23 {
        fill: url(#_É_πÌÚ_·ÂÁ_Ì_Á_Ë_18-62);
      }

      .cls-24 {
        fill: url(#_É_πÌÚ_·ÂÁ_Ì_Á_Ë_18-63);
      }

      .cls-25 {
        fill: url(#_É_πÌÚ_·ÂÁ_Ì_Á_Ë_18-64);
      }

      .cls-26 {
        fill: url(#_É_πÌÚ_·ÂÁ_Ì_Á_Ë_18-57);
      }

      .cls-27 {
        fill: url(#_É_πÌÚ_·ÂÁ_Ì_Á_Ë_18-58);
      }

      .cls-28 {
        fill: url(#_É_πÌÚ_·ÂÁ_Ì_Á_Ë_18-56);
      }

      .cls-29 {
        fill: url(#_É_πÌÚ_·ÂÁ_Ì_Á_Ë_18-29);
      }

      .cls-30 {
        fill: url(#_É_πÌÚ_·ÂÁ_Ì_Á_Ë_18-39);
      }

      .cls-31 {
        fill: url(#_É_πÌÚ_·ÂÁ_Ì_Á_Ë_18-53);
      }

      .cls-32 {
        fill: url(#_É_πÌÚ_·ÂÁ_Ì_Á_Ë_18-54);
      }

      .cls-33 {
        fill: url(#_É_πÌÚ_·ÂÁ_Ì_Á_Ë_18-51);
      }

      .cls-34 {
        fill: url(#_É_πÌÚ_·ÂÁ_Ì_Á_Ë_18-52);
      }

      .cls-35 {
        fill: url(#_É_πÌÚ_·ÂÁ_Ì_Á_Ë_18-43);
      }

      .cls-36 {
        fill: url(#_É_πÌÚ_·ÂÁ_Ì_Á_Ë_18-41);
      }

      .cls-37 {
        fill: url(#_É_πÌÚ_·ÂÁ_Ì_Á_Ë_18-44);
      }

      .cls-38 {
        fill: url(#_É_πÌÚ_·ÂÁ_Ì_Á_Ë_18-47);
      }

      .cls-39 {
        fill: url(#_É_πÌÚ_·ÂÁ_Ì_Á_Ë_18-42);
      }

      .cls-40 {
        fill: url(#_É_πÌÚ_·ÂÁ_Ì_Á_Ë_18-45);
      }

      .cls-41 {
        fill: url(#_É_πÌÚ_·ÂÁ_Ì_Á_Ë_18-48);
      }

      .cls-42 {
        fill: url(#_É_πÌÚ_·ÂÁ_Ì_Á_Ë_18-46);
      }

      .cls-43 {
        fill: url(#_É_πÌÚ_·ÂÁ_Ì_Á_Ë_18-40);
      }

      .cls-44 {
        fill: url(#_É_πÌÚ_·ÂÁ_Ì_Á_Ë_18-21);
      }

      .cls-45 {
        fill: url(#_É_πÌÚ_·ÂÁ_Ì_Á_Ë_18-26);
      }

      .cls-46 {
        fill: url(#_É_πÌÚ_·ÂÁ_Ì_Á_Ë_18-27);
      }

      .cls-47 {
        fill: url(#_É_πÌÚ_·ÂÁ_Ì_Á_Ë_18-28);
      }

      .cls-48 {
        fill: url(#_É_πÌÚ_·ÂÁ_Ì_Á_Ë_18-24);
      }

      .cls-49 {
        fill: url(#_É_πÌÚ_·ÂÁ_Ì_Á_Ë_18-25);
      }

      .cls-50 {
        fill: url(#_É_πÌÚ_·ÂÁ_Ì_Á_Ë_18-20);
      }

      .cls-51 {
        fill: url(#_É_πÌÚ_·ÂÁ_Ì_Á_Ë_18-22);
      }

      .cls-52 {
        fill: url(#_É_πÌÚ_·ÂÁ_Ì_Á_Ë_18-23);
      }

      .cls-53 {
        fill: url(#_É_πÌÚ_·ÂÁ_Ì_Á_Ë_18-59);
      }

      .cls-54 {
        fill: url(#_É_πÌÚ_·ÂÁ_Ì_Á_Ë_18-32);
      }

      .cls-55 {
        fill: url(#_É_πÌÚ_·ÂÁ_Ì_Á_Ë_18-35);
      }

      .cls-56 {
        fill: url(#_É_πÌÚ_·ÂÁ_Ì_Á_Ë_18-38);
      }

      .cls-57 {
        fill: url(#_É_πÌÚ_·ÂÁ_Ì_Á_Ë_18-37);
      }

      .cls-58 {
        fill: url(#_É_πÌÚ_·ÂÁ_Ì_Á_Ë_18-33);
      }

      .cls-59 {
        fill: url(#_É_πÌÚ_·ÂÁ_Ì_Á_Ë_18-36);
      }

      .cls-60 {
        fill: url(#_É_πÌÚ_·ÂÁ_Ì_Á_Ë_18-30);
      }

      .cls-61 {
        fill: url(#_É_πÌÚ_·ÂÁ_Ì_Á_Ë_18-31);
      }

      .cls-62 {
        fill: url(#_É_πÌÚ_·ÂÁ_Ì_Á_Ë_18-34);
      }

      .cls-63 {
        fill: url(#_É_πÌÚ_·ÂÁ_Ì_Á_Ë_18-11);
      }

      .cls-64 {
        fill: url(#_É_πÌÚ_·ÂÁ_Ì_Á_Ë_18-15);
      }

      .cls-65 {
        fill: url(#_É_πÌÚ_·ÂÁ_Ì_Á_Ë_18-10);
      }

      .cls-66 {
        fill: url(#_É_πÌÚ_·ÂÁ_Ì_Á_Ë_18-12);
      }

      .cls-67 {
        fill: url(#_É_πÌÚ_·ÂÁ_Ì_Á_Ë_18-49);
      }

      .cls-68 {
        fill: url(#_É_πÌÚ_·ÂÁ_Ì_Á_Ë_18-13);
      }

      .cls-69 {
        fill: url(#_É_πÌÚ_·ÂÁ_Ì_Á_Ë_18-14);
      }

      .cls-70 {
        fill: url(#_É_πÌÚ_·ÂÁ_Ì_Á_Ë_18-50);
      }

      .cls-71 {
        fill: url(#_É_πÌÚ_·ÂÁ_Ì_Á_Ë_18-55);
      }

      .cls-72 {
        fill: url(#_É_πÌÚ_·ÂÁ_Ì_Á_Ë_18-16);
      }

      .cls-73 {
        fill: url(#_É_πÌÚ_·ÂÁ_Ì_Á_Ë_18-17);
      }

      .cls-74 {
        fill: url(#_É_πÌÚ_·ÂÁ_Ì_Á_Ë_18-19);
      }

      .cls-75 {
        fill: url(#_É_πÌÚ_·ÂÁ_Ì_Á_Ë_18-18);
      }

      .cls-76 {
        fill: url(#_É_πÌÚ_·ÂÁ_Ì_Á_Ë_75);
      }

      .cls-77 {
        fill: url(#_É_πÌÚ_·ÂÁ_Ì_Á_Ë_83);
      }

      .cls-78 {
        fill: url(#_É_πÌÚ_·ÂÁ_Ì_Á_Ë_72);
      }

      .cls-79 {
        fill: url(#_É_πÌÚ_·ÂÁ_Ì_Á_Ë_71);
      }

      .cls-80 {
        fill: url(#_É_πÌÚ_·ÂÁ_Ì_Á_Ë_70);
      }

      .cls-81 {
        fill: url(#_É_πÌÚ_·ÂÁ_Ì_Á_Ë_18);
      }

      .cls-82 {
        fill: url(#_É_πÌÚ_·ÂÁ_Ì_Á_Ë_16);
      }

      .cls-83 {
        fill: url(#_É_πÌÚ_·ÂÁ_Ì_Á_Ë_916);
      }

      .cls-84 {
        fill: url(#_É_πÌÚ_·ÂÁ_Ì_Á_Ë_433);
      }

      .cls-85 {
        fill: url(#_É_πÌÚ_·ÂÁ_Ì_Á_Ë_490);
      }

      .cls-86 {
        fill: url(#linear-gradient-2);
        opacity: .7;
      }

      .cls-5 {
        opacity: .24;
      }
    </style>
    <linearGradient id="linear-gradient" x1="720" y1="294.53" x2="720" y2="6.66" gradientUnits="userSpaceOnUse">
      <stop offset="0" stop-color="#ffd9b5"/>
      <stop offset=".5" stop-color="#ffadb6"/>
      <stop offset=".64" stop-color="#e7a8c0"/>
      <stop offset=".94" stop-color="#ab9bdb"/>
      <stop offset="1" stop-color="#9e99e2"/>
    </linearGradient>
    <linearGradient id="linear-gradient-2" x1="720" y1="400.83" x2="720" y2="215.78" gradientTransform="translate(0 -17.9) rotate(-1.54) skewX(-1.53)" gradientUnits="userSpaceOnUse">
      <stop offset="0" stop-color="#b9aedd"/>
      <stop offset="1" stop-color="#e7b3cb"/>
    </linearGradient>
    <linearGradient id="linear-gradient-3" y1="425.21" y2="275.98" xlink:href="#linear-gradient-2"/>
    <linearGradient id="_É_πÌÚ_·ÂÁ_Ì_Á_Ë_490" data-name="É‡‰¥πÌÚ ·ÂÁ Ì‡Á‚Ë 490" x1="720" y1="529.76" x2="720" y2="326.81" gradientUnits="userSpaceOnUse">
      <stop offset="0" stop-color="#a299c7"/>
      <stop offset=".37" stop-color="#8a84c4"/>
      <stop offset=".72" stop-color="#7b76c2"/>
      <stop offset="1" stop-color="#7672c2"/>
    </linearGradient>
    <linearGradient id="_É_πÌÚ_·ÂÁ_Ì_Á_Ë_75" data-name="É‡‰¥πÌÚ ·ÂÁ Ì‡Á‚Ë 75" x1="449.41" y1="789.88" x2="449.41" y2="501.82" gradientUnits="userSpaceOnUse">
      <stop offset="0" stop-color="#5359ac"/>
      <stop offset="1" stop-color="#5f66bc"/>
    </linearGradient>
    <linearGradient id="_É_πÌÚ_·ÂÁ_Ì_Á_Ë_83" data-name="É‡‰¥πÌÚ ·ÂÁ Ì‡Á‚Ë 83" x1="48.7" y1="654.9" x2="152.36" y2="590.57" gradientUnits="userSpaceOnUse">
      <stop offset="0" stop-color="#5f66bc"/>
      <stop offset="1" stop-color="#5359ac"/>
    </linearGradient>
    <linearGradient id="_É_πÌÚ_·ÂÁ_Ì_Á_Ë_433" data-name="É‡‰¥πÌÚ ·ÂÁ Ì‡Á‚Ë 433" x1="182.54" y1="835.96" x2="411.48" y2="690.43" gradientUnits="userSpaceOnUse">
      <stop offset="0" stop-color="#5f66bc"/>
      <stop offset=".95" stop-color="#5359ac"/>
    </linearGradient>
    <linearGradient id="_É_πÌÚ_·ÂÁ_Ì_Á_Ë_75-2" data-name="É‡‰¥πÌÚ ·ÂÁ Ì‡Á‚Ë 75" x1="663.65" y1="666.51" x2="457.18" y2="809.85" xlink:href="#_É_πÌÚ_·ÂÁ_Ì_Á_Ë_75"/>
    <linearGradient id="_É_πÌÚ_·ÂÁ_Ì_Á_Ë_72" data-name="É‡‰¥πÌÚ ·ÂÁ Ì‡Á‚Ë 72" x1="946.87" y1="836.66" x2="946.87" y2="514.85" gradientUnits="userSpaceOnUse">
      <stop offset="0" stop-color="#585fb6"/>
      <stop offset="1" stop-color="#646ac6"/>
    </linearGradient>
    <linearGradient id="_É_πÌÚ_·ÂÁ_Ì_Á_Ë_71" data-name="É‡‰¥πÌÚ ·ÂÁ Ì‡Á‚Ë 71" x1="1530.14" y1="527.01" x2="1355.3" y2="639.51" gradientUnits="userSpaceOnUse">
      <stop offset="0" stop-color="#585fb6"/>
      <stop offset="1" stop-color="#646ac6"/>
    </linearGradient>
    <linearGradient id="_É_πÌÚ_·ÂÁ_Ì_Á_Ë_70" data-name="É‡‰¥πÌÚ ·ÂÁ Ì‡Á‚Ë 70" x1="912.6" y1="868.15" x2="1329.98" y2="574.55" gradientUnits="userSpaceOnUse">
      <stop offset="0" stop-color="#646ac6"/>
      <stop offset=".57" stop-color="#5e65bf"/>
      <stop offset=".99" stop-color="#585fb6"/>
    </linearGradient>
    <linearGradient id="_É_πÌÚ_·ÂÁ_Ì_Á_Ë_16" data-name="É‡‰¥πÌÚ ·ÂÁ Ì‡Á‚Ë 16" x1="431.42" y1="627" x2="511.42" y2="554.95" gradientTransform="translate(1440.19) rotate(-180) scale(1 -1)" gradientUnits="userSpaceOnUse">
      <stop offset="0" stop-color="#646ac6"/>
      <stop offset="1" stop-color="#585fb6"/>
    </linearGradient>
    <linearGradient id="_É_πÌÚ_·ÂÁ_Ì_Á_Ë_18" data-name="É‡‰¥πÌÚ ·ÂÁ Ì‡Á‚Ë 18" x1="624.64" y1="721.47" x2="624.64" y2="542.68" gradientUnits="userSpaceOnUse">
      <stop offset="0" stop-color="#150551"/>
      <stop offset="1" stop-color="#414587"/>
    </linearGradient>
    <linearGradient id="_É_πÌÚ_·ÂÁ_Ì_Á_Ë_18-2" data-name="É‡‰¥πÌÚ ·ÂÁ Ì‡Á‚Ë 18" x1="550.67" y1="736.1" x2="550.67" y2="547.75" xlink:href="#_É_πÌÚ_·ÂÁ_Ì_Á_Ë_18"/>
    <linearGradient id="_É_πÌÚ_·ÂÁ_Ì_Á_Ë_18-3" data-name="É‡‰¥πÌÚ ·ÂÁ Ì‡Á‚Ë 18" x1="696.87" y1="803.38" x2="696.87" y2="645.85" xlink:href="#_É_πÌÚ_·ÂÁ_Ì_Á_Ë_18"/>
    <linearGradient id="_É_πÌÚ_·ÂÁ_Ì_Á_Ë_18-4" data-name="É‡‰¥πÌÚ ·ÂÁ Ì‡Á‚Ë 18" x1="727.32" y1="739.33" x2="727.32" y2="555.18" xlink:href="#_É_πÌÚ_·ÂÁ_Ì_Á_Ë_18"/>
    <linearGradient id="_É_πÌÚ_·ÂÁ_Ì_Á_Ë_18-5" data-name="É‡‰¥πÌÚ ·ÂÁ Ì‡Á‚Ë 18" x1="783.64" y1="767.68" x2="783.64" y2="555.93" xlink:href="#_É_πÌÚ_·ÂÁ_Ì_Á_Ë_18"/>
    <linearGradient id="_É_πÌÚ_·ÂÁ_Ì_Á_Ë_18-6" data-name="É‡‰¥πÌÚ ·ÂÁ Ì‡Á‚Ë 18" x1="566.01" y1="759.4" x2="566.01" y2="591.86" xlink:href="#_É_πÌÚ_·ÂÁ_Ì_Á_Ë_18"/>
    <linearGradient id="_É_πÌÚ_·ÂÁ_Ì_Á_Ë_18-7" data-name="É‡‰¥πÌÚ ·ÂÁ Ì‡Á‚Ë 18" x1="494.18" y1="729.09" x2="494.18" y2="583.13" xlink:href="#_É_πÌÚ_·ÂÁ_Ì_Á_Ë_18"/>
    <linearGradient id="_É_πÌÚ_·ÂÁ_Ì_Á_Ë_18-8" data-name="É‡‰¥πÌÚ ·ÂÁ Ì‡Á‚Ë 18" x1="596.54" y1="852.19" x2="596.54" y2="603.96" xlink:href="#_É_πÌÚ_·ÂÁ_Ì_Á_Ë_18"/>
    <linearGradient id="_É_πÌÚ_·ÂÁ_Ì_Á_Ë_18-9" data-name="É‡‰¥πÌÚ ·ÂÁ Ì‡Á‚Ë 18" x1="942.56" y1="739.08" x2="942.56" y2="604.24" xlink:href="#_É_πÌÚ_·ÂÁ_Ì_Á_Ë_18"/>
    <linearGradient id="_É_πÌÚ_·ÂÁ_Ì_Á_Ë_18-10" data-name="É‡‰¥πÌÚ ·ÂÁ Ì‡Á‚Ë 18" x1="1151.34" y1="744.28" x2="1151.34" y2="609.43" gradientTransform="translate(-1.93 4.96) rotate(-.17)" xlink:href="#_É_πÌÚ_·ÂÁ_Ì_Á_Ë_18"/>
    <linearGradient id="_É_πÌÚ_·ÂÁ_Ì_Á_Ë_18-11" data-name="É‡‰¥πÌÚ ·ÂÁ Ì‡Á‚Ë 18" x1="909" y1="775.77" x2="901.53" y2="585.27" xlink:href="#_É_πÌÚ_·ÂÁ_Ì_Á_Ë_18"/>
    <linearGradient id="_É_πÌÚ_·ÂÁ_Ì_Á_Ë_18-12" data-name="É‡‰¥πÌÚ ·ÂÁ Ì‡Á‚Ë 18" x1="490.26" y1="811.66" x2="490.26" y2="619.17" xlink:href="#_É_πÌÚ_·ÂÁ_Ì_Á_Ë_18"/>
    <linearGradient id="_É_πÌÚ_·ÂÁ_Ì_Á_Ë_18-13" data-name="É‡‰¥πÌÚ ·ÂÁ Ì‡Á‚Ë 18" x1="672.8" y1="793.98" x2="672.8" y2="535.21" xlink:href="#_É_πÌÚ_·ÂÁ_Ì_Á_Ë_18"/>
    <linearGradient id="_É_πÌÚ_·ÂÁ_Ì_Á_Ë_18-14" data-name="É‡‰¥πÌÚ ·ÂÁ Ì‡Á‚Ë 18" x1="1835.44" y1="723.72" x2="1835.44" y2="565.39" gradientTransform="translate(2887.85) rotate(-180) scale(1 -1)" xlink:href="#_É_πÌÚ_·ÂÁ_Ì_Á_Ë_18"/>
    <linearGradient id="_É_πÌÚ_·ÂÁ_Ì_Á_Ë_18-15" data-name="É‡‰¥πÌÚ ·ÂÁ Ì‡Á‚Ë 18" x1="1779.94" y1="749.9" x2="1779.94" y2="596.51" gradientTransform="translate(2887.85) rotate(-180) scale(1 -1)" xlink:href="#_É_πÌÚ_·ÂÁ_Ì_Á_Ë_18"/>
    <linearGradient id="_É_πÌÚ_·ÂÁ_Ì_Á_Ë_18-16" data-name="É‡‰¥πÌÚ ·ÂÁ Ì‡Á‚Ë 18" x1="1919.56" y1="801.94" x2="1919.56" y2="662.45" gradientTransform="translate(2887.85) rotate(-180) scale(1 -1)" xlink:href="#_É_πÌÚ_·ÂÁ_Ì_Á_Ë_18"/>
    <linearGradient id="_É_πÌÚ_·ÂÁ_Ì_Á_Ë_18-17" data-name="É‡‰¥πÌÚ ·ÂÁ Ì‡Á‚Ë 18" x1="1794.94" y1="765.04" x2="1794.94" y2="628.59" gradientTransform="translate(2887.85) rotate(-180) scale(1 -1)" xlink:href="#_É_πÌÚ_·ÂÁ_Ì_Á_Ë_18"/>
    <linearGradient id="_É_πÌÚ_·ÂÁ_Ì_Á_Ë_18-18" data-name="É‡‰¥πÌÚ ·ÂÁ Ì‡Á‚Ë 18" x1="1755.61" y1="744.54" x2="1755.61" y2="629.05" gradientTransform="translate(2887.85) rotate(-180) scale(1 -1)" xlink:href="#_É_πÌÚ_·ÂÁ_Ì_Á_Ë_18"/>
    <linearGradient id="_É_πÌÚ_·ÂÁ_Ì_Á_Ë_18-19" data-name="É‡‰¥πÌÚ ·ÂÁ Ì‡Á‚Ë 18" x1="1823.76" y1="826.95" x2="1823.76" y2="624.78" gradientTransform="translate(2887.85) rotate(-180) scale(1 -1)" xlink:href="#_É_πÌÚ_·ÂÁ_Ì_Á_Ë_18"/>
    <linearGradient id="_É_πÌÚ_·ÂÁ_Ì_Á_Ë_18-20" data-name="É‡‰¥πÌÚ ·ÂÁ Ì‡Á‚Ë 18" x1="1480.22" y1="757.55" x2="1480.22" y2="672.54" gradientTransform="translate(2887.85) rotate(-180) scale(1 -1)" xlink:href="#_É_πÌÚ_·ÂÁ_Ì_Á_Ë_18"/>
    <linearGradient id="_É_πÌÚ_·ÂÁ_Ì_Á_Ë_18-21" data-name="É‡‰¥πÌÚ ·ÂÁ Ì‡Á‚Ë 18" x1="1470.05" y1="812.97" x2="1470.05" y2="704.43" gradientTransform="translate(2887.85) rotate(-180) scale(1 -1)" xlink:href="#_É_πÌÚ_·ÂÁ_Ì_Á_Ë_18"/>
    <linearGradient id="_É_πÌÚ_·ÂÁ_Ì_Á_Ë_18-22" data-name="É‡‰¥πÌÚ ·ÂÁ Ì‡Á‚Ë 18" x1="1740.49" y1="813.7" x2="1740.49" y2="701.93" gradientTransform="translate(2887.85) rotate(-180) scale(1 -1)" xlink:href="#_É_πÌÚ_·ÂÁ_Ì_Á_Ë_18"/>
    <linearGradient id="_É_πÌÚ_·ÂÁ_Ì_Á_Ë_18-23" data-name="É‡‰¥πÌÚ ·ÂÁ Ì‡Á‚Ë 18" x1="1878.37" y1="793.62" x2="1878.37" y2="545.79" gradientTransform="translate(2887.85) rotate(-180) scale(1 -1)" xlink:href="#_É_πÌÚ_·ÂÁ_Ì_Á_Ë_18"/>
    <linearGradient id="_É_πÌÚ_·ÂÁ_Ì_Á_Ë_18-24" data-name="É‡‰¥πÌÚ ·ÂÁ Ì‡Á‚Ë 18" x1="879.17" y1="819.97" x2="879.17" y2="597.12" xlink:href="#_É_πÌÚ_·ÂÁ_Ì_Á_Ë_18"/>
    <linearGradient id="_É_πÌÚ_·ÂÁ_Ì_Á_Ë_18-25" data-name="É‡‰¥πÌÚ ·ÂÁ Ì‡Á‚Ë 18" x1="764.22" y1="840.95" x2="764.22" y2="621.57" xlink:href="#_É_πÌÚ_·ÂÁ_Ì_Á_Ë_18"/>
    <linearGradient id="_É_πÌÚ_·ÂÁ_Ì_Á_Ë_18-26" data-name="É‡‰¥πÌÚ ·ÂÁ Ì‡Á‚Ë 18" x1="828.19" y1="762.35" x2="828.19" y2="532.37" xlink:href="#_É_πÌÚ_·ÂÁ_Ì_Á_Ë_18"/>
    <linearGradient id="_É_πÌÚ_·ÂÁ_Ì_Á_Ë_18-27" data-name="É‡‰¥πÌÚ ·ÂÁ Ì‡Á‚Ë 18" x1="-1250.51" y1="810.64" x2="-1250.51" y2="707.27" gradientTransform="translate(-968.7) rotate(-180) scale(1 -1)" xlink:href="#_É_πÌÚ_·ÂÁ_Ì_Á_Ë_18"/>
    <linearGradient id="_É_πÌÚ_·ÂÁ_Ì_Á_Ë_18-28" data-name="É‡‰¥πÌÚ ·ÂÁ Ì‡Á‚Ë 18" x1="-1227.85" y1="769.6" x2="-1227.85" y2="652.08" gradientTransform="translate(-968.7) rotate(-180) scale(1 -1)" xlink:href="#_É_πÌÚ_·ÂÁ_Ì_Á_Ë_18"/>
    <linearGradient id="_É_πÌÚ_·ÂÁ_Ì_Á_Ë_18-29" data-name="É‡‰¥πÌÚ ·ÂÁ Ì‡Á‚Ë 18" x1="-1193.56" y1="787.22" x2="-1193.56" y2="648.26" gradientTransform="translate(-968.7) rotate(-180) scale(1 -1)" xlink:href="#_É_πÌÚ_·ÂÁ_Ì_Á_Ë_18"/>
    <linearGradient id="_É_πÌÚ_·ÂÁ_Ì_Á_Ë_18-30" data-name="É‡‰¥πÌÚ ·ÂÁ Ì‡Á‚Ë 18" x1="-1105.6" y1="775.13" x2="-1105.6" y2="700.17" gradientTransform="translate(-968.7) rotate(-180) scale(1 -1)" xlink:href="#_É_πÌÚ_·ÂÁ_Ì_Á_Ë_18"/>
    <linearGradient id="_É_πÌÚ_·ÂÁ_Ì_Á_Ë_18-31" data-name="É‡‰¥πÌÚ ·ÂÁ Ì‡Á‚Ë 18" x1="-1120.92" y1="794.01" x2="-1125.43" y2="679.04" gradientTransform="translate(-968.7) rotate(-180) scale(1 -1)" xlink:href="#_É_πÌÚ_·ÂÁ_Ì_Á_Ë_18"/>
    <linearGradient id="_É_πÌÚ_·ÂÁ_Ì_Á_Ë_18-32" data-name="É‡‰¥πÌÚ ·ÂÁ Ì‡Á‚Ë 18" x1="-1267.67" y1="804.47" x2="-1267.67" y2="620.81" gradientTransform="translate(-968.7) rotate(-180) scale(1 -1)" xlink:href="#_É_πÌÚ_·ÂÁ_Ì_Á_Ë_18"/>
    <linearGradient id="_É_πÌÚ_·ÂÁ_Ì_Á_Ë_18-33" data-name="É‡‰¥πÌÚ ·ÂÁ Ì‡Á‚Ë 18" x1="-993.5" y1="800.45" x2="-993.5" y2="698.68" gradientTransform="translate(-968.7) rotate(-180) scale(1 -1)" xlink:href="#_É_πÌÚ_·ÂÁ_Ì_Á_Ë_18"/>
    <linearGradient id="_É_πÌÚ_·ÂÁ_Ì_Á_Ë_18-34" data-name="É‡‰¥πÌÚ ·ÂÁ Ì‡Á‚Ë 18" x1="3979.14" y1="810.08" x2="3979.14" y2="732.53" gradientTransform="translate(-3856.55)" xlink:href="#_É_πÌÚ_·ÂÁ_Ì_Á_Ë_18"/>
    <linearGradient id="_É_πÌÚ_·ÂÁ_Ì_Á_Ë_18-35" data-name="É‡‰¥πÌÚ ·ÂÁ Ì‡Á‚Ë 18" x1="3956.24" y1="805.45" x2="3956.24" y2="667.67" gradientTransform="translate(-3856.55)" xlink:href="#_É_πÌÚ_·ÂÁ_Ì_Á_Ë_18"/>
    <linearGradient id="_É_πÌÚ_·ÂÁ_Ì_Á_Ë_18-36" data-name="É‡‰¥πÌÚ ·ÂÁ Ì‡Á‚Ë 18" x1="-1138.92" y1="820.69" x2="-1138.92" y2="686.19" gradientTransform="translate(-968.7) rotate(-180) scale(1 -1)" xlink:href="#_É_πÌÚ_·ÂÁ_Ì_Á_Ë_18"/>
    <linearGradient id="_É_πÌÚ_·ÂÁ_Ì_Á_Ë_18-37" data-name="É‡‰¥πÌÚ ·ÂÁ Ì‡Á‚Ë 18" x1="-1206.31" y1="835.29" x2="-1206.31" y2="691.33" gradientTransform="translate(-968.7) rotate(-180) scale(1 -1)" xlink:href="#_É_πÌÚ_·ÂÁ_Ì_Á_Ë_18"/>
    <linearGradient id="_É_πÌÚ_·ÂÁ_Ì_Á_Ë_18-38" data-name="É‡‰¥πÌÚ ·ÂÁ Ì‡Á‚Ë 18" x1="-1164.33" y1="782.2" x2="-1164.33" y2="620.3" gradientTransform="translate(-968.7) rotate(-180) scale(1 -1)" xlink:href="#_É_πÌÚ_·ÂÁ_Ì_Á_Ë_18"/>
    <linearGradient id="_É_πÌÚ_·ÂÁ_Ì_Á_Ë_18-39" data-name="É‡‰¥πÌÚ ·ÂÁ Ì‡Á‚Ë 18" x1="-653.9" y1="783.49" x2="-653.9" y2="598.02" gradientTransform="translate(-216.03) rotate(-180) scale(1 -1)" xlink:href="#_É_πÌÚ_·ÂÁ_Ì_Á_Ë_18"/>
    <linearGradient id="_É_πÌÚ_·ÂÁ_Ì_Á_Ë_18-40" data-name="É‡‰¥πÌÚ ·ÂÁ Ì‡Á‚Ë 18" x1="-534.86" y1="764.49" x2="-534.86" y2="658.95" gradientTransform="translate(-216.03) rotate(-180) scale(1 -1)" xlink:href="#_É_πÌÚ_·ÂÁ_Ì_Á_Ë_18"/>
    <linearGradient id="_É_πÌÚ_·ÂÁ_Ì_Á_Ë_18-41" data-name="É‡‰¥πÌÚ ·ÂÁ Ì‡Á‚Ë 18" x1="-556.94" y1="792.55" x2="-562.96" y2="639.1" gradientTransform="translate(-216.03) rotate(-180) scale(1 -1)" xlink:href="#_É_πÌÚ_·ÂÁ_Ì_Á_Ë_18"/>
    <linearGradient id="_É_πÌÚ_·ÂÁ_Ì_Á_Ë_18-42" data-name="É‡‰¥πÌÚ ·ÂÁ Ì‡Á‚Ë 18" x1="-1011.48" y1="811.78" x2="-1011.48" y2="739.48" gradientTransform="translate(-968.7) rotate(-180) scale(1 -1)" xlink:href="#_É_πÌÚ_·ÂÁ_Ì_Á_Ë_18"/>
    <linearGradient id="_É_πÌÚ_·ÂÁ_Ì_Á_Ë_18-43" data-name="É‡‰¥πÌÚ ·ÂÁ Ì‡Á‚Ë 18" x1="-1000.73" y1="771.67" x2="-1000.73" y2="689.48" gradientTransform="translate(-968.7) rotate(-180) scale(1 -1)" xlink:href="#_É_πÌÚ_·ÂÁ_Ì_Á_Ë_18"/>
    <linearGradient id="_É_πÌÚ_·ÂÁ_Ì_Á_Ë_18-44" data-name="É‡‰¥πÌÚ ·ÂÁ Ì‡Á‚Ë 18" x1="-1023.48" y1="807.47" x2="-1023.48" y2="679.02" gradientTransform="translate(-968.7) rotate(-180) scale(1 -1)" xlink:href="#_É_πÌÚ_·ÂÁ_Ì_Á_Ë_18"/>
    <linearGradient id="_É_πÌÚ_·ÂÁ_Ì_Á_Ë_18-45" data-name="É‡‰¥πÌÚ ·ÂÁ Ì‡Á‚Ë 18" x1="-284.7" y1="793.97" x2="-284.7" y2="720.15" gradientTransform="translate(-216.03) rotate(-180) scale(1 -1)" xlink:href="#_É_πÌÚ_·ÂÁ_Ì_Á_Ë_18"/>
    <linearGradient id="_É_πÌÚ_·ÂÁ_Ì_Á_Ë_18-46" data-name="É‡‰¥πÌÚ ·ÂÁ Ì‡Á‚Ë 18" x1="-300.78" y1="782.98" x2="-304.98" y2="675.65" gradientTransform="translate(-216.03) rotate(-180) scale(1 -1)" xlink:href="#_É_πÌÚ_·ÂÁ_Ì_Á_Ë_18"/>
    <linearGradient id="_É_πÌÚ_·ÂÁ_Ì_Á_Ë_18-47" data-name="É‡‰¥πÌÚ ·ÂÁ Ì‡Á‚Ë 18" x1="-580.97" y1="828.16" x2="-580.97" y2="648.65" gradientTransform="translate(-216.03) rotate(-180) scale(1 -1)" xlink:href="#_É_πÌÚ_·ÂÁ_Ì_Á_Ë_18"/>
    <linearGradient id="_É_πÌÚ_·ÂÁ_Ì_Á_Ë_18-48" data-name="É‡‰¥πÌÚ ·ÂÁ Ì‡Á‚Ë 18" x1="454.89" y1="726.29" x2="454.89" y2="565" xlink:href="#_É_πÌÚ_·ÂÁ_Ì_Á_Ë_18"/>
    <linearGradient id="_É_πÌÚ_·ÂÁ_Ì_Á_Ë_18-49" data-name="É‡‰¥πÌÚ ·ÂÁ Ì‡Á‚Ë 18" x1="398.85" y1="803.53" x2="398.85" y2="579.21" xlink:href="#_É_πÌÚ_·ÂÁ_Ì_Á_Ë_18"/>
    <linearGradient id="_É_πÌÚ_·ÂÁ_Ì_Á_Ë_18-50" data-name="É‡‰¥πÌÚ ·ÂÁ Ì‡Á‚Ë 18" x1="2637.36" y1="795" x2="2637.36" y2="669.22" gradientTransform="translate(3802.11) rotate(-180) scale(1 -1)" xlink:href="#_É_πÌÚ_·ÂÁ_Ì_Á_Ë_18"/>
    <linearGradient id="_É_πÌÚ_·ÂÁ_Ì_Á_Ë_18-51" data-name="É‡‰¥πÌÚ ·ÂÁ Ì‡Á‚Ë 18" x1="-3439.77" y1="811.24" x2="-3439.77" y2="722.51" gradientTransform="translate(4770.81)" xlink:href="#_É_πÌÚ_·ÂÁ_Ì_Á_Ë_18"/>
    <linearGradient id="_É_πÌÚ_·ÂÁ_Ì_Á_Ë_18-52" data-name="É‡‰¥πÌÚ ·ÂÁ Ì‡Á‚Ë 18" x1="-3421.31" y1="772.42" x2="-3421.31" y2="671.56" gradientTransform="translate(4770.81)" xlink:href="#_É_πÌÚ_·ÂÁ_Ì_Á_Ë_18"/>
    <linearGradient id="_É_πÌÚ_·ÂÁ_Ì_Á_Ë_18-53" data-name="É‡‰¥πÌÚ ·ÂÁ Ì‡Á‚Ë 18" x1="-3380.91" y1="784.35" x2="-3380.91" y2="665.08" gradientTransform="translate(4770.81)" xlink:href="#_É_πÌÚ_·ÂÁ_Ì_Á_Ë_18"/>
    <linearGradient id="_É_πÌÚ_·ÂÁ_Ì_Á_Ë_18-54" data-name="É‡‰¥πÌÚ ·ÂÁ Ì‡Á‚Ë 18" x1="-3457.44" y1="808.14" x2="-3457.44" y2="650.51" gradientTransform="translate(4770.81)" xlink:href="#_É_πÌÚ_·ÂÁ_Ì_Á_Ë_18"/>
    <linearGradient id="_É_πÌÚ_·ÂÁ_Ì_Á_Ë_18-55" data-name="É‡‰¥πÌÚ ·ÂÁ Ì‡Á‚Ë 18" x1="-3401.73" y1="830.7" x2="-3401.73" y2="707.14" gradientTransform="translate(4770.81)" xlink:href="#_É_πÌÚ_·ÂÁ_Ì_Á_Ë_18"/>
    <linearGradient id="_É_πÌÚ_·ÂÁ_Ì_Á_Ë_18-56" data-name="É‡‰¥πÌÚ ·ÂÁ Ì‡Á‚Ë 18" x1="-2813.23" y1="786.88" x2="-2813.23" y2="621.74" gradientTransform="translate(4018.13)" xlink:href="#_É_πÌÚ_·ÂÁ_Ì_Á_Ë_18"/>
    <linearGradient id="_É_πÌÚ_·ÂÁ_Ì_Á_Ë_18-57" data-name="É‡‰¥πÌÚ ·ÂÁ Ì‡Á‚Ë 18" x1="-2721.82" y1="768.27" x2="-2721.82" y2="677.69" gradientTransform="translate(4018.13)" xlink:href="#_É_πÌÚ_·ÂÁ_Ì_Á_Ë_18"/>
    <linearGradient id="_É_πÌÚ_·ÂÁ_Ì_Á_Ë_18-58" data-name="É‡‰¥πÌÚ ·ÂÁ Ì‡Á‚Ë 18" x1="-2741.9" y1="791.21" x2="-2747.06" y2="659.49" gradientTransform="translate(4018.13)" xlink:href="#_É_πÌÚ_·ÂÁ_Ì_Á_Ë_18"/>
    <linearGradient id="_É_πÌÚ_·ÂÁ_Ì_Á_Ë_18-59" data-name="É‡‰¥πÌÚ ·ÂÁ Ì‡Á‚Ë 18" x1="-2761.06" y1="826.06" x2="-2761.06" y2="671.98" gradientTransform="translate(4018.13)" xlink:href="#_É_πÌÚ_·ÂÁ_Ì_Á_Ë_18"/>
    <linearGradient id="_É_πÌÚ_·ÂÁ_Ì_Á_Ë_18-60" data-name="É‡‰¥πÌÚ ·ÂÁ Ì‡Á‚Ë 18" x1="2612.35" y1="749.05" x2="2612.35" y2="605.44" gradientTransform="translate(3802.11) rotate(-180) scale(1 -1)" xlink:href="#_É_πÌÚ_·ÂÁ_Ì_Á_Ë_18"/>
    <linearGradient id="_É_πÌÚ_·ÂÁ_Ì_Á_Ë_18-61" data-name="É‡‰¥πÌÚ ·ÂÁ Ì‡Á‚Ë 18" x1="2567.72" y1="768.08" x2="2567.72" y2="597.41" gradientTransform="translate(3802.11) rotate(-180) scale(1 -1)" xlink:href="#_É_πÌÚ_·ÂÁ_Ì_Á_Ë_18"/>
    <linearGradient id="_É_πÌÚ_·ÂÁ_Ì_Á_Ë_18-62" data-name="É‡‰¥πÌÚ ·ÂÁ Ì‡Á‚Ë 18" x1="1465.35" y1="770.3" x2="1465.35" y2="688.42" gradientTransform="translate(2887.85) rotate(-180) scale(1 -1)" xlink:href="#_É_πÌÚ_·ÂÁ_Ì_Á_Ë_18"/>
    <linearGradient id="_É_πÌÚ_·ÂÁ_Ì_Á_Ë_18-63" data-name="É‡‰¥πÌÚ ·ÂÁ Ì‡Á‚Ë 18" x1="1459.49" y1="751.61" x2="1459.49" y2="659.82" gradientTransform="translate(2887.85) rotate(-180) scale(1 -1)" xlink:href="#_É_πÌÚ_·ÂÁ_Ì_Á_Ë_18"/>
    <clipPath id="clippath">
      <rect class="cls-1" x="0" y="665.66" width="49.83" height="162.6"/>
    </clipPath>
    <linearGradient id="_É_πÌÚ_·ÂÁ_Ì_Á_Ë_18-64" data-name="É‡‰¥πÌÚ ·ÂÁ Ì‡Á‚Ë 18" x1="-981.54" y1="809.08" x2="-981.54" y2="744.32" gradientTransform="translate(-968.7) rotate(-180) scale(1 -1)" xlink:href="#_É_πÌÚ_·ÂÁ_Ì_Á_Ë_18"/>
    <linearGradient id="_É_πÌÚ_·ÂÁ_Ì_Á_Ë_18-65" data-name="É‡‰¥πÌÚ ·ÂÁ Ì‡Á‚Ë 18" x1="-968.71" y1="782.38" x2="-968.71" y2="714.49" gradientTransform="translate(-968.7) rotate(-180) scale(1 -1)" xlink:href="#_É_πÌÚ_·ÂÁ_Ì_Á_Ë_18"/>
    <linearGradient id="_É_πÌÚ_·ÂÁ_Ì_Á_Ë_916" data-name="É‡‰¥πÌÚ ·ÂÁ Ì‡Á‚Ë 916" x1="720" y1="1225.36" x2="720" y2="760.36" gradientUnits="userSpaceOnUse">
      <stop offset="0" stop-color="#464b89"/>
      <stop offset=".38" stop-color="#393a7c"/>
      <stop offset="1" stop-color="#1f1860"/>
    </linearGradient>
  </defs>
  <g id="_ò__1" data-name="ò‡_1">
    <rect class="cls-6" x="0" width="1439.99" height="721.35"/>
    <g>
      <g>
        <polygon class="cls-19" points="810.67 0 888.4 56.19 1188.55 0 1298.48 0 1064.57 236.49 1440.76 42.41 1440.76 157.27 1127.84 326.88 745.91 326.88 1130.81 50.24 308.99 320.31 711.77 49.62 85.87 267.88 594.75 0 810.67 0"/>
        <polygon class="cls-19" points="0 37.51 136.16 0 439.31 0 0 188.66 198.28 12.81 0 37.51"/>
      </g>
      <g class="cls-18">
        <polygon class="cls-3" points="0 46.76 338.97 86.29 127.69 81.6 452.27 125.83 0 95.28 0 46.76"/>
        <path class="cls-2" d="M102.48,0H0V16.71c95.75,6.58,204.96,13.71,204.96,13.71L102.48,0Z"/>
        <polygon class="cls-4" points="286.94 223.7 1210.02 250.6 699.1 191.01 866.95 177.77 272.1 145.23 691.43 206.65 0 139.06 0 253.05 603.56 300.36 240.4 250.5 725.57 263.04 286.94 223.7"/>
        <polygon class="cls-4" points="1440.76 72.04 1042.02 66.74 1330.86 94.47 1440.76 112.57 1440.76 72.04"/>
        <polygon class="cls-5" points="984.56 186.82 1440.76 233.33 1440.76 203.09 984.56 186.82"/>
        <polygon class="cls-2" points="593.77 39.29 1069.31 39.01 699.78 8.84 1440.76 0 226.13 0 491.54 49.89 216.59 58.11 641.77 101.69 570.2 76.99 911.49 119.93 843.63 97.79 1237.97 133.49 593.77 39.29"/>
      </g>
    </g>
    <g>
      <polygon class="cls-86" points="0 205.95 173.74 290.67 374.9 192.67 504.7 242.79 720.54 312.79 905.25 244.83 1005.87 282.53 1184.06 191.74 1439.99 289.63 1439.99 592.81 0 592.81 0 205.95"/>
      <polygon class="cls-8" points="0 273.04 178.06 210.69 363.1 277.89 582.13 330.1 762.54 233.71 944.52 320.02 1351.82 193.54 1439.99 238.16 1439.99 592.81 0 592.81 0 273.04"/>
    </g>
    <polygon class="cls-85" points="1439.99 631.31 0 631.31 0 288.75 142.24 348.29 210.31 316.75 390.14 382.04 535.43 337.22 590.3 316.47 791.93 394.07 1046.48 311.84 1324.86 362.82 1439.99 311.76 1439.99 631.31"/>
    <g>
      <g>
        <path class="cls-76" d="M898.81,787.68H0v-270.16c38.83-16.25,77.4-33.26,115.7-51.04h0s0,0,0,0c65.95,38.76,132.95,75.2,200.92,109.36,11.37-5.04,22.72-10.14,34.05-15.29,14.37,9.4,28.8,18.69,43.28,27.89,21.98,5.28,44,10.36,66.06,15.24,49.98-13.48,99.7-28.06,149.16-43.76,24.87,21.83,49.99,43.3,75.37,64.42,21.46,5.91,42.96,11.62,64.5,17.14,14.18,18.51,28.49,36.89,42.94,55.14,35.12,31.08,70.73,61.43,106.84,91.07Z"/>
        <path class="cls-77" d="M116.82,787.68H0V510.06c38.79-13.8,77.35-28.32,115.7-43.58h0c-6.26,13.79-12.1,33.57-20.75,41.74-6.88,6.5-22.47,8.29-33.08,11.38-10.24,2.99-20.51,5.82-30.81,8.52,1.97,16.47,3.99,32.93,6.04,49.39,9.98,9.32,20,18.59,30.06,27.8-3.87,4.33-16.55,17.32-15.1,20.31,3.16,6.57,17.34,20.82,25.01,30.84,7.75,10.11,15.46,20.25,23.17,30.39,5.35,33.63,11.26,67.18,16.57,100.83Z"/>
        <path class="cls-84" d="M469.1,746.14c24.26,14.14,48.65,27.98,73.17,41.55H235.47c4.33-4.14,8.65-8.3,12.95-12.46-11.07-17.41-22.03-34.9-32.89-52.47-7.13-20.52-14.16-41.08-21.09-61.68,14.17-13.46,28.95-32.96,43.98-40.82,7.55-3.95,17.45-8.05,25.96-12.37,7.58-3.85,18.3-7.33,23.79-13.51,6.48-7.29,19.72-13.38,28.45-18.52,11.37-5.04,22.72-10.14,34.05-15.29-4.56,6.8-9.13,13.59-13.73,20.36-4.88,7.17-9.77,14.33-14.68,21.47,13.17,4.16,26.36,8.25,39.57,12.27,.65,6.12,1.29,12.24,1.94,18.36,7.24,.18,14.47,.35,21.71,.49,12.6,13.86,25.28,27.63,38.04,41.31-4.54,15.98-9.11,31.95-13.72,47.91,19.71,7.98,39.48,15.79,59.3,23.43Z"/>
        <path class="cls-17" d="M759.18,776.83c6.72,3.11,15.15,6.91,24.06,10.86h-210.08c-4.71-7.88-9.41-15.78-14.08-23.69-28.2-18.64-56.17-37.69-83.93-57.15-17.32-21.49-34.45-43.17-51.39-65.04,12.15-12.63,24.24-25.34,36.25-38.14,49.98-13.48,99.7-28.06,149.16-43.76-8.5,13.76-17.07,27.48-25.7,41.14,12.08,5.95,24.19,11.84,36.32,17.67-1.57,6.73-3.14,13.45-4.73,20.17,23.38,6.41,46.81,12.58,70.28,18.52,4.37,7.77,8.75,15.53,13.15,23.28,13.63,3.25,27.27,6.42,40.93,9.52,.79,7.39,1.58,14.79,2.38,22.18,3.53,10.09,7.07,20.18,10.63,30.27,2.24,11.39,4.49,22.78,6.75,34.17Z"/>
      </g>
      <g>
        <path class="cls-78" d="M1440,477.3v324.09H453.75c119.18-65.54,234.98-137.09,346.82-214.65,41.26-14.74,94.74-34.54,135.52-50.59,14.09,1.5,33.5,5.94,47.6,7.31,28.22,3.69,38.69,8.51,66.98,11.65,12.82-3.93,25.62-7.91,38.4-11.94,13.91-8.35,27.78-16.78,41.61-25.28,38.13,12.27,76.42,23.95,114.89,35.07,23.74-10.72,47.38-21.66,70.92-32.81,25.61-18.08,51.02-36.45,76.21-55.1,15.74,4.18,31.51,8.26,47.3,12.25Z"/>
        <path class="cls-79" d="M1440,477.3v258.09c-34.53-15.29-68.86-31.07-102.96-47.33,14.17-24.24,28.12-48.59,41.85-73.08-14.1-11.17-28.13-22.42-42.1-33.75,2.52-14.13,5.01-28.27,7.46-42.41,12.04-5.79,36.32-15.03,37.25-19.64,.53-2.62-7.43-11.89-11.31-17.62,7.55-12.13,15.06-24.3,22.5-36.5,15.74,4.18,31.51,8.26,47.3,12.25Z"/>
        <path class="cls-80" d="M1327.09,660.09c-12.67,47.27-25.93,94.36-39.75,141.31h-192.8c-8.03-15.19-16.07-30.86-23.11-42.69-19.06-32.03-37.76-64.28-56.1-96.73,23.86-20.95,47.47-42.16,70.84-63.64,15.4-7.81,30.75-15.7,46.06-23.68-3.89-8.91-7.78-17.83-11.64-26.76,3.39-9.99,6.75-19.99,10.09-30,38.13,12.27,76.42,23.95,114.89,35.07,18.2,17.95,36.55,35.75,55.05,53.39-6.02,6.26-17.96,16.32-17.72,20.01,.46,6.97,29.91,23.71,44.2,33.72Z"/>
        <path class="cls-82" d="M936.08,536.16c14.09,1.5,33.5,5.94,47.6,7.31,28.22,3.7,38.69,8.51,66.98,11.65-12.89,22.56-25.97,45.01-39.24,67.36-27.07,9.28-54.22,18.3-81.46,27.06-14.36-7.45-28.68-14.98-42.96-22.59,9.7-11.41,19.33-22.86,28.92-34.37-1.1-8.6-2.2-17.2-3.29-25.8,3.68-8.73,19.81-21.87,23.45-30.62Z"/>
      </g>
    </g>
    <g>
      <g>
        <polygon class="cls-81" points="576.29 762.62 580.53 744.76 607.86 714.45 586.08 721.37 590.24 703.83 603.96 688.62 593.03 692.1 596.59 677.12 612.34 651.87 601.41 656.79 604.87 642.23 617.3 622.31 608.68 626.19 615.06 599.31 622.52 591.04 616.57 592.93 620.26 577.4 625.42 571.68 621.31 572.99 630.09 535.99 639.29 582.74 633.93 580.43 640.91 590.98 647.71 625.55 637.36 621.1 650.84 641.48 653.48 654.91 642.82 651.87 655.38 664.57 659.54 685.68 646.8 682.05 661.81 697.22 666.82 722.71 645 716.49 670.71 742.48 676.07 769.74 661.46 765.57 678.68 782.97 682.81 803.96 566.47 803.96 569.7 790.37 602.14 754.4 576.29 762.62"/>
        <polygon class="cls-14" points="596 758.21 592.03 741.47 566.4 713.05 586.82 719.54 582.92 703.1 570.06 688.84 580.31 692.1 576.97 678.05 562.2 654.38 572.45 659 569.21 645.35 557.55 626.67 565.64 630.31 559.65 605.11 552.66 597.35 558.23 599.13 554.78 584.57 549.94 579.2 553.79 580.43 545.56 545.75 536.94 589.57 541.96 587.41 535.42 597.3 529.04 629.71 538.75 625.53 526.1 644.64 523.63 657.23 533.63 654.38 521.85 666.29 517.95 686.08 529.9 682.67 515.82 696.9 511.12 720.8 531.59 714.97 507.48 739.33 502.45 764.88 516.15 760.98 500.01 777.29 496.14 796.97 605.2 796.97 602.18 784.23 571.77 750.5 596 758.21"/>
        <polygon class="cls-13" points="683.25 734.55 656.27 743.39 661.97 718.66 686.21 690.97 666.9 697.3 671.62 676.8 685.9 653.23 675.99 657.82 681.04 635.92 685.9 627.9 682.53 629.46 686.13 613.82 695.78 602.81 688.09 605.33 692.28 587.15 695.78 583.15 692.99 584.07 701.76 546 710.38 591.14 705.81 589.12 711.77 598.39 714.91 614.84 705.81 610.8 717.66 629.25 719.83 640.6 708.96 635.78 723.12 657.83 727.41 680.31 708.24 674.68 730.82 698.19 733.83 713.91 709.53 706.77 738.15 736.57 741.03 751.62 719.02 745.15 744.95 772.15 749.11 793.98 644.62 793.98 649.4 773.23 683.25 734.55"/>
        <polygon class="cls-16" points="740.59 736.01 766.91 744.63 761.35 720.51 737.71 693.49 756.55 699.67 751.94 679.68 738.01 656.68 747.68 661.16 742.75 639.8 734.37 632.06 741.3 633.5 737.79 618.24 731.48 609.11 735.88 609.95 731.79 592.22 728.38 588.32 731.1 589.21 722.54 552.08 714.13 596.12 718.59 594.14 712.78 603.19 709.72 619.23 718.59 615.29 707.03 633.29 704.92 644.36 715.52 639.66 701.71 661.17 697.52 683.1 716.22 677.61 694.19 700.54 691.26 715.87 714.96 708.91 687.04 737.98 684.24 752.66 705.71 746.35 680.42 772.69 676.35 793.98 778.28 793.98 773.62 773.74 740.59 736.01"/>
        <polygon class="cls-15" points="827.08 755.72 823.27 739.19 798.72 711.14 818.28 717.55 814.54 701.31 802.22 687.24 812.04 690.46 808.84 676.59 794.69 653.23 804.51 657.78 801.4 644.31 790.24 625.87 797.98 629.47 792.25 604.59 785.55 596.94 790.89 598.69 787.58 584.31 782.94 579.02 786.64 580.23 778.75 546 770.49 589.25 775.3 587.12 769.03 596.88 762.92 628.88 772.22 624.75 760.11 643.61 757.73 656.04 767.31 653.23 756.03 664.98 752.3 684.52 763.74 681.16 750.26 695.2 745.75 718.79 765.36 713.03 742.26 737.08 737.44 762.3 750.57 758.45 735.11 774.55 731.4 793.98 835.89 793.98 832.99 781.4 803.86 748.11 827.08 755.72"/>
        <polygon class="cls-9" points="528.37 764.79 531.67 750.88 552.95 727.28 535.99 732.67 539.23 719.01 549.91 707.17 541.4 709.88 544.17 698.22 556.44 678.56 547.93 682.39 550.62 671.06 560.3 655.54 553.58 658.57 558.55 637.64 564.36 631.2 559.73 632.67 562.6 620.58 566.62 616.13 563.42 617.15 570.26 588.34 577.41 624.74 573.24 622.94 578.68 631.16 583.97 658.07 575.91 654.6 586.41 670.47 588.47 680.93 580.16 678.56 589.95 688.45 593.18 704.88 583.26 702.06 594.95 713.87 598.85 733.72 581.86 728.87 601.88 749.11 606.05 770.33 594.68 767.08 608.08 780.63 611.3 796.97 520.72 796.97 523.24 786.39 548.49 758.38 528.37 764.79"/>
        <polygon class="cls-11" points="455.44 763.64 458.84 749.33 480.74 725.04 463.28 730.59 466.62 716.53 477.61 704.34 468.85 707.13 471.7 695.12 484.33 674.89 475.57 678.84 478.34 667.17 488.3 651.2 481.39 654.32 486.51 632.78 492.48 626.15 487.72 627.67 490.67 615.22 494.81 610.63 491.51 611.68 498.55 582.04 505.92 619.5 501.63 617.65 507.22 626.1 512.67 653.81 504.37 650.23 515.18 666.57 517.3 677.33 508.75 674.89 518.82 685.07 522.15 701.99 511.94 699.08 523.97 711.23 527.99 731.66 510.5 726.68 531.1 747.5 535.4 769.34 523.69 766 537.48 779.95 540.79 796.77 447.57 796.77 450.16 785.87 476.15 757.05 455.44 763.64"/>
        <polygon class="cls-10" points="636.59 763.97 633.08 749.17 610.44 724.07 628.48 729.81 625.03 715.27 613.67 702.68 622.72 705.56 619.77 693.15 606.72 672.23 615.78 676.31 612.91 664.25 602.62 647.75 609.76 650.97 604.47 628.7 598.29 621.85 603.22 623.42 600.16 610.55 595.89 605.81 599.3 606.89 592.02 576.25 584.4 614.97 588.84 613.06 583.06 621.8 577.43 650.44 586 646.74 574.83 663.63 572.64 674.75 581.48 672.23 571.07 682.75 567.63 700.24 578.18 697.23 565.75 709.8 561.6 730.92 579.68 725.76 558.37 747.29 553.93 769.87 566.04 766.41 551.78 780.83 548.36 798.22 644.72 798.22 642.05 786.96 615.18 757.16 636.59 763.97"/>
        <polygon class="cls-12" points="976.05 763.28 973.11 750.54 954.18 728.91 969.27 733.85 966.38 721.33 956.88 710.48 964.45 712.96 961.99 702.27 951.07 684.25 958.65 687.77 956.25 677.38 947.64 663.16 953.61 665.93 949.19 646.75 944.03 640.85 948.14 642.2 945.59 631.11 942.02 627.03 944.86 627.96 938.78 601.57 932.41 634.92 936.12 633.28 931.29 640.81 926.58 665.47 933.75 662.29 924.41 676.84 922.58 686.42 929.97 684.25 921.26 693.31 918.39 708.38 927.21 705.79 916.81 716.61 913.34 734.81 928.46 730.37 910.65 748.91 906.93 768.36 917.05 765.39 905.13 777.81 902.27 792.79 982.85 792.79 980.61 783.09 958.14 757.42 976.05 763.28"/>
        <polygon class="cls-65" points="1185.19 769.89 1182.21 757.15 1163.21 735.57 1178.31 740.47 1175.38 727.96 1165.85 717.13 1173.42 719.59 1170.92 708.91 1159.95 690.92 1167.53 694.41 1165.1 684.03 1156.44 669.84 1162.42 672.59 1157.94 653.42 1152.75 647.53 1156.87 648.87 1154.28 637.8 1150.69 633.72 1153.54 634.65 1147.37 608.27 1141.11 641.64 1144.82 639.98 1140.01 647.53 1135.38 672.21 1142.54 669.01 1133.25 683.58 1131.46 693.16 1138.84 690.97 1130.17 700.06 1127.34 715.13 1136.16 712.52 1125.8 723.37 1122.39 741.58 1137.49 737.1 1119.74 755.69 1116.1 775.15 1126.21 772.15 1114.33 784.59 1111.52 799.58 1192.1 799.37 1189.83 789.67 1167.27 764.06 1185.19 769.89"/>
        <polygon class="cls-63" points="949.04 768.62 945.62 753.79 923.59 728.63 941.14 734.38 937.79 719.81 926.74 707.19 935.54 710.07 932.68 697.64 919.98 676.67 928.79 680.76 926 668.67 915.98 652.13 922.93 655.36 917.79 633.04 911.78 626.17 916.57 627.74 913.6 614.85 909.44 610.1 912.75 611.18 905.68 580.47 898.27 619.28 902.58 617.36 896.96 626.12 891.48 654.82 899.82 651.12 888.95 668.05 886.82 679.2 895.42 676.67 885.29 687.22 881.95 704.74 892.21 701.73 880.12 714.32 876.07 735.49 893.66 730.33 872.94 751.9 868.62 774.53 880.4 771.07 866.52 785.52 863.19 802.95 956.95 802.95 954.34 791.66 928.2 761.8 949.04 768.62"/>
        <polygon class="cls-66" points="520.62 765.73 517.95 754.51 500.8 735.48 514.47 739.84 511.85 728.82 503.25 719.27 510.11 721.46 507.87 712.05 497.98 696.2 504.84 699.29 502.67 690.15 494.87 677.64 500.28 680.08 496.28 663.2 491.59 658.01 495.33 659.2 493.01 649.45 489.77 645.86 492.35 646.68 486.84 623.45 481.07 652.8 484.43 651.35 480.05 657.97 475.78 679.68 482.28 676.88 473.81 689.68 472.15 698.11 478.85 696.2 470.96 704.17 468.35 717.43 476.35 715.15 466.93 724.67 463.78 740.68 477.48 736.77 461.34 753.09 457.97 770.2 467.15 767.58 456.34 778.5 453.74 791.68 526.78 791.68 524.75 783.15 504.39 760.57 520.62 765.73"/>
        <polygon class="cls-68" points="627.47 754.05 631.45 736.8 657.07 707.53 636.65 714.22 640.56 697.28 653.41 682.6 643.17 685.95 646.5 671.49 661.27 647.1 651.02 651.86 654.26 637.8 665.92 618.56 657.83 622.31 663.82 596.35 670.81 588.36 665.24 590.19 668.69 575.19 673.53 569.67 669.67 570.93 677.91 535.21 686.53 580.35 681.5 578.12 688.05 588.31 694.42 621.69 684.72 617.39 697.36 637.07 699.83 650.04 689.84 647.1 701.61 659.36 705.51 679.75 693.56 676.25 707.63 690.9 712.34 715.52 691.88 709.51 715.98 734.61 721.01 760.92 707.31 756.9 723.45 773.7 727.32 793.98 618.27 793.98 621.3 780.85 651.7 746.11 627.47 754.05"/>
        <polygon class="cls-69" points="1095.22 760.16 1091.47 744.34 1067.26 717.5 1086.55 723.63 1082.86 708.1 1070.72 694.63 1080.4 697.71 1077.25 684.44 1063.29 662.08 1072.97 666.44 1069.91 653.55 1058.9 635.91 1066.54 639.35 1060.89 615.55 1054.28 608.22 1059.55 609.9 1056.28 596.14 1051.71 591.08 1055.35 592.23 1047.58 559.48 1039.43 600.87 1044.18 598.82 1038 608.17 1031.97 638.78 1041.14 634.84 1029.2 652.89 1026.86 664.78 1036.31 662.08 1025.18 673.33 1021.5 692.03 1032.78 688.81 1019.49 702.24 1015.05 724.82 1034.38 719.31 1011.61 742.33 1006.86 766.46 1019.8 762.77 1004.55 778.18 1000.9 796.77 1103.91 796.77 1101.06 784.73 1072.33 752.88 1095.22 760.16"/>
        <polygon class="cls-64" points="1070.98 767.91 1074.22 754.27 1095.09 731.13 1078.46 736.42 1081.64 723.02 1092.11 711.41 1083.77 714.07 1086.48 702.63 1098.51 683.35 1090.17 687.11 1092.81 675.99 1102.3 660.78 1095.71 663.75 1100.59 643.22 1106.28 636.91 1101.74 638.35 1104.56 626.49 1108.5 622.12 1105.36 623.12 1112.07 594.88 1119.09 630.57 1114.99 628.8 1120.32 636.86 1125.52 663.26 1117.61 659.85 1127.91 675.42 1129.93 685.67 1121.78 683.35 1131.38 693.04 1134.55 709.16 1124.82 706.39 1136.28 717.97 1140.11 737.44 1123.45 732.69 1143.08 752.54 1147.17 773.34 1136.02 770.16 1149.16 783.45 1152.31 799.48 1063.49 799.48 1065.95 789.1 1090.72 761.63 1070.98 767.91"/>
        <polygon class="cls-72" points="980.34 740.99 1004.23 748.83 999.19 726.92 977.72 702.4 994.83 708.01 990.64 689.86 978 668.98 986.77 673.05 982.3 653.66 978 646.55 980.98 647.94 977.79 634.09 969.25 624.33 976.06 626.56 972.35 610.47 969.25 606.93 971.72 607.74 963.95 574.02 956.32 614 960.37 612.21 955.09 620.42 952.31 634.98 960.37 631.41 949.87 647.75 947.95 657.8 957.58 653.53 945.04 673.06 941.24 692.96 958.21 687.98 938.22 708.8 935.56 722.72 957.07 716.4 931.73 742.79 929.18 756.11 948.67 750.38 925.71 774.29 922.02 793.62 1014.56 793.62 1010.32 775.25 980.34 740.99"/>
        <polygon class="cls-73" points="1123.57 769.43 1120.88 758.1 1103.55 738.88 1117.36 743.28 1114.72 732.15 1106.02 722.51 1112.95 724.71 1110.7 715.21 1100.7 699.2 1107.64 702.33 1105.44 693.09 1097.56 680.46 1103.03 682.93 1098.98 665.88 1094.25 660.64 1098.02 661.84 1095.68 651.99 1092.41 648.36 1095.02 649.19 1089.45 625.73 1083.62 655.37 1087.02 653.91 1082.59 660.6 1078.28 682.52 1084.84 679.69 1076.29 692.62 1074.62 701.13 1081.38 699.2 1073.41 707.26 1070.78 720.64 1078.86 718.34 1069.34 727.96 1066.16 744.13 1080 740.18 1063.7 756.66 1060.3 773.94 1069.56 771.3 1058.65 782.33 1056.03 795.64 1129.79 795.64 1127.74 787.02 1107.18 764.21 1123.57 769.43"/>
        <polygon class="cls-75" points="1162.89 771.88 1160.2 760.55 1142.87 741.33 1156.68 745.73 1154.04 734.6 1145.35 724.96 1152.28 727.16 1150.02 717.66 1140.03 701.65 1146.96 704.78 1144.77 695.54 1136.89 682.91 1142.36 685.37 1138.31 668.33 1133.58 663.09 1137.35 664.29 1135.01 654.44 1131.74 650.81 1134.35 651.64 1128.78 628.18 1122.95 657.82 1126.35 656.36 1121.92 663.05 1117.61 684.97 1124.17 682.14 1115.62 695.07 1113.95 703.58 1120.71 701.65 1112.74 709.71 1110.11 723.09 1118.19 720.79 1108.67 730.41 1105.49 746.58 1119.33 742.63 1103.02 759.11 1099.62 776.39 1108.89 773.75 1097.97 784.78 1095.35 798.09 1169.12 798.09 1167.07 789.47 1146.5 766.66 1162.89 771.88"/>
        <polygon class="cls-74" points="1031.47 768.88 1034.33 756.83 1052.77 736.38 1038.08 741.06 1040.89 729.22 1050.14 718.96 1042.77 721.31 1045.17 711.2 1055.8 694.17 1048.42 697.49 1050.75 687.67 1059.14 674.23 1053.32 676.85 1057.63 658.71 1062.66 653.13 1058.65 654.41 1061.14 643.93 1064.62 640.07 1061.84 640.96 1067.77 616 1073.97 647.53 1070.36 645.98 1075.07 653.1 1079.65 676.42 1072.67 673.41 1081.77 687.16 1083.55 696.22 1076.35 694.17 1084.83 702.73 1087.63 716.98 1079.04 714.53 1089.16 724.76 1092.55 741.96 1077.82 737.76 1095.17 755.3 1098.79 773.68 1088.93 770.87 1100.54 782.61 1103.33 796.77 1024.85 796.77 1027.03 787.6 1048.91 763.33 1031.47 768.88"/>
        <polygon class="cls-50" points="1430.62 777.11 1428.6 768.62 1415.61 754.21 1425.96 757.5 1423.98 749.16 1417.46 741.93 1422.66 743.58 1420.97 736.46 1413.47 724.45 1418.67 726.8 1417.03 719.87 1411.12 710.4 1415.22 712.25 1412.18 699.47 1408.64 695.53 1411.46 696.43 1409.71 689.05 1407.26 686.33 1409.21 686.95 1405.04 669.36 1400.66 691.59 1403.21 690.49 1399.89 695.51 1396.66 711.94 1401.58 709.82 1395.17 719.52 1393.91 725.9 1398.98 724.45 1393.01 730.49 1391.04 740.53 1397.09 738.8 1389.96 746.02 1387.57 758.14 1397.95 755.18 1385.72 767.54 1383.17 780.5 1390.12 778.51 1381.94 786.79 1379.97 796.77 1435.28 796.77 1433.75 790.31 1418.33 773.2 1430.62 777.11"/>
        <polygon class="cls-44" points="1400.28 781.79 1401.82 775.32 1411.72 764.35 1403.83 766.86 1405.34 760.5 1410.31 754.99 1406.35 756.25 1407.64 750.83 1413.34 741.68 1409.38 743.46 1410.64 738.19 1415.14 730.97 1412.01 732.38 1414.33 722.65 1417.03 719.65 1414.87 720.33 1416.21 714.71 1418.08 712.64 1416.59 713.11 1419.77 699.71 1423.1 716.64 1421.16 715.81 1423.69 719.63 1426.15 732.15 1422.4 730.53 1427.29 737.92 1428.24 742.78 1424.38 741.68 1428.93 746.28 1430.44 753.93 1425.82 752.61 1431.26 758.11 1433.07 767.34 1425.17 765.09 1434.48 774.5 1436.43 784.37 1431.13 782.86 1437.37 789.17 1438.86 796.77 1396.73 796.77 1397.9 791.84 1409.65 778.82 1400.28 781.79"/>
        <polygon class="cls-51" points="1123.34 777.36 1125.44 768.49 1139.02 753.43 1128.2 756.87 1130.27 748.16 1137.08 740.6 1131.65 742.33 1133.42 734.89 1141.25 722.34 1135.82 724.79 1137.54 717.56 1143.71 707.66 1139.43 709.59 1142.6 696.24 1146.3 692.13 1143.35 693.07 1145.18 685.35 1147.75 682.51 1145.7 683.16 1150.07 664.78 1154.63 688 1151.97 686.86 1155.44 692.1 1158.82 709.27 1153.67 707.06 1160.37 717.18 1161.69 723.85 1156.39 722.34 1162.63 728.65 1164.69 739.14 1158.36 737.34 1165.82 744.87 1168.31 757.54 1157.47 754.45 1170.24 767.36 1172.91 780.9 1165.65 778.83 1174.2 787.47 1176.25 797.9 1118.46 797.9 1120.07 791.15 1136.18 773.28 1123.34 777.36"/>
        <polygon class="cls-52" points="1052.89 755.38 1049.08 738.86 1024.54 710.83 1044.1 717.24 1040.36 701.01 1028.05 686.95 1037.86 690.16 1034.66 676.31 1020.52 652.95 1030.33 657.51 1027.23 644.04 1016.07 625.62 1023.81 629.21 1018.08 604.35 1011.38 596.7 1016.72 598.45 1013.41 584.08 1008.78 578.79 1012.47 580 1004.59 545.79 996.33 589.02 1001.14 586.88 994.87 596.64 988.77 628.62 998.06 624.49 985.96 643.35 983.59 655.76 993.16 652.95 981.88 664.7 978.15 684.22 989.59 680.87 976.11 694.9 971.61 718.48 991.21 712.72 968.12 736.76 963.31 761.96 976.43 758.11 960.97 774.2 957.26 793.62 1061.7 793.62 1058.8 781.04 1029.68 747.78 1052.89 755.38"/>
        <polygon class="cls-48" points="921.18 756.1 917.49 740.11 893.75 712.98 912.67 719.19 909.05 703.48 897.14 689.87 906.63 692.98 903.54 679.58 889.85 656.98 899.35 661.38 896.35 648.35 885.55 630.52 893.04 634 887.49 609.94 881.01 602.54 886.18 604.23 882.97 590.33 878.49 585.21 882.06 586.38 874.43 553.27 866.45 595.1 871.1 593.04 865.04 602.48 859.13 633.43 868.12 629.44 856.41 647.68 854.11 659.7 863.38 656.98 852.46 668.34 848.85 687.24 859.92 683.99 846.88 697.57 842.52 720.39 861.49 714.82 839.15 738.08 834.49 762.47 847.18 758.74 832.23 774.31 828.64 793.1 929.7 793.1 926.9 780.94 898.72 748.74 921.18 756.1"/>
        <polygon class="cls-49" points="805.02 758.04 801.44 742.51 778.37 716.16 796.75 722.18 793.24 706.93 781.67 693.71 790.89 696.73 787.89 683.71 774.59 661.75 783.82 666.04 780.9 653.38 770.41 636.06 777.69 639.44 772.3 616.07 766.01 608.88 771.02 610.52 767.91 597.02 763.56 592.04 767.03 593.18 759.62 561.02 751.86 601.66 756.38 599.65 750.49 608.83 744.75 638.88 753.49 635 742.11 652.73 739.88 664.4 748.88 661.75 738.27 672.79 734.77 691.15 745.52 687.99 732.85 701.18 728.62 723.35 747.04 717.94 725.34 740.53 720.82 764.22 733.15 760.6 718.62 775.73 715.13 793.98 813.3 793.98 810.58 782.16 783.21 750.89 805.02 758.04"/>
        <polygon class="cls-45" points="842.34 732.22 870.38 741.41 864.45 715.7 839.26 686.92 859.34 693.5 854.43 672.2 839.59 647.7 849.88 652.48 844.64 629.72 835.7 621.47 843.09 623 839.34 606.75 832.62 597.02 837.31 597.92 832.96 579.03 829.32 574.88 832.22 575.82 823.1 536.26 814.14 583.18 818.89 581.07 812.7 590.71 809.44 607.8 818.89 603.61 806.58 622.78 804.33 634.58 815.62 629.57 800.91 652.49 796.45 675.85 816.37 670 792.9 694.43 789.78 710.76 815.02 703.35 785.28 734.32 782.3 749.95 805.17 743.24 778.22 771.29 773.89 793.98 882.49 793.98 877.52 772.42 842.34 732.22"/>
        <polygon class="cls-46" points="290.74 765.47 308.44 771.28 304.7 755.05 288.79 736.87 301.47 741.03 298.37 727.58 289 712.11 295.5 715.12 292.19 700.75 289 695.48 291.21 696.51 288.85 686.25 282.52 679.02 287.56 680.67 284.81 668.74 282.52 666.12 284.35 666.72 278.59 641.74 272.93 671.37 275.93 670.03 272.02 676.12 269.96 686.91 275.93 684.27 268.16 696.37 266.73 703.82 273.87 700.66 264.58 715.13 261.76 729.88 274.34 726.18 259.52 741.61 257.55 751.93 273.49 747.24 254.71 766.8 252.82 776.67 267.27 772.43 250.25 790.15 247.52 804.47 316.09 804.47 312.95 790.86 290.74 765.47"/>
        <polygon class="cls-47" points="250.67 767.48 233.88 772.98 237.42 757.59 252.51 740.35 240.49 744.29 243.43 731.53 252.32 716.85 246.15 719.72 249.29 706.08 254.65 701.14 250.22 702.06 252.46 692.33 256.49 686.5 253.68 687.04 256.29 675.72 258.47 673.23 256.73 673.8 262.19 650.1 267.56 678.21 264.71 676.95 268.42 682.72 270.37 692.96 264.71 690.44 272.09 701.93 273.44 709 266.67 705.99 275.49 719.72 278.16 733.71 266.23 730.21 280.28 744.84 282.15 754.63 267.03 750.19 284.84 768.74 286.63 778.1 272.93 774.08 289.07 790.88 291.67 804.47 226.62 804.47 229.59 791.56 250.67 767.48"/>
        <polygon class="cls-29" points="196.36 779.36 198.86 768.51 214.97 750.11 202.13 754.32 204.58 743.66 212.67 734.43 206.22 736.54 208.32 727.44 217.61 712.11 211.17 715.1 213.2 706.25 220.53 694.16 215.45 696.51 219.21 680.19 223.61 675.17 220.1 676.32 222.28 666.88 225.32 663.41 222.89 664.2 228.07 641.74 233.49 670.13 230.33 668.72 234.45 675.13 238.46 696.13 232.35 693.42 240.3 705.8 241.86 713.95 235.57 712.11 242.98 719.82 245.43 732.64 237.92 730.43 246.77 739.65 249.72 755.13 236.86 751.35 252.01 767.13 255.17 783.68 246.56 781.15 256.71 791.72 259.14 804.47 190.57 804.47 192.47 796.21 211.59 774.37 196.36 779.36"/>
        <polygon class="cls-60" points="118.28 788.59 119.91 781.5 130.43 769.48 122.05 772.22 123.65 765.26 128.93 759.23 124.72 760.61 126.09 754.67 132.16 744.65 127.95 746.6 129.28 740.83 134.07 732.92 130.75 734.47 133.21 723.8 136.08 720.52 133.79 721.27 135.21 715.11 137.2 712.84 135.61 713.36 138.99 698.68 142.53 717.23 140.47 716.31 143.16 720.5 145.78 734.21 141.79 732.44 146.98 740.53 148 745.86 143.89 744.65 148.73 749.69 150.33 758.06 145.43 756.62 151.21 762.64 153.14 772.76 144.73 770.29 154.64 780.6 156.7 791.41 151.07 789.76 157.7 796.66 159.29 804.99 114.5 804.99 115.74 799.59 128.23 785.32 118.28 788.59"/>
        <polygon class="cls-61" points="128.05 789.7 130.12 780.74 143.41 765.56 132.82 769.03 134.84 760.24 141.51 752.62 136.2 754.36 137.93 746.85 145.59 734.2 140.27 736.67 141.96 729.37 148 719.39 143.81 721.34 146.91 707.87 150.54 703.72 147.65 704.67 149.44 696.89 151.95 694.02 149.95 694.68 154.22 676.14 158.7 699.56 156.09 698.41 159.48 703.69 162.79 721.02 157.76 718.78 164.32 729 165.6 735.72 160.41 734.2 166.52 740.56 168.54 751.14 162.35 749.32 169.65 756.92 172.09 769.7 161.47 766.58 173.98 779.61 176.59 793.26 169.48 791.17 177.85 799.89 179.86 810.41 123.28 810.41 124.85 803.6 140.63 785.57 128.05 789.7"/>
        <polygon class="cls-54" points="331.13 776.13 328.31 763.89 310.12 743.12 324.61 747.87 321.84 735.84 312.72 725.42 319.99 727.8 317.62 717.53 307.14 700.23 314.41 703.6 312.11 693.63 303.84 679.97 309.58 682.63 305.34 664.21 300.37 658.54 304.33 659.84 301.87 649.19 298.44 645.27 301.18 646.17 295.33 620.81 289.22 652.85 292.78 651.27 288.14 658.5 283.61 682.19 290.5 679.14 281.53 693.11 279.77 702.31 286.87 700.23 278.51 708.93 275.75 723.4 284.22 720.91 274.24 731.31 270.9 748.79 285.42 744.52 268.31 762.33 264.75 781.01 274.47 778.16 263.01 790.08 260.27 804.47 337.66 804.47 335.51 795.15 313.93 770.5 331.13 776.13"/>
        <polygon class="cls-58" points="42.62 784.75 41.05 777.97 30.98 766.46 39.01 769.09 37.47 762.42 32.42 756.65 36.44 757.97 35.13 752.28 29.33 742.69 33.35 744.56 32.08 739.03 27.5 731.46 30.68 732.94 28.32 722.73 25.57 719.59 27.77 720.31 26.41 714.41 24.5 712.24 26.02 712.73 22.78 698.68 19.39 716.44 21.37 715.56 18.79 719.57 16.29 732.7 20.1 731 15.13 738.74 14.16 743.84 18.09 742.69 13.46 747.51 11.93 755.53 16.62 754.15 11.09 759.91 9.24 769.6 17.29 767.23 7.81 777.1 5.83 787.45 11.22 785.87 4.87 792.48 3.35 800.45 46.24 800.45 45.05 795.29 33.09 781.63 42.62 784.75"/>
        <polygon class="cls-62" points="115.89 776.2 102.61 780.55 105.41 768.37 117.35 754.74 107.84 757.86 110.16 747.77 117.19 736.16 112.32 738.42 114.8 727.64 117.19 723.69 115.53 724.46 117.31 716.76 122.05 711.34 118.27 712.58 120.33 703.63 122.05 701.66 120.68 702.11 125 683.37 129.25 705.6 126.99 704.6 129.93 709.16 131.47 717.26 126.99 715.27 132.83 724.36 133.89 729.95 128.54 727.57 135.51 738.43 137.63 749.49 128.19 746.72 139.31 758.3 140.79 766.03 128.83 762.52 142.92 777.19 144.33 784.6 133.5 781.41 146.26 794.71 148.31 805.45 96.87 805.45 99.22 795.24 115.89 776.2"/>
        <polygon class="cls-55" points="75.56 784.19 77.68 775.01 91.32 759.42 80.45 762.99 82.53 753.97 89.37 746.15 83.92 747.94 85.69 740.23 93.55 727.25 88.1 729.78 89.82 722.3 96.03 712.05 91.72 714.05 94.91 700.23 98.63 695.98 95.67 696.95 97.51 688.96 100.08 686.02 98.03 686.69 102.41 667.67 107 691.71 104.33 690.52 107.81 695.95 111.2 713.72 106.04 711.43 112.77 721.91 114.09 728.81 108.76 727.25 115.03 733.78 117.11 744.63 110.75 742.77 118.24 750.57 120.74 763.68 109.85 760.48 122.68 773.84 125.36 787.85 118.07 785.71 126.66 794.66 128.72 805.45 70.66 805.45 72.27 798.46 88.46 779.97 75.56 784.19"/>
        <polygon class="cls-59" points="144.87 782.14 147.09 772.49 161.42 756.12 150 759.86 152.19 750.38 159.38 742.17 153.65 744.05 155.51 735.95 163.77 722.31 158.04 724.97 159.85 717.11 166.37 706.35 161.85 708.45 165.2 693.93 169.11 689.46 165.99 690.48 167.92 682.09 170.63 679 168.47 679.71 173.08 659.72 177.9 684.97 175.09 683.73 178.75 689.43 182.31 708.1 176.89 705.69 183.96 716.7 185.34 723.96 179.75 722.31 186.34 729.17 188.52 740.58 181.84 738.62 189.71 746.81 192.34 760.58 180.89 757.22 194.37 771.26 197.19 785.98 189.52 783.73 198.55 793.13 200.72 804.47 139.72 804.47 141.41 797.13 158.42 777.7 144.87 782.14"/>
        <polygon class="cls-57" points="210.83 780.88 213.18 770.69 228.31 753.4 216.25 757.35 218.56 747.35 226.15 738.67 220.1 740.65 222.07 732.11 230.8 717.7 224.74 720.51 226.66 712.21 233.54 700.84 228.77 703.06 232.3 687.72 236.43 683 233.14 684.08 235.18 675.22 238.04 671.96 235.76 672.7 240.63 651.6 245.72 678.27 242.75 676.95 246.62 682.97 250.38 702.69 244.65 700.15 252.12 711.78 253.58 719.44 247.67 717.7 254.63 724.95 256.93 736.99 249.88 734.92 258.19 743.57 260.96 758.12 248.88 754.57 263.12 769.4 266.09 784.94 257.99 782.57 267.53 792.49 269.81 804.47 205.4 804.47 207.18 796.71 225.14 776.19 210.83 780.88"/>
        <polygon class="cls-56" points="185.67 760.99 165.93 767.46 170.1 749.37 187.83 729.1 173.7 733.74 177.15 718.74 187.6 701.49 180.35 704.86 184.05 688.83 190.34 683.03 185.14 684.11 187.77 672.67 192.5 665.82 189.21 666.45 192.27 653.15 194.83 650.23 192.79 650.9 199.21 623.04 205.52 656.07 202.17 654.59 206.53 661.37 208.82 673.41 202.17 670.46 210.84 683.95 212.42 692.26 204.47 688.73 214.83 704.86 217.97 721.31 203.95 717.19 220.47 734.39 222.67 745.89 204.89 740.67 225.83 762.47 227.93 773.48 211.83 768.75 230.8 788.5 233.85 804.47 157.4 804.47 160.9 789.29 185.67 760.99"/>
        <polygon class="cls-30" points="399.83 773.01 403.17 758.53 424.67 733.96 407.53 739.57 410.81 725.35 421.6 713.03 413 715.85 415.8 703.7 428.2 683.24 419.6 687.23 422.32 675.43 432.1 659.28 425.31 662.43 430.33 640.64 436.2 633.93 431.53 635.47 434.43 622.88 438.49 618.24 435.25 619.3 442.16 589.32 449.4 627.2 445.18 625.33 450.67 633.89 456.02 661.91 447.88 658.3 458.49 674.82 460.56 685.7 452.17 683.24 462.06 693.53 465.33 710.64 455.3 707.7 467.11 720 471.06 740.66 453.89 735.62 474.12 756.68 478.34 778.77 466.84 775.4 480.38 789.5 483.63 806.52 392.11 806.52 394.65 795.5 420.17 766.34 399.83 773.01"/>
        <polygon class="cls-43" points="292.62 783.43 294.92 773.45 309.73 756.52 297.93 760.39 300.18 750.59 307.62 742.1 301.69 744.04 303.62 735.67 312.16 721.57 306.24 724.32 308.11 716.19 314.85 705.06 310.18 707.23 313.64 692.22 317.68 687.6 314.46 688.66 316.46 679.98 319.25 676.79 317.02 677.52 321.79 656.86 326.77 682.96 323.86 681.68 327.65 687.57 331.34 706.88 325.72 704.39 333.03 715.77 334.47 723.27 328.68 721.57 335.5 728.66 337.75 740.46 330.84 738.43 338.98 746.9 341.7 761.14 329.86 757.66 343.81 772.18 346.71 787.4 338.79 785.07 348.12 794.79 350.36 806.52 287.3 806.52 289.05 798.92 306.63 778.83 292.62 783.43"/>
        <polygon class="cls-36" points="308.67 786.8 311.42 774.85 329.16 754.58 315.02 759.21 317.73 747.48 326.63 737.31 319.54 739.63 321.85 729.61 332.07 712.73 324.98 716.02 327.22 706.28 335.29 692.96 329.69 695.56 333.84 677.58 338.68 672.05 334.82 673.31 337.21 662.92 340.56 659.1 337.89 659.97 343.6 635.23 349.56 666.49 346.09 664.95 350.62 672.01 355.03 695.13 348.31 692.15 357.07 705.78 358.78 714.76 351.86 712.73 360.01 721.22 362.71 735.34 354.44 732.91 364.18 743.06 367.44 760.11 353.27 755.95 369.96 773.33 373.44 791.55 363.96 788.77 375.13 800.41 377.81 814.45 302.3 814.45 304.39 805.35 325.45 781.3 308.67 786.8"/>
        <polygon class="cls-39" points="49.02 780.19 61.4 784.25 58.79 772.9 47.66 760.19 56.53 763.1 54.36 753.69 47.8 742.87 52.35 744.98 50.03 734.93 47.8 731.24 49.35 731.96 47.7 724.78 43.27 719.73 46.8 720.88 44.88 712.54 43.27 710.71 44.55 711.13 40.52 693.65 36.57 714.37 38.66 713.44 35.93 717.7 34.49 725.25 38.66 723.4 33.23 731.86 32.23 737.07 37.22 734.86 30.72 744.98 28.75 755.3 37.55 752.71 27.18 763.51 25.81 770.72 36.96 767.44 23.82 781.12 22.5 788.03 32.6 785.06 20.7 797.45 18.79 807.47 66.75 807.47 64.56 797.95 49.02 780.19"/>
        <polygon class="cls-35" points="26.1 770.19 14.35 774.04 16.83 763.27 27.39 751.21 18.98 753.97 21.03 745.05 27.25 734.78 22.94 736.78 25.13 727.25 28.88 723.79 25.78 724.43 27.35 717.63 30.17 713.55 28.2 713.92 30.03 706.01 31.55 704.27 30.34 704.67 34.16 688.09 37.91 707.75 35.92 706.87 38.51 710.91 39.88 718.07 35.92 716.31 41.08 724.34 42.02 729.28 37.29 727.18 43.45 736.79 45.32 746.57 36.98 744.12 46.81 754.36 48.12 761.2 37.54 758.09 50 771.07 51.25 777.62 41.67 774.8 52.96 786.56 54.77 796.06 9.28 796.06 11.36 787.03 26.1 770.19"/>
        <polygon class="cls-37" points="77.27 787.65 75.3 779.09 62.58 764.56 72.71 767.88 70.77 759.47 64.39 752.18 69.48 753.85 67.82 746.66 60.49 734.56 65.58 736.92 63.97 729.94 58.19 720.39 62.2 722.25 59.23 709.37 55.76 705.4 58.52 706.31 56.81 698.87 54.41 696.12 56.32 696.75 52.23 679.02 47.96 701.42 50.45 700.32 47.2 705.38 44.04 721.95 48.85 719.81 42.58 729.58 41.35 736.02 46.31 734.56 40.47 740.65 38.53 750.77 44.46 749.03 37.48 756.3 35.14 768.52 45.3 765.54 33.33 778 30.84 791.06 37.64 789.06 29.63 797.4 27.71 807.47 81.84 807.47 80.33 800.95 65.24 783.71 77.27 787.65"/>
        <polygon class="cls-40" points="50.33 792.75 51.94 785.77 62.31 773.93 54.05 776.64 55.63 769.79 60.83 763.85 56.68 765.2 58.03 759.35 64.01 749.49 59.86 751.41 61.17 745.73 65.89 737.94 62.62 739.46 65.03 728.96 67.86 725.73 65.61 726.47 67.01 720.4 68.96 718.17 67.4 718.68 70.73 704.23 74.22 722.49 72.19 721.58 74.84 725.71 77.41 739.21 73.49 737.47 78.6 745.43 79.6 750.68 75.56 749.49 80.32 754.45 81.9 762.7 77.07 761.28 82.76 767.2 84.66 777.16 76.39 774.73 86.14 784.88 88.17 795.53 82.63 793.9 89.16 800.7 90.72 808.9 46.61 808.9 47.84 803.59 60.14 789.54 50.33 792.75"/>
        <polygon class="cls-42" points="61.56 795.11 63.49 786.75 75.89 772.57 66.01 775.81 67.9 767.61 74.12 760.49 69.16 762.12 70.78 755.11 77.93 743.3 72.97 745.61 74.54 738.79 80.18 729.48 76.27 731.29 79.16 718.72 82.55 714.85 79.85 715.74 81.53 708.47 83.87 705.79 82 706.41 85.99 689.1 90.16 710.97 87.73 709.89 90.9 714.82 93.99 730.99 89.29 728.91 95.41 738.44 96.61 744.72 91.77 743.3 97.47 749.24 99.36 759.12 93.57 757.42 100.39 764.52 102.67 776.44 92.76 773.53 104.43 785.69 106.86 798.44 100.23 796.49 108.05 804.63 109.92 814.45 57.1 814.45 58.57 808.09 73.3 791.26 61.56 795.11"/>
        <polygon class="cls-38" points="331.11 776.71 334.08 763.83 353.2 741.98 337.96 746.97 340.88 734.32 350.47 723.36 342.82 725.87 345.31 715.07 356.34 696.86 348.69 700.41 351.11 689.91 359.81 675.55 353.77 678.35 358.24 658.97 363.46 653.01 359.3 654.37 361.88 643.17 365.49 639.05 362.61 639.99 368.76 613.32 375.2 647.02 371.44 645.36 376.33 652.97 381.09 677.89 373.84 674.68 383.28 689.37 385.13 699.05 377.67 696.86 386.46 706.02 389.37 721.24 380.45 718.62 390.95 729.56 394.46 747.94 379.19 743.45 397.19 762.19 400.94 781.84 390.71 778.84 402.76 791.38 405.65 806.52 324.24 806.52 326.5 796.71 349.2 770.78 331.11 776.71"/>
        <polygon class="cls-41" points="419.15 775.04 422.29 761.43 442.49 738.35 426.39 743.63 429.47 730.27 439.6 718.69 431.53 721.34 434.15 709.93 445.8 690.71 437.72 694.46 440.28 683.37 449.46 668.2 443.09 671.16 447.81 650.69 453.32 644.39 448.93 645.83 451.65 634.01 455.46 629.65 452.43 630.65 458.92 602.48 465.71 638.07 461.75 636.31 466.91 644.35 471.94 670.67 464.29 667.28 474.25 682.8 476.21 693.02 468.32 690.71 477.61 700.38 480.68 716.45 471.26 713.69 482.36 725.24 486.06 744.65 469.93 739.91 488.94 759.7 492.9 780.45 482.1 777.28 494.82 790.53 497.88 806.52 411.9 806.52 414.28 796.16 438.26 768.77 419.15 775.04"/>
        <polygon class="cls-67" points="385.56 748.49 359.22 757.12 364.78 732.97 388.45 705.93 369.59 712.11 374.2 692.1 388.15 669.07 378.47 673.56 383.4 652.18 391.8 644.43 384.85 645.87 388.37 630.6 394.69 621.46 390.29 622.3 394.38 604.55 397.79 600.65 395.07 601.54 403.64 564.36 412.06 608.45 407.59 606.47 413.41 615.52 416.47 631.59 407.59 627.65 419.16 645.66 421.28 656.75 410.66 652.04 424.49 673.57 428.68 695.52 409.96 690.02 432.02 712.98 434.95 728.33 411.23 721.36 439.17 750.46 441.98 765.15 420.49 758.84 445.81 785.2 449.87 806.52 347.83 806.52 352.5 786.26 385.56 748.49"/>
        <polygon class="cls-70" points="1137.72 775.6 1140.09 765.61 1155.37 748.67 1143.2 752.54 1145.52 742.73 1153.19 734.23 1147.08 736.17 1149.07 727.8 1157.88 713.68 1151.77 716.44 1153.7 708.3 1160.65 697.16 1155.83 699.33 1159.4 684.31 1163.57 679.68 1160.24 680.74 1162.3 672.06 1165.19 668.86 1162.89 669.59 1167.8 648.91 1172.94 675.04 1169.94 673.75 1173.85 679.65 1177.65 698.98 1171.86 696.48 1179.4 707.88 1180.87 715.38 1174.91 713.68 1181.94 720.78 1184.26 732.59 1177.14 730.56 1185.53 739.04 1188.33 753.29 1176.13 749.81 1190.51 764.34 1193.5 779.57 1185.33 777.24 1194.96 786.97 1197.27 798.71 1132.23 798.71 1134.04 791.11 1152.17 771 1137.72 775.6"/>
        <polygon class="cls-33" points="1323.38 772.47 1308.18 777.45 1311.39 763.52 1325.04 747.92 1314.16 751.49 1316.82 739.95 1324.87 726.67 1319.29 729.26 1322.13 716.92 1324.87 712.4 1322.97 713.28 1325 704.47 1330.43 698.27 1326.1 699.69 1328.46 689.45 1330.43 687.2 1328.86 687.71 1333.8 666.27 1338.66 691.7 1336.08 690.56 1339.44 695.78 1341.21 705.04 1336.08 702.77 1342.76 713.16 1343.98 719.56 1337.85 716.84 1345.83 729.26 1348.25 741.92 1337.45 738.75 1350.17 751.99 1351.86 760.85 1338.18 756.83 1354.3 773.61 1355.92 782.09 1343.52 778.44 1358.12 793.65 1360.47 805.94 1301.61 805.94 1304.31 794.26 1323.38 772.47"/>
        <polygon class="cls-34" points="1356.77 770.6 1371.19 775.33 1368.14 762.11 1355.19 747.32 1365.51 750.7 1362.99 739.75 1355.36 727.15 1360.65 729.61 1357.95 717.91 1353.36 713.67 1357.16 714.46 1355.23 706.1 1351.78 701.1 1354.19 701.56 1351.95 691.85 1350.08 689.71 1351.57 690.2 1346.88 669.86 1342.28 693.98 1344.72 692.9 1341.54 697.85 1339.86 706.64 1344.72 704.48 1338.39 714.34 1337.23 720.41 1343.04 717.83 1335.47 729.61 1333.18 741.62 1343.42 738.61 1331.36 751.18 1329.75 759.57 1342.73 755.76 1327.44 771.68 1325.91 779.72 1337.66 776.27 1323.81 790.69 1321.58 802.35 1377.42 802.35 1374.86 791.27 1356.77 770.6"/>
        <polygon class="cls-31" points="1414.36 777.61 1412.22 768.3 1398.39 752.5 1409.41 756.11 1407.3 746.97 1400.36 739.04 1405.89 740.86 1404.09 733.05 1396.12 719.88 1401.65 722.45 1399.9 714.86 1393.61 704.48 1397.98 706.5 1394.75 692.49 1390.97 688.18 1393.98 689.17 1392.12 681.07 1389.5 678.09 1391.59 678.77 1387.14 659.49 1382.49 683.85 1385.2 682.65 1381.67 688.15 1378.23 706.17 1383.47 703.85 1376.64 714.47 1375.31 721.47 1380.7 719.88 1374.35 726.5 1372.24 737.51 1378.69 735.62 1371.1 743.52 1368.56 756.81 1379.6 753.57 1366.59 767.12 1363.88 781.32 1371.27 779.15 1362.56 788.22 1360.47 799.16 1419.33 799.16 1417.7 792.08 1401.29 773.33 1414.36 777.61"/>
        <polygon class="cls-32" points="1285.76 783.82 1288.18 773.31 1303.79 755.48 1291.35 759.56 1293.73 749.24 1301.56 740.29 1295.32 742.34 1297.35 733.53 1306.35 718.67 1300.11 721.57 1302.08 713 1309.18 701.28 1304.26 703.57 1307.9 687.76 1312.16 682.89 1308.77 684 1310.87 674.87 1313.82 671.5 1311.47 672.27 1316.48 650.51 1321.74 678.01 1318.68 676.65 1322.66 682.86 1326.54 703.19 1320.63 700.57 1328.33 712.56 1329.84 720.46 1323.75 718.67 1330.93 726.14 1333.3 738.56 1326.02 736.43 1334.59 745.35 1337.46 760.35 1325 756.69 1339.68 771.98 1342.74 788.01 1334.4 785.56 1344.23 795.79 1346.58 808.14 1280.16 808.14 1282 800.15 1300.52 778.98 1285.76 783.82"/>
        <polygon class="cls-71" points="1392.06 784 1390.05 775.25 1377.06 760.41 1387.41 763.81 1385.43 755.22 1378.91 747.77 1384.1 749.47 1382.41 742.13 1374.93 729.77 1380.12 732.18 1378.48 725.05 1372.57 715.3 1376.67 717.2 1373.64 704.04 1370.09 699.99 1372.91 700.91 1371.16 693.31 1368.71 690.51 1370.66 691.15 1366.49 673.03 1362.12 695.92 1364.67 694.79 1361.35 699.96 1358.12 716.89 1363.04 714.7 1356.63 724.69 1355.37 731.26 1360.44 729.77 1354.47 735.99 1352.5 746.33 1358.55 744.55 1351.42 751.98 1349.03 764.46 1359.41 761.41 1347.18 774.14 1344.64 787.49 1351.58 785.45 1343.4 793.97 1341.44 804.25 1396.73 804.25 1395.19 797.59 1379.78 779.97 1392.06 784"/>
        <polygon class="cls-28" points="1238.78 777.55 1235.8 764.66 1216.66 742.78 1231.92 747.78 1229 735.12 1219.39 724.14 1227.05 726.65 1224.55 715.84 1213.52 697.62 1221.17 701.17 1218.75 690.66 1210.04 676.28 1216.09 679.09 1211.62 659.69 1206.39 653.72 1210.55 655.08 1207.97 643.87 1204.36 639.75 1207.24 640.69 1201.08 613.99 1194.64 647.73 1198.4 646.06 1193.51 653.68 1188.74 678.63 1195.99 675.41 1186.55 690.12 1184.7 699.81 1192.17 697.62 1183.37 706.78 1180.46 722.02 1189.38 719.4 1178.87 730.35 1175.35 748.75 1190.64 744.26 1172.63 763.01 1168.87 782.68 1179.11 779.68 1167.05 792.23 1164.16 807.38 1245.65 807.38 1243.39 797.57 1220.67 771.61 1238.78 777.55"/>
        <polygon class="cls-26" points="1318.81 784.53 1316.83 775.96 1304.12 761.43 1314.25 764.75 1312.31 756.34 1305.93 749.05 1311.02 750.72 1309.36 743.54 1302.03 731.43 1307.12 733.8 1305.51 726.82 1299.72 717.27 1303.74 719.13 1300.77 706.24 1297.3 702.28 1300.06 703.18 1298.35 695.74 1295.95 693 1297.86 693.62 1293.77 675.89 1289.49 698.3 1291.99 697.19 1288.74 702.25 1285.58 718.82 1290.39 716.68 1284.12 726.46 1282.89 732.89 1287.85 731.43 1282.01 737.52 1280.07 747.64 1286 745.9 1279.02 753.17 1276.68 765.4 1286.84 762.41 1274.87 774.87 1272.38 787.94 1279.18 785.94 1271.17 794.28 1269.25 804.34 1323.37 804.34 1321.87 797.83 1306.78 780.58 1318.81 784.53"/>
        <polygon class="cls-27" points="1303.91 786.26 1301.55 776.01 1286.32 758.61 1298.46 762.59 1296.14 752.52 1288.5 743.79 1294.58 745.78 1292.6 737.18 1283.82 722.69 1289.91 725.52 1287.99 717.16 1281.06 705.72 1285.87 707.95 1282.31 692.52 1278.15 687.77 1281.47 688.86 1279.41 679.94 1276.54 676.66 1278.83 677.41 1273.93 656.17 1268.81 683.01 1271.8 681.68 1267.91 687.74 1264.12 707.58 1269.89 705.03 1262.37 716.73 1260.9 724.43 1266.84 722.69 1259.84 729.98 1257.53 742.1 1264.63 740.01 1256.26 748.72 1253.47 763.36 1265.63 759.79 1251.3 774.7 1248.31 790.35 1256.46 787.96 1246.86 797.95 1244.56 810 1309.38 810 1307.58 802.19 1289.51 781.54 1303.91 786.26"/>
        <polygon class="cls-53" points="1286.11 781.9 1283.57 770.84 1267.15 752.08 1280.23 756.37 1277.73 745.52 1269.49 736.11 1276.06 738.26 1273.92 728.99 1264.46 713.36 1271.02 716.41 1268.95 707.4 1261.48 695.07 1266.66 697.47 1262.83 680.84 1258.35 675.72 1261.92 676.89 1259.7 667.28 1256.6 663.74 1259.07 664.55 1253.8 641.66 1248.27 670.58 1251.49 669.15 1247.3 675.69 1243.21 697.08 1249.43 694.32 1241.33 706.93 1239.75 715.24 1246.15 713.36 1238.6 721.22 1236.11 734.28 1243.76 732.04 1234.75 741.42 1231.73 757.2 1244.84 753.35 1229.4 769.43 1226.18 786.3 1234.96 783.72 1224.61 794.49 1222.13 807.48 1292.01 807.48 1290.07 799.07 1270.59 776.81 1286.11 781.9"/>
        <polygon class="cls-21" points="1221.57 779.36 1218.78 767.24 1200.79 746.69 1215.13 751.39 1212.39 739.5 1203.36 729.19 1210.55 731.54 1208.21 721.39 1197.84 704.27 1205.04 707.61 1202.76 697.74 1194.58 684.23 1200.26 686.86 1196.06 668.64 1191.15 663.03 1195.06 664.31 1192.63 653.78 1189.24 649.9 1191.94 650.79 1186.16 625.71 1180.11 657.4 1183.64 655.84 1179.05 662.99 1174.57 686.43 1181.38 683.41 1172.51 697.23 1170.77 706.33 1177.79 704.27 1169.52 712.88 1166.79 727.19 1175.17 724.73 1165.29 735.02 1161.99 752.3 1176.36 748.08 1159.43 765.7 1155.91 784.18 1165.52 781.35 1154.19 793.15 1151.47 807.38 1228.03 807.38 1225.91 798.17 1204.56 773.78 1221.57 779.36"/>
        <polygon class="cls-22" points="1244.49 759.88 1264.54 766.45 1260.3 748.07 1242.29 727.5 1256.65 732.2 1253.14 716.98 1242.53 699.46 1249.89 702.88 1246.14 686.6 1239.75 680.71 1245.03 681.81 1242.35 670.19 1237.55 663.23 1240.9 663.87 1237.79 650.37 1235.19 647.4 1237.26 648.08 1230.74 619.8 1224.34 653.34 1227.73 651.83 1223.31 658.72 1220.98 670.94 1227.73 667.94 1218.93 681.65 1217.32 690.08 1225.4 686.5 1214.88 702.88 1211.69 719.58 1225.93 715.4 1209.15 732.87 1206.92 744.54 1224.97 739.24 1203.71 761.38 1201.57 772.56 1217.92 767.76 1198.66 787.82 1195.56 804.03 1273.2 804.03 1269.65 788.62 1244.49 759.88"/>
        <g>
          <polyline class="cls-23" points="1440 731.47 1433.88 722.23 1438.1 724.05 1435.33 709.96 1432.48 705.66 1434.67 706.6 1430.92 687.54 1427.34 702.62 1429.02 702.09 1426.91 704.42 1425.41 710.75 1427.83 709.98 1424.79 713.35 1422.19 724.31 1425.71 722.73 1420.64 730.85 1419.23 736.78 1423.69 734.77 1417.26 745.07 1415.81 751.17 1420.27 749.76 1414.68 755.95 1412.98 763.11 1421.86 760.28 1410.72 772.64 1408.99 779.92 1419.53 776.57 1406.31 791.23 1404.99 796.77 1440 796.77 1440 731.47"/>
          <polygon class="cls-24" points="1440.02 682.47 1435.1 702.41 1437.54 701.42 1434.56 705.92 1431.66 720.67 1436.08 718.77 1430.33 727.46 1429.2 733.19 1433.75 731.89 1428.39 737.31 1426.62 746.32 1432.05 744.77 1425.65 751.24 1423.51 762.11 1432.82 759.46 1421.85 770.54 1419.56 782.17 1425.8 780.39 1418.45 787.81 1416.69 796.77 1440 796.77 1440.02 682.47"/>
          <rect class="cls-1" x="1353.67" y="655.83" width="87.08" height="150.12"/>
        </g>
        <g class="cls-7">
          <polygon class="cls-25" points="18.43 780.79 29.52 784.42 27.18 774.25 17.21 762.87 25.15 765.47 23.21 757.04 17.34 747.35 21.41 749.24 19.34 740.23 17.34 736.94 18.73 737.58 17.24 731.15 13.28 726.62 16.44 727.66 14.72 720.18 13.28 718.54 14.43 718.91 10.82 703.26 7.27 721.82 9.15 720.99 6.7 724.8 5.41 731.57 9.15 729.91 4.28 737.49 3.39 742.16 7.86 740.18 2.04 749.24 .27 758.48 8.15 756.17 -1.13 765.84 -2.36 772.3 7.62 769.37 -4.14 781.62 -5.32 787.8 3.72 785.14 -6.94 796.24 -8.65 805.22 34.31 805.22 32.35 796.69 18.43 780.79"/>
          <polygon class="cls-20" points="-4.89 781.15 -14.59 784.33 -12.54 775.44 -3.83 765.48 -10.77 767.75 -9.08 760.39 -3.94 751.91 -7.5 753.56 -5.69 745.68 -2.6 742.83 -5.15 743.36 -3.86 737.74 -1.53 734.37 -3.15 734.68 -1.65 728.15 -.39 726.71 -1.39 727.04 1.76 713.35 4.86 729.58 3.22 728.85 5.36 732.19 6.49 738.1 3.22 736.65 7.48 743.29 8.26 747.37 4.35 745.63 9.44 753.56 10.99 761.65 4.09 759.62 12.21 768.08 13.29 773.73 4.56 771.16 14.85 781.88 15.88 787.29 7.97 784.96 17.29 794.67 18.79 802.52 -18.79 802.52 -17.07 795.06 -4.89 781.15"/>
        </g>
      </g>
      <polygon class="cls-83" points="0 792.78 160.81 783.47 349.01 762.19 506.55 774.42 717.3 764.01 991.67 766.74 1183.42 787.87 1323.11 785.08 1440 782.11 1440 964 0 964 0 792.78"/>
    </g>
  </g>
</svg>