<?xml version="1.0" encoding="UTF-8"?>
<svg xmlns="http://www.w3.org/2000/svg" xmlns:xlink="http://www.w3.org/1999/xlink" viewBox="0 0 1440 336.34">
  <defs>
    <style>
      .cls-1 {
        fill: none;
      }

      .cls-2 {
        clip-path: url(#clippath);
      }

      .cls-3 {
        fill: url(#linear-gradient);
        mix-blend-mode: multiply;
        opacity: .8;
      }

      .cls-4 {
        fill: url(#hnmf_75-2);
      }

      .cls-5 {
        isolation: isolate;
      }

      .cls-6 {
        fill: url(#hnmf_75);
      }

      .cls-7 {
        fill: url(#hnmf_83);
      }

      .cls-8 {
        fill: url(#hnmf_72);
      }

      .cls-9 {
        fill: url(#hnmf_71);
      }

      .cls-10 {
        fill: url(#hnmf_70);
      }

      .cls-11 {
        fill: url(#hnmf_16);
      }

      .cls-12 {
        fill: url(#hnmf_433);
      }
    </style>
    <linearGradient id="hnmf_75" data-name="É‡‰¥πÌÚ ·ÂÁ Ì‡Á‚Ë 75" x1="449.41" y1="324.82" x2="449.41" y2="36.76" gradientUnits="userSpaceOnUse">
      <stop offset="0" stop-color="#5359ac"/>
      <stop offset="1" stop-color="#5f66bc"/>
    </linearGradient>
    <linearGradient id="hnmf_83" data-name="É‡‰¥πÌÚ ·ÂÁ Ì‡Á‚Ë 83" x1="48.7" y1="189.84" x2="152.36" y2="125.51" gradientUnits="userSpaceOnUse">
      <stop offset="0" stop-color="#5f66bc"/>
      <stop offset="1" stop-color="#5359ac"/>
    </linearGradient>
    <linearGradient id="hnmf_433" data-name="É‡‰¥πÌÚ ·ÂÁ Ì‡Á‚Ë 433" x1="182.54" y1="370.9" x2="411.48" y2="225.37" gradientUnits="userSpaceOnUse">
      <stop offset="0" stop-color="#5f66bc"/>
      <stop offset=".95" stop-color="#5359ac"/>
    </linearGradient>
    <linearGradient id="hnmf_75-2" data-name="É‡‰¥πÌÚ ·ÂÁ Ì‡Á‚Ë 75" x1="663.65" y1="201.45" x2="457.18" y2="344.79" xlink:href="#hnmf_75"/>
    <linearGradient id="hnmf_72" data-name="É‡‰¥πÌÚ ·ÂÁ Ì‡Á‚Ë 72" x1="946.87" y1="371.6" x2="946.87" y2="49.79" gradientUnits="userSpaceOnUse">
      <stop offset="0" stop-color="#585fb6"/>
      <stop offset="1" stop-color="#646ac6"/>
    </linearGradient>
    <linearGradient id="hnmf_71" data-name="É‡‰¥πÌÚ ·ÂÁ Ì‡Á‚Ë 71" x1="1530.14" y1="61.95" x2="1355.3" y2="174.45" gradientUnits="userSpaceOnUse">
      <stop offset="0" stop-color="#585fb6"/>
      <stop offset="1" stop-color="#646ac6"/>
    </linearGradient>
    <linearGradient id="hnmf_70" data-name="É‡‰¥πÌÚ ·ÂÁ Ì‡Á‚Ë 70" x1="912.6" y1="403.09" x2="1329.98" y2="109.49" gradientUnits="userSpaceOnUse">
      <stop offset="0" stop-color="#646ac6"/>
      <stop offset=".57" stop-color="#5e65bf"/>
      <stop offset=".99" stop-color="#585fb6"/>
    </linearGradient>
    <linearGradient id="hnmf_16" data-name="É‡‰¥πÌÚ ·ÂÁ Ì‡Á‚Ë 16" x1="-1598.55" y1="161.94" x2="-1518.55" y2="89.89" gradientTransform="translate(-589.78) rotate(-180) scale(1 -1)" gradientUnits="userSpaceOnUse">
      <stop offset="0" stop-color="#646ac6"/>
      <stop offset="1" stop-color="#585fb6"/>
    </linearGradient>
    <clipPath id="clippath">
      <path class="cls-1" d="M1392.7,0c-25.2,18.65-50.6,37.02-76.21,55.1-23.54,11.15-47.18,22.08-70.92,32.81-38.47-11.12-76.77-22.81-114.89-35.07-13.82,8.5-27.69,16.93-41.61,25.28-12.79,4.03-25.59,8.01-38.4,11.94h0s0,0,0,0c-28.28-3.14-38.76-7.95-66.98-11.65-14.1-1.37-33.51-5.82-47.6-7.31,0,0,0,0,0,0-40.78,16.04-94.25,35.84-135.51,50.59-24.06,16.69-48.32,33.08-72.74,49.21-14.45-3.79-28.88-7.66-43.28-11.63-25.37-21.12-50.49-42.58-75.37-64.42-49.45,15.71-99.18,30.29-149.16,43.76-22.06-4.88-44.08-9.96-66.06-15.24-14.48-9.19-28.91-18.49-43.28-27.89-11.33,5.15-22.68,10.25-34.05,15.29C248.65,76.62,181.66,40.18,115.71,1.42h0C77.35,16.67,38.79,31.19,0,45V322.62H478.46c-8.22,4.6-16.46,9.17-24.71,13.71h986.25V12.25c-15.79-3.99-31.56-8.07-47.3-12.25Z"/>
    </clipPath>
    <linearGradient id="linear-gradient" x1="720" y1="-448.98" x2="720" y2="564.26" gradientUnits="userSpaceOnUse">
      <stop offset="0" stop-color="#5b4e9b"/>
      <stop offset="1" stop-color="#07061f"/>
    </linearGradient>
  </defs>
  <g class="cls-5">
    <g id="Layer_2" data-name="Layer 2">
      <g id="_ò__1" data-name="ò‡_1">
        <g>
          <g>
            <g>
              <path class="cls-6" d="M898.81,322.62H0V52.46C38.83,36.21,77.4,19.2,115.7,1.43h0s0,0,0,0c65.95,38.76,132.95,75.2,200.92,109.36,11.37-5.04,22.72-10.14,34.05-15.29,14.37,9.4,28.8,18.69,43.28,27.89,21.98,5.28,44,10.36,66.06,15.24,49.98-13.48,99.7-28.06,149.16-43.76,24.87,21.83,49.99,43.3,75.37,64.42,21.46,5.91,42.96,11.62,64.5,17.14,14.18,18.51,28.49,36.89,42.94,55.14,35.12,31.08,70.73,61.43,106.84,91.07Z"/>
              <path class="cls-7" d="M116.82,322.62H0V45C38.79,31.19,77.35,16.67,115.7,1.42h0c-6.26,13.79-12.1,33.57-20.75,41.74-6.88,6.5-22.47,8.29-33.08,11.38-10.24,2.99-20.51,5.82-30.81,8.52,1.97,16.47,3.99,32.93,6.04,49.39,9.98,9.32,20,18.59,30.06,27.8-3.87,4.33-16.55,17.32-15.1,20.31,3.16,6.57,17.34,20.82,25.01,30.84,7.75,10.11,15.46,20.25,23.17,30.39,5.35,33.63,11.26,67.18,16.57,100.83Z"/>
              <path class="cls-12" d="M469.1,281.08c24.26,14.14,48.65,27.98,73.17,41.55H235.47c4.33-4.14,8.65-8.3,12.95-12.46-11.07-17.41-22.03-34.9-32.89-52.47-7.13-20.52-14.16-41.08-21.09-61.68,14.17-13.46,28.95-32.96,43.98-40.82,7.55-3.95,17.45-8.05,25.96-12.37,7.58-3.85,18.3-7.33,23.79-13.51,6.48-7.29,19.72-13.38,28.45-18.52,11.37-5.04,22.72-10.14,34.05-15.29-4.56,6.8-9.13,13.59-13.73,20.36-4.88,7.17-9.77,14.33-14.68,21.47,13.17,4.16,26.36,8.25,39.57,12.27,.65,6.12,1.29,12.24,1.94,18.36,7.24,.18,14.47,.35,21.71,.49,12.6,13.86,25.28,27.63,38.04,41.31-4.54,15.98-9.11,31.95-13.72,47.91,19.71,7.98,39.48,15.79,59.3,23.43Z"/>
              <path class="cls-4" d="M759.18,311.77c6.72,3.11,15.15,6.91,24.06,10.86h-210.08c-4.71-7.88-9.41-15.78-14.08-23.69-28.2-18.64-56.17-37.69-83.93-57.15-17.32-21.49-34.45-43.17-51.39-65.04,12.15-12.63,24.24-25.34,36.25-38.14,49.98-13.48,99.7-28.06,149.16-43.76-8.5,13.76-17.07,27.48-25.7,41.14,12.08,5.95,24.19,11.84,36.32,17.67-1.57,6.73-3.14,13.45-4.73,20.17,23.38,6.41,46.81,12.58,70.28,18.52,4.37,7.77,8.75,15.53,13.15,23.28,13.63,3.25,27.27,6.42,40.93,9.52,.79,7.39,1.58,14.79,2.38,22.18,3.53,10.09,7.07,20.18,10.63,30.27,2.24,11.39,4.49,22.78,6.75,34.17Z"/>
            </g>
            <g>
              <path class="cls-8" d="M1440,12.25V336.34H453.75c119.18-65.54,234.98-137.09,346.82-214.65,41.26-14.74,94.74-34.54,135.52-50.59,14.09,1.5,33.5,5.94,47.6,7.31,28.22,3.69,38.69,8.51,66.98,11.65,12.82-3.93,25.62-7.91,38.4-11.94,13.91-8.35,27.78-16.78,41.61-25.28,38.13,12.27,76.42,23.95,114.89,35.07,23.74-10.72,47.38-21.66,70.92-32.81C1342.1,37.02,1367.5,18.65,1392.7,0c15.74,4.18,31.51,8.26,47.3,12.25Z"/>
              <path class="cls-9" d="M1440,12.25V270.33c-34.53-15.29-68.86-31.07-102.96-47.33,14.17-24.24,28.12-48.59,41.85-73.08-14.1-11.17-28.13-22.42-42.1-33.75,2.52-14.13,5.01-28.27,7.46-42.41,12.04-5.79,36.32-15.03,37.25-19.64,.53-2.62-7.43-11.89-11.31-17.62C1377.75,24.37,1385.25,12.2,1392.7,0c15.74,4.18,31.51,8.26,47.3,12.25Z"/>
              <path class="cls-10" d="M1327.09,195.03c-12.67,47.27-25.93,94.36-39.75,141.31h-192.8c-8.03-15.19-16.07-30.86-23.11-42.69-19.06-32.03-37.76-64.28-56.1-96.73,23.86-20.95,47.47-42.16,70.84-63.64,15.4-7.81,30.75-15.7,46.06-23.68-3.89-8.91-7.78-17.83-11.64-26.76,3.39-9.99,6.75-19.99,10.09-30,38.13,12.27,76.42,23.95,114.89,35.07,18.2,17.95,36.55,35.75,55.05,53.39-6.02,6.26-17.96,16.32-17.72,20.01,.46,6.97,29.91,23.71,44.2,33.72Z"/>
              <path class="cls-11" d="M936.08,71.1c14.09,1.5,33.5,5.94,47.6,7.31,28.22,3.7,38.69,8.51,66.98,11.65-12.89,22.56-25.97,45.01-39.24,67.36-27.07,9.28-54.22,18.3-81.46,27.06-14.36-7.45-28.68-14.98-42.96-22.59,9.7-11.41,19.33-22.86,28.92-34.37-1.1-8.6-2.2-17.2-3.29-25.8,3.68-8.73,19.81-21.87,23.45-30.62Z"/>
            </g>
          </g>
          <g class="cls-2">
            <rect class="cls-3" x="0" y="-465.06" width="1439.99" height="948.79"/>
          </g>
        </g>
      </g>
    </g>
  </g>
</svg>