<?xml version="1.0" encoding="UTF-8"?>
<svg id="Layer_2" data-name="Layer 2" xmlns="http://www.w3.org/2000/svg" xmlns:xlink="http://www.w3.org/1999/xlink" viewBox="0 0 1441.03 609.77">
  <defs>
    <style>
      .cls-1 {
        fill: none;
      }

      .cls-2 {
        clip-path: url(#clippath);
      }

      .cls-3 {
        fill: url(#_É_πÌÚ_·ÂÁ_Ì_Á_Ë_18-6);
      }

      .cls-4 {
        fill: url(#_É_πÌÚ_·ÂÁ_Ì_Á_Ë_18-8);
      }

      .cls-5 {
        fill: url(#_É_πÌÚ_·ÂÁ_Ì_Á_Ë_18-7);
      }

      .cls-6 {
        fill: url(#_É_πÌÚ_·ÂÁ_Ì_Á_Ë_18-9);
      }

      .cls-7 {
        fill: url(#_É_πÌÚ_·ÂÁ_Ì_Á_Ë_18-3);
      }

      .cls-8 {
        fill: url(#_É_πÌÚ_·ÂÁ_Ì_Á_Ë_18-2);
      }

      .cls-9 {
        fill: url(#_É_πÌÚ_·ÂÁ_Ì_Á_Ë_18-5);
      }

      .cls-10 {
        fill: url(#_É_πÌÚ_·ÂÁ_Ì_Á_Ë_18-4);
      }

      .cls-11 {
        fill: url(#_É_πÌÚ_·ÂÁ_Ì_Á_Ë_18-65);
      }

      .cls-12 {
        fill: url(#_É_πÌÚ_·ÂÁ_Ì_Á_Ë_18-60);
      }

      .cls-13 {
        fill: url(#_É_πÌÚ_·ÂÁ_Ì_Á_Ë_18-61);
      }

      .cls-14 {
        fill: url(#_É_πÌÚ_·ÂÁ_Ì_Á_Ë_18-62);
      }

      .cls-15 {
        fill: url(#_É_πÌÚ_·ÂÁ_Ì_Á_Ë_18-63);
      }

      .cls-16 {
        fill: url(#_É_πÌÚ_·ÂÁ_Ì_Á_Ë_18-64);
      }

      .cls-17 {
        fill: url(#_É_πÌÚ_·ÂÁ_Ì_Á_Ë_18-57);
      }

      .cls-18 {
        fill: url(#_É_πÌÚ_·ÂÁ_Ì_Á_Ë_18-58);
      }

      .cls-19 {
        fill: url(#_É_πÌÚ_·ÂÁ_Ì_Á_Ë_18-56);
      }

      .cls-20 {
        fill: url(#_É_πÌÚ_·ÂÁ_Ì_Á_Ë_18-29);
      }

      .cls-21 {
        fill: url(#_É_πÌÚ_·ÂÁ_Ì_Á_Ë_18-39);
      }

      .cls-22 {
        fill: url(#_É_πÌÚ_·ÂÁ_Ì_Á_Ë_18-53);
      }

      .cls-23 {
        fill: url(#_É_πÌÚ_·ÂÁ_Ì_Á_Ë_18-54);
      }

      .cls-24 {
        fill: url(#_É_πÌÚ_·ÂÁ_Ì_Á_Ë_18-51);
      }

      .cls-25 {
        fill: url(#_É_πÌÚ_·ÂÁ_Ì_Á_Ë_18-52);
      }

      .cls-26 {
        fill: url(#_É_πÌÚ_·ÂÁ_Ì_Á_Ë_18-43);
      }

      .cls-27 {
        fill: url(#_É_πÌÚ_·ÂÁ_Ì_Á_Ë_18-41);
      }

      .cls-28 {
        fill: url(#_É_πÌÚ_·ÂÁ_Ì_Á_Ë_18-44);
      }

      .cls-29 {
        fill: url(#_É_πÌÚ_·ÂÁ_Ì_Á_Ë_18-47);
      }

      .cls-30 {
        fill: url(#_É_πÌÚ_·ÂÁ_Ì_Á_Ë_18-42);
      }

      .cls-31 {
        fill: url(#_É_πÌÚ_·ÂÁ_Ì_Á_Ë_18-45);
      }

      .cls-32 {
        fill: url(#_É_πÌÚ_·ÂÁ_Ì_Á_Ë_18-48);
      }

      .cls-33 {
        fill: url(#_É_πÌÚ_·ÂÁ_Ì_Á_Ë_18-46);
      }

      .cls-34 {
        fill: url(#_É_πÌÚ_·ÂÁ_Ì_Á_Ë_18-40);
      }

      .cls-35 {
        fill: url(#_É_πÌÚ_·ÂÁ_Ì_Á_Ë_18-21);
      }

      .cls-36 {
        fill: url(#_É_πÌÚ_·ÂÁ_Ì_Á_Ë_18-26);
      }

      .cls-37 {
        fill: url(#_É_πÌÚ_·ÂÁ_Ì_Á_Ë_18-27);
      }

      .cls-38 {
        fill: url(#_É_πÌÚ_·ÂÁ_Ì_Á_Ë_18-28);
      }

      .cls-39 {
        fill: url(#_É_πÌÚ_·ÂÁ_Ì_Á_Ë_18-24);
      }

      .cls-40 {
        fill: url(#_É_πÌÚ_·ÂÁ_Ì_Á_Ë_18-25);
      }

      .cls-41 {
        fill: url(#_É_πÌÚ_·ÂÁ_Ì_Á_Ë_18-20);
      }

      .cls-42 {
        fill: url(#_É_πÌÚ_·ÂÁ_Ì_Á_Ë_18-22);
      }

      .cls-43 {
        fill: url(#_É_πÌÚ_·ÂÁ_Ì_Á_Ë_18-23);
      }

      .cls-44 {
        fill: url(#_É_πÌÚ_·ÂÁ_Ì_Á_Ë_18-59);
      }

      .cls-45 {
        fill: url(#_É_πÌÚ_·ÂÁ_Ì_Á_Ë_18-32);
      }

      .cls-46 {
        fill: url(#_É_πÌÚ_·ÂÁ_Ì_Á_Ë_18-35);
      }

      .cls-47 {
        fill: url(#_É_πÌÚ_·ÂÁ_Ì_Á_Ë_18-38);
      }

      .cls-48 {
        fill: url(#_É_πÌÚ_·ÂÁ_Ì_Á_Ë_18-37);
      }

      .cls-49 {
        fill: url(#_É_πÌÚ_·ÂÁ_Ì_Á_Ë_18-33);
      }

      .cls-50 {
        fill: url(#_É_πÌÚ_·ÂÁ_Ì_Á_Ë_18-36);
      }

      .cls-51 {
        fill: url(#_É_πÌÚ_·ÂÁ_Ì_Á_Ë_18-30);
      }

      .cls-52 {
        fill: url(#_É_πÌÚ_·ÂÁ_Ì_Á_Ë_18-31);
      }

      .cls-53 {
        fill: url(#_É_πÌÚ_·ÂÁ_Ì_Á_Ë_18-34);
      }

      .cls-54 {
        fill: url(#_É_πÌÚ_·ÂÁ_Ì_Á_Ë_18-11);
      }

      .cls-55 {
        fill: url(#_É_πÌÚ_·ÂÁ_Ì_Á_Ë_18-15);
      }

      .cls-56 {
        fill: url(#_É_πÌÚ_·ÂÁ_Ì_Á_Ë_18-10);
      }

      .cls-57 {
        fill: url(#_É_πÌÚ_·ÂÁ_Ì_Á_Ë_18-12);
      }

      .cls-58 {
        fill: url(#_É_πÌÚ_·ÂÁ_Ì_Á_Ë_18-49);
      }

      .cls-59 {
        fill: url(#_É_πÌÚ_·ÂÁ_Ì_Á_Ë_18-13);
      }

      .cls-60 {
        fill: url(#_É_πÌÚ_·ÂÁ_Ì_Á_Ë_18-14);
      }

      .cls-61 {
        fill: url(#_É_πÌÚ_·ÂÁ_Ì_Á_Ë_18-50);
      }

      .cls-62 {
        fill: url(#_É_πÌÚ_·ÂÁ_Ì_Á_Ë_18-55);
      }

      .cls-63 {
        fill: url(#_É_πÌÚ_·ÂÁ_Ì_Á_Ë_18-16);
      }

      .cls-64 {
        fill: url(#_É_πÌÚ_·ÂÁ_Ì_Á_Ë_18-17);
      }

      .cls-65 {
        fill: url(#_É_πÌÚ_·ÂÁ_Ì_Á_Ë_18-19);
      }

      .cls-66 {
        fill: url(#_É_πÌÚ_·ÂÁ_Ì_Á_Ë_18-18);
      }

      .cls-67 {
        fill: url(#_É_πÌÚ_·ÂÁ_Ì_Á_Ë_18);
      }

      .cls-68 {
        fill: url(#_É_πÌÚ_·ÂÁ_Ì_Á_Ë_916);
      }
    </style>
    <linearGradient id="_É_πÌÚ_·ÂÁ_Ì_Á_Ë_18" data-name="É‡‰¥πÌÚ ·ÂÁ Ì‡Á‚Ë 18" x1="625.15" y1="186.28" x2="625.15" y2="7.48" gradientUnits="userSpaceOnUse">
      <stop offset="0" stop-color="#150551"/>
      <stop offset="1" stop-color="#414587"/>
    </linearGradient>
    <linearGradient id="_É_πÌÚ_·ÂÁ_Ì_Á_Ë_18-2" data-name="É‡‰¥πÌÚ ·ÂÁ Ì‡Á‚Ë 18" x1="551.18" y1="200.89" x2="551.18" y2="12.55" xlink:href="#_É_πÌÚ_·ÂÁ_Ì_Á_Ë_18"/>
    <linearGradient id="_É_πÌÚ_·ÂÁ_Ì_Á_Ë_18-3" data-name="É‡‰¥πÌÚ ·ÂÁ Ì‡Á‚Ë 18" x1="697.38" y1="268.17" x2="697.38" y2="110.65" xlink:href="#_É_πÌÚ_·ÂÁ_Ì_Á_Ë_18"/>
    <linearGradient id="_É_πÌÚ_·ÂÁ_Ì_Á_Ë_18-4" data-name="É‡‰¥πÌÚ ·ÂÁ Ì‡Á‚Ë 18" x1="727.83" y1="204.12" x2="727.83" y2="19.97" xlink:href="#_É_πÌÚ_·ÂÁ_Ì_Á_Ë_18"/>
    <linearGradient id="_É_πÌÚ_·ÂÁ_Ì_Á_Ë_18-5" data-name="É‡‰¥πÌÚ ·ÂÁ Ì‡Á‚Ë 18" x1="784.16" y1="232.48" x2="784.16" y2="20.72" xlink:href="#_É_πÌÚ_·ÂÁ_Ì_Á_Ë_18"/>
    <linearGradient id="_É_πÌÚ_·ÂÁ_Ì_Á_Ë_18-6" data-name="É‡‰¥πÌÚ ·ÂÁ Ì‡Á‚Ë 18" x1="566.52" y1="224.2" x2="566.52" y2="56.65" xlink:href="#_É_πÌÚ_·ÂÁ_Ì_Á_Ë_18"/>
    <linearGradient id="_É_πÌÚ_·ÂÁ_Ì_Á_Ë_18-7" data-name="É‡‰¥πÌÚ ·ÂÁ Ì‡Á‚Ë 18" x1="494.69" y1="193.09" x2="494.69" y2="47.13" xlink:href="#_É_πÌÚ_·ÂÁ_Ì_Á_Ë_18"/>
    <linearGradient id="_É_πÌÚ_·ÂÁ_Ì_Á_Ë_18-8" data-name="É‡‰¥πÌÚ ·ÂÁ Ì‡Á‚Ë 18" x1="597.05" y1="316.75" x2="597.05" y2="68.51" xlink:href="#_É_πÌÚ_·ÂÁ_Ì_Á_Ë_18"/>
    <linearGradient id="_É_πÌÚ_·ÂÁ_Ì_Á_Ë_18-9" data-name="É‡‰¥πÌÚ ·ÂÁ Ì‡Á‚Ë 18" x1="943.07" y1="203.07" x2="943.07" y2="68.23" xlink:href="#_É_πÌÚ_·ÂÁ_Ì_Á_Ë_18"/>
    <linearGradient id="_É_πÌÚ_·ÂÁ_Ì_Á_Ë_18-10" data-name="É‡‰¥πÌÚ ·ÂÁ Ì‡Á‚Ë 18" x1="1149.78" y1="210.95" x2="1149.78" y2="76.09" gradientTransform="translate(1.74 2.48) rotate(-.17)" xlink:href="#_É_πÌÚ_·ÂÁ_Ì_Á_Ë_18"/>
    <linearGradient id="_É_πÌÚ_·ÂÁ_Ì_Á_Ë_18-11" data-name="É‡‰¥πÌÚ ·ÂÁ Ì‡Á‚Ë 18" x1="909.52" y1="240.59" x2="902.04" y2="50.09" xlink:href="#_É_πÌÚ_·ÂÁ_Ì_Á_Ë_18"/>
    <linearGradient id="_É_πÌÚ_·ÂÁ_Ì_Á_Ë_18-12" data-name="É‡‰¥πÌÚ ·ÂÁ Ì‡Á‚Ë 18" x1="490.77" y1="275.74" x2="490.77" y2="83.26" xlink:href="#_É_πÌÚ_·ÂÁ_Ì_Á_Ë_18"/>
    <linearGradient id="_É_πÌÚ_·ÂÁ_Ì_Á_Ë_18-13" data-name="É‡‰¥πÌÚ ·ÂÁ Ì‡Á‚Ë 18" x1="673.31" y1="258.77" x2="673.31" y2="0" xlink:href="#_É_πÌÚ_·ÂÁ_Ì_Á_Ë_18"/>
    <linearGradient id="_É_πÌÚ_·ÂÁ_Ì_Á_Ë_18-14" data-name="É‡‰¥πÌÚ ·ÂÁ Ì‡Á‚Ë 18" x1="181.58" y1="187.72" x2="181.58" y2="29.39" gradientTransform="translate(1234.49) rotate(-180) scale(1 -1)" xlink:href="#_É_πÌÚ_·ÂÁ_Ì_Á_Ë_18"/>
    <linearGradient id="_É_πÌÚ_·ÂÁ_Ì_Á_Ë_18-15" data-name="É‡‰¥πÌÚ ·ÂÁ Ì‡Á‚Ë 18" x1="126.08" y1="214.19" x2="126.08" y2="60.8" gradientTransform="translate(1234.49) rotate(-180) scale(1 -1)" xlink:href="#_É_πÌÚ_·ÂÁ_Ì_Á_Ë_18"/>
    <linearGradient id="_É_πÌÚ_·ÂÁ_Ì_Á_Ë_18-16" data-name="É‡‰¥πÌÚ ·ÂÁ Ì‡Á‚Ë 18" x1="265.69" y1="266.09" x2="265.69" y2="126.6" gradientTransform="translate(1234.49) rotate(-180) scale(1 -1)" xlink:href="#_É_πÌÚ_·ÂÁ_Ì_Á_Ë_18"/>
    <linearGradient id="_É_πÌÚ_·ÂÁ_Ì_Á_Ë_18-17" data-name="É‡‰¥πÌÚ ·ÂÁ Ì‡Á‚Ë 18" x1="141.07" y1="229.17" x2="141.07" y2="92.72" gradientTransform="translate(1234.49) rotate(-180) scale(1 -1)" xlink:href="#_É_πÌÚ_·ÂÁ_Ì_Á_Ë_18"/>
    <linearGradient id="_É_πÌÚ_·ÂÁ_Ì_Á_Ë_18-18" data-name="É‡‰¥πÌÚ ·ÂÁ Ì‡Á‚Ë 18" x1="101.75" y1="209.22" x2="101.75" y2="93.73" gradientTransform="translate(1234.49) rotate(-180) scale(1 -1)" xlink:href="#_É_πÌÚ_·ÂÁ_Ì_Á_Ë_18"/>
    <linearGradient id="_É_πÌÚ_·ÂÁ_Ì_Á_Ë_18-19" data-name="É‡‰¥πÌÚ ·ÂÁ Ì‡Á‚Ë 18" x1="169.89" y1="290.95" x2="169.89" y2="88.79" gradientTransform="translate(1234.49) rotate(-180) scale(1 -1)" xlink:href="#_É_πÌÚ_·ÂÁ_Ì_Á_Ë_18"/>
    <linearGradient id="_É_πÌÚ_·ÂÁ_Ì_Á_Ë_18-20" data-name="É‡‰¥πÌÚ ·ÂÁ Ì‡Á‚Ë 18" x1="-173.65" y1="221.55" x2="-173.65" y2="136.54" gradientTransform="translate(1234.49) rotate(-180) scale(1 -1)" xlink:href="#_É_πÌÚ_·ÂÁ_Ì_Á_Ë_18"/>
    <linearGradient id="_É_πÌÚ_·ÂÁ_Ì_Á_Ë_18-21" data-name="É‡‰¥πÌÚ ·ÂÁ Ì‡Á‚Ë 18" x1="-183.81" y1="276.97" x2="-183.81" y2="168.43" gradientTransform="translate(1234.49) rotate(-180) scale(1 -1)" xlink:href="#_É_πÌÚ_·ÂÁ_Ì_Á_Ë_18"/>
    <linearGradient id="_É_πÌÚ_·ÂÁ_Ì_Á_Ë_18-22" data-name="É‡‰¥πÌÚ ·ÂÁ Ì‡Á‚Ë 18" x1="86.62" y1="277.57" x2="86.62" y2="165.8" gradientTransform="translate(1234.49) rotate(-180) scale(1 -1)" xlink:href="#_É_πÌÚ_·ÂÁ_Ì_Á_Ë_18"/>
    <linearGradient id="_É_πÌÚ_·ÂÁ_Ì_Á_Ë_18-23" data-name="É‡‰¥πÌÚ ·ÂÁ Ì‡Á‚Ë 18" x1="224.5" y1="257.77" x2="224.5" y2="9.94" gradientTransform="translate(1234.49) rotate(-180) scale(1 -1)" xlink:href="#_É_πÌÚ_·ÂÁ_Ì_Á_Ë_18"/>
    <linearGradient id="_É_πÌÚ_·ÂÁ_Ì_Á_Ë_18-24" data-name="É‡‰¥πÌÚ ·ÂÁ Ì‡Á‚Ë 18" x1="879.68" y1="284.64" x2="879.68" y2="61.79" xlink:href="#_É_πÌÚ_·ÂÁ_Ì_Á_Ë_18"/>
    <linearGradient id="_É_πÌÚ_·ÂÁ_Ì_Á_Ë_18-25" data-name="É‡‰¥πÌÚ ·ÂÁ Ì‡Á‚Ë 18" x1="764.73" y1="305.74" x2="764.73" y2="86.36" xlink:href="#_É_πÌÚ_·ÂÁ_Ì_Á_Ë_18"/>
    <linearGradient id="_É_πÌÚ_·ÂÁ_Ì_Á_Ë_18-26" data-name="É‡‰¥πÌÚ ·ÂÁ Ì‡Á‚Ë 18" x1="828.7" y1="227.14" x2="828.7" y2="-2.84" xlink:href="#_É_πÌÚ_·ÂÁ_Ì_Á_Ë_18"/>
    <linearGradient id="_É_πÌÚ_·ÂÁ_Ì_Á_Ë_18-27" data-name="É‡‰¥πÌÚ ·ÂÁ Ì‡Á‚Ë 18" x1="-2904.37" y1="274.94" x2="-2904.37" y2="171.57" gradientTransform="translate(-2622.06) rotate(-180) scale(1 -1)" xlink:href="#_É_πÌÚ_·ÂÁ_Ì_Á_Ë_18"/>
    <linearGradient id="_É_πÌÚ_·ÂÁ_Ì_Á_Ë_18-28" data-name="É‡‰¥πÌÚ ·ÂÁ Ì‡Á‚Ë 18" x1="-2881.71" y1="233.9" x2="-2881.71" y2="116.38" gradientTransform="translate(-2622.06) rotate(-180) scale(1 -1)" xlink:href="#_É_πÌÚ_·ÂÁ_Ì_Á_Ë_18"/>
    <linearGradient id="_É_πÌÚ_·ÂÁ_Ì_Á_Ë_18-29" data-name="É‡‰¥πÌÚ ·ÂÁ Ì‡Á‚Ë 18" x1="-2847.43" y1="251.52" x2="-2847.43" y2="112.56" gradientTransform="translate(-2622.06) rotate(-180) scale(1 -1)" xlink:href="#_É_πÌÚ_·ÂÁ_Ì_Á_Ë_18"/>
    <linearGradient id="_É_πÌÚ_·ÂÁ_Ì_Á_Ë_18-30" data-name="É‡‰¥πÌÚ ·ÂÁ Ì‡Á‚Ë 18" x1="-2759.46" y1="239.92" x2="-2759.46" y2="164.95" gradientTransform="translate(-2622.06) rotate(-180) scale(1 -1)" xlink:href="#_É_πÌÚ_·ÂÁ_Ì_Á_Ë_18"/>
    <linearGradient id="_É_πÌÚ_·ÂÁ_Ì_Á_Ë_18-31" data-name="É‡‰¥πÌÚ ·ÂÁ Ì‡Á‚Ë 18" x1="-2774.78" y1="258.37" x2="-2779.29" y2="143.4" gradientTransform="translate(-2622.06) rotate(-180) scale(1 -1)" xlink:href="#_É_πÌÚ_·ÂÁ_Ì_Á_Ë_18"/>
    <linearGradient id="_É_πÌÚ_·ÂÁ_Ì_Á_Ë_18-32" data-name="É‡‰¥πÌÚ ·ÂÁ Ì‡Á‚Ë 18" x1="-2921.53" y1="268.77" x2="-2921.53" y2="85.12" gradientTransform="translate(-2622.06) rotate(-180) scale(1 -1)" xlink:href="#_É_πÌÚ_·ÂÁ_Ì_Á_Ë_18"/>
    <linearGradient id="_É_πÌÚ_·ÂÁ_Ì_Á_Ë_18-33" data-name="É‡‰¥πÌÚ ·ÂÁ Ì‡Á‚Ë 18" x1="-2647.36" y1="264.77" x2="-2647.36" y2="163" gradientTransform="translate(-2622.06) rotate(-180) scale(1 -1)" xlink:href="#_É_πÌÚ_·ÂÁ_Ì_Á_Ë_18"/>
    <linearGradient id="_É_πÌÚ_·ÂÁ_Ì_Á_Ë_18-34" data-name="É‡‰¥πÌÚ ·ÂÁ Ì‡Á‚Ë 18" x1="3979.65" y1="274.4" x2="3979.65" y2="196.85" gradientTransform="translate(-3856.55)" xlink:href="#_É_πÌÚ_·ÂÁ_Ì_Á_Ë_18"/>
    <linearGradient id="_É_πÌÚ_·ÂÁ_Ì_Á_Ë_18-35" data-name="É‡‰¥πÌÚ ·ÂÁ Ì‡Á‚Ë 18" x1="3956.75" y1="269.77" x2="3956.75" y2="132" gradientTransform="translate(-3856.55)" xlink:href="#_É_πÌÚ_·ÂÁ_Ì_Á_Ë_18"/>
    <linearGradient id="_É_πÌÚ_·ÂÁ_Ì_Á_Ë_18-36" data-name="É‡‰¥πÌÚ ·ÂÁ Ì‡Á‚Ë 18" x1="-2792.79" y1="284.99" x2="-2792.79" y2="150.49" gradientTransform="translate(-2622.06) rotate(-180) scale(1 -1)" xlink:href="#_É_πÌÚ_·ÂÁ_Ì_Á_Ë_18"/>
    <linearGradient id="_É_πÌÚ_·ÂÁ_Ì_Á_Ë_18-37" data-name="É‡‰¥πÌÚ ·ÂÁ Ì‡Á‚Ë 18" x1="-2860.17" y1="299.6" x2="-2860.17" y2="155.63" gradientTransform="translate(-2622.06) rotate(-180) scale(1 -1)" xlink:href="#_É_πÌÚ_·ÂÁ_Ì_Á_Ë_18"/>
    <linearGradient id="_É_πÌÚ_·ÂÁ_Ì_Á_Ë_18-38" data-name="É‡‰¥πÌÚ ·ÂÁ Ì‡Á‚Ë 18" x1="-2818.19" y1="246.51" x2="-2818.19" y2="84.6" gradientTransform="translate(-2622.06) rotate(-180) scale(1 -1)" xlink:href="#_É_πÌÚ_·ÂÁ_Ì_Á_Ë_18"/>
    <linearGradient id="_É_πÌÚ_·ÂÁ_Ì_Á_Ë_18-39" data-name="É‡‰¥πÌÚ ·ÂÁ Ì‡Á‚Ë 18" x1="-2307.76" y1="247.74" x2="-2307.76" y2="62.27" gradientTransform="translate(-1869.38) rotate(-180) scale(1 -1)" xlink:href="#_É_πÌÚ_·ÂÁ_Ì_Á_Ë_18"/>
    <linearGradient id="_É_πÌÚ_·ÂÁ_Ì_Á_Ë_18-40" data-name="É‡‰¥πÌÚ ·ÂÁ Ì‡Á‚Ë 18" x1="-2188.72" y1="228.74" x2="-2188.72" y2="123.21" gradientTransform="translate(-1869.38) rotate(-180) scale(1 -1)" xlink:href="#_É_πÌÚ_·ÂÁ_Ì_Á_Ë_18"/>
    <linearGradient id="_É_πÌÚ_·ÂÁ_Ì_Á_Ë_18-41" data-name="É‡‰¥πÌÚ ·ÂÁ Ì‡Á‚Ë 18" x1="-2210.81" y1="256.88" x2="-2216.83" y2="103.42" gradientTransform="translate(-1869.38) rotate(-180) scale(1 -1)" xlink:href="#_É_πÌÚ_·ÂÁ_Ì_Á_Ë_18"/>
    <linearGradient id="_É_πÌÚ_·ÂÁ_Ì_Á_Ë_18-42" data-name="É‡‰¥πÌÚ ·ÂÁ Ì‡Á‚Ë 18" x1="-2665.34" y1="276.08" x2="-2665.34" y2="203.79" gradientTransform="translate(-2622.06) rotate(-180) scale(1 -1)" xlink:href="#_É_πÌÚ_·ÂÁ_Ì_Á_Ë_18"/>
    <linearGradient id="_É_πÌÚ_·ÂÁ_Ì_Á_Ë_18-43" data-name="É‡‰¥πÌÚ ·ÂÁ Ì‡Á‚Ë 18" x1="-2654.59" y1="236.38" x2="-2654.59" y2="154.19" gradientTransform="translate(-2622.06) rotate(-180) scale(1 -1)" xlink:href="#_É_πÌÚ_·ÂÁ_Ì_Á_Ë_18"/>
    <linearGradient id="_É_πÌÚ_·ÂÁ_Ì_Á_Ë_18-44" data-name="É‡‰¥πÌÚ ·ÂÁ Ì‡Á‚Ë 18" x1="-2677.34" y1="271.77" x2="-2677.34" y2="143.32" gradientTransform="translate(-2622.06) rotate(-180) scale(1 -1)" xlink:href="#_É_πÌÚ_·ÂÁ_Ì_Á_Ë_18"/>
    <linearGradient id="_É_πÌÚ_·ÂÁ_Ì_Á_Ë_18-45" data-name="É‡‰¥πÌÚ ·ÂÁ Ì‡Á‚Ë 18" x1="-1938.56" y1="257.84" x2="-1938.56" y2="184.03" gradientTransform="translate(-1869.38) rotate(-180) scale(1 -1)" xlink:href="#_É_πÌÚ_·ÂÁ_Ì_Á_Ë_18"/>
    <linearGradient id="_É_πÌÚ_·ÂÁ_Ì_Á_Ë_18-46" data-name="É‡‰¥πÌÚ ·ÂÁ Ì‡Á‚Ë 18" x1="-1954.64" y1="247.31" x2="-1958.85" y2="139.98" gradientTransform="translate(-1869.38) rotate(-180) scale(1 -1)" xlink:href="#_É_πÌÚ_·ÂÁ_Ì_Á_Ë_18"/>
    <linearGradient id="_É_πÌÚ_·ÂÁ_Ì_Á_Ë_18-47" data-name="É‡‰¥πÌÚ ·ÂÁ Ì‡Á‚Ë 18" x1="-2234.84" y1="292.41" x2="-2234.84" y2="112.9" gradientTransform="translate(-1869.38) rotate(-180) scale(1 -1)" xlink:href="#_É_πÌÚ_·ÂÁ_Ì_Á_Ë_18"/>
    <linearGradient id="_É_πÌÚ_·ÂÁ_Ì_Á_Ë_18-48" data-name="É‡‰¥πÌÚ ·ÂÁ Ì‡Á‚Ë 18" x1="455.4" y1="190.55" x2="455.4" y2="29.26" xlink:href="#_É_πÌÚ_·ÂÁ_Ì_Á_Ë_18"/>
    <linearGradient id="_É_πÌÚ_·ÂÁ_Ì_Á_Ë_18-49" data-name="É‡‰¥πÌÚ ·ÂÁ Ì‡Á‚Ë 18" x1="399.37" y1="267.78" x2="399.37" y2="43.46" xlink:href="#_É_πÌÚ_·ÂÁ_Ì_Á_Ë_18"/>
    <linearGradient id="_É_πÌÚ_·ÂÁ_Ì_Á_Ë_18-50" data-name="É‡‰¥πÌÚ ·ÂÁ Ì‡Á‚Ë 18" x1="983.49" y1="259.07" x2="983.49" y2="133.29" gradientTransform="translate(2148.75) rotate(-180) scale(1 -1)" xlink:href="#_É_πÌÚ_·ÂÁ_Ì_Á_Ë_18"/>
    <linearGradient id="_É_πÌÚ_·ÂÁ_Ì_Á_Ë_18-51" data-name="É‡‰¥πÌÚ ·ÂÁ Ì‡Á‚Ë 18" x1="-3439.26" y1="276.07" x2="-3439.26" y2="187.34" gradientTransform="translate(4770.81)" xlink:href="#_É_πÌÚ_·ÂÁ_Ì_Á_Ë_18"/>
    <linearGradient id="_É_πÌÚ_·ÂÁ_Ì_Á_Ë_18-52" data-name="É‡‰¥πÌÚ ·ÂÁ Ì‡Á‚Ë 18" x1="-3420.8" y1="236.84" x2="-3420.8" y2="135.97" gradientTransform="translate(4770.81)" xlink:href="#_É_πÌÚ_·ÂÁ_Ì_Á_Ë_18"/>
    <linearGradient id="_É_πÌÚ_·ÂÁ_Ì_Á_Ë_18-53" data-name="É‡‰¥πÌÚ ·ÂÁ Ì‡Á‚Ë 18" x1="-3380.4" y1="248.96" x2="-3380.4" y2="129.69" gradientTransform="translate(4770.81)" xlink:href="#_É_πÌÚ_·ÂÁ_Ì_Á_Ë_18"/>
    <linearGradient id="_É_πÌÚ_·ÂÁ_Ì_Á_Ë_18-54" data-name="É‡‰¥πÌÚ ·ÂÁ Ì‡Á‚Ë 18" x1="-3456.93" y1="272.77" x2="-3456.93" y2="115.14" gradientTransform="translate(4770.81)" xlink:href="#_É_πÌÚ_·ÂÁ_Ì_Á_Ë_18"/>
    <linearGradient id="_É_πÌÚ_·ÂÁ_Ì_Á_Ë_18-55" data-name="É‡‰¥πÌÚ ·ÂÁ Ì‡Á‚Ë 18" x1="-3401.22" y1="295.23" x2="-3401.22" y2="171.66" gradientTransform="translate(4770.81)" xlink:href="#_É_πÌÚ_·ÂÁ_Ì_Á_Ë_18"/>
    <linearGradient id="_É_πÌÚ_·ÂÁ_Ì_Á_Ë_18-56" data-name="É‡‰¥πÌÚ ·ÂÁ Ì‡Á‚Ë 18" x1="-2812.72" y1="251.27" x2="-2812.72" y2="86.12" gradientTransform="translate(4018.13)" xlink:href="#_É_πÌÚ_·ÂÁ_Ì_Á_Ë_18"/>
    <linearGradient id="_É_πÌÚ_·ÂÁ_Ì_Á_Ë_18-57" data-name="É‡‰¥πÌÚ ·ÂÁ Ì‡Á‚Ë 18" x1="-2721.31" y1="232.7" x2="-2721.31" y2="142.12" gradientTransform="translate(4018.13)" xlink:href="#_É_πÌÚ_·ÂÁ_Ì_Á_Ë_18"/>
    <linearGradient id="_É_πÌÚ_·ÂÁ_Ì_Á_Ë_18-58" data-name="É‡‰¥πÌÚ ·ÂÁ Ì‡Á‚Ë 18" x1="-2741.39" y1="255.98" x2="-2746.55" y2="124.27" gradientTransform="translate(4018.13)" xlink:href="#_É_πÌÚ_·ÂÁ_Ì_Á_Ë_18"/>
    <linearGradient id="_É_πÌÚ_·ÂÁ_Ì_Á_Ë_18-59" data-name="É‡‰¥πÌÚ ·ÂÁ Ì‡Á‚Ë 18" x1="-2760.55" y1="290.35" x2="-2760.55" y2="136.27" gradientTransform="translate(4018.13)" xlink:href="#_É_πÌÚ_·ÂÁ_Ì_Á_Ë_18"/>
    <linearGradient id="_É_πÌÚ_·ÂÁ_Ì_Á_Ë_18-60" data-name="É‡‰¥πÌÚ ·ÂÁ Ì‡Á‚Ë 18" x1="958.49" y1="213.44" x2="958.49" y2="69.83" gradientTransform="translate(2148.75) rotate(-180) scale(1 -1)" xlink:href="#_É_πÌÚ_·ÂÁ_Ì_Á_Ë_18"/>
    <linearGradient id="_É_πÌÚ_·ÂÁ_Ì_Á_Ë_18-61" data-name="É‡‰¥πÌÚ ·ÂÁ Ì‡Á‚Ë 18" x1="913.86" y1="232.82" x2="913.86" y2="62.15" gradientTransform="translate(2148.75) rotate(-180) scale(1 -1)" xlink:href="#_É_πÌÚ_·ÂÁ_Ì_Á_Ë_18"/>
    <linearGradient id="_É_πÌÚ_·ÂÁ_Ì_Á_Ë_18-62" data-name="É‡‰¥πÌÚ ·ÂÁ Ì‡Á‚Ë 18" x1="-189" y1="234.3" x2="-189" y2="152.42" gradientTransform="translate(1234.49) rotate(-180) scale(1 -1)" xlink:href="#_É_πÌÚ_·ÂÁ_Ì_Á_Ë_18"/>
    <linearGradient id="_É_πÌÚ_·ÂÁ_Ì_Á_Ë_18-63" data-name="É‡‰¥πÌÚ ·ÂÁ Ì‡Á‚Ë 18" x1="-194.87" y1="215.61" x2="-194.87" y2="123.82" gradientTransform="translate(1234.49) rotate(-180) scale(1 -1)" xlink:href="#_É_πÌÚ_·ÂÁ_Ì_Á_Ë_18"/>
    <clipPath id="clippath">
      <rect class="cls-1" y="129.77" width="50" height="163"/>
    </clipPath>
    <linearGradient id="_É_πÌÚ_·ÂÁ_Ì_Á_Ë_18-64" data-name="É‡‰¥πÌÚ ·ÂÁ Ì‡Á‚Ë 18" x1="-2635.4" y1="273.64" x2="-2635.4" y2="208.87" gradientTransform="translate(-2622.06) rotate(-180) scale(1 -1)" xlink:href="#_É_πÌÚ_·ÂÁ_Ì_Á_Ë_18"/>
    <linearGradient id="_É_πÌÚ_·ÂÁ_Ì_Á_Ë_18-65" data-name="É‡‰¥πÌÚ ·ÂÁ Ì‡Á‚Ë 18" x1="-2622.57" y1="246.63" x2="-2622.57" y2="178.74" gradientTransform="translate(-2622.06) rotate(-180) scale(1 -1)" xlink:href="#_É_πÌÚ_·ÂÁ_Ì_Á_Ë_18"/>
    <linearGradient id="_É_πÌÚ_·ÂÁ_Ì_Á_Ë_916" data-name="É‡‰¥πÌÚ ·ÂÁ Ì‡Á‚Ë 916" x1="720.5" y1="1132.48" x2="720.5" y2="202.5" gradientUnits="userSpaceOnUse">
      <stop offset="0" stop-color="#464b89"/>
      <stop offset=".38" stop-color="#393a7c"/>
      <stop offset="1" stop-color="#1f1860"/>
    </linearGradient>
  </defs>
  <g id="_ò__1" data-name="ò‡_1">
    <g>
      <g>
        <polygon class="cls-67" points="576.8 227.43 581.04 209.56 608.37 179.25 586.59 186.18 590.76 168.64 604.47 153.43 593.54 156.91 597.1 141.93 612.85 116.68 601.92 121.6 605.38 107.04 617.81 87.12 609.19 91 615.57 64.12 623.03 55.85 617.08 57.74 620.77 42.21 625.93 36.49 621.82 37.8 630.6 .8 639.8 47.55 634.44 45.24 641.42 55.79 648.22 90.36 637.87 85.9 651.35 106.29 653.99 119.72 643.33 116.68 655.89 129.38 660.05 150.49 647.31 146.86 662.32 162.03 667.33 187.52 645.51 181.3 671.22 207.29 676.58 234.54 661.97 230.38 679.19 247.78 683.32 268.77 566.98 268.77 570.21 255.18 602.65 219.2 576.8 227.43"/>
        <polygon class="cls-8" points="596.51 223.01 592.54 206.26 566.91 177.85 587.33 184.34 583.43 167.89 570.57 153.64 580.82 156.9 577.48 142.85 562.71 119.18 572.96 123.79 569.72 110.14 558.06 91.46 566.15 95.11 560.16 69.91 553.17 62.15 558.74 63.92 555.29 49.36 550.45 44 554.3 45.23 546.07 10.54 537.45 54.37 542.47 52.2 535.93 62.1 529.55 94.51 539.26 90.33 526.61 109.44 524.14 122.03 534.14 119.18 522.36 131.08 518.46 150.88 530.41 147.47 516.34 161.7 511.63 185.6 532.1 179.76 507.99 204.13 502.96 229.68 516.66 225.78 500.52 242.09 496.65 261.77 605.72 261.77 602.69 249.03 572.28 215.3 596.51 223.01"/>
        <polygon class="cls-7" points="683.76 199.35 656.78 208.19 662.48 183.46 686.72 155.76 667.41 162.09 672.13 141.6 686.41 118.02 676.5 122.62 681.55 100.72 686.41 92.69 683.04 94.26 686.64 78.62 696.29 67.6 688.6 70.12 692.79 51.94 696.29 47.95 693.5 48.86 702.27 10.79 710.89 55.94 706.32 53.91 712.28 63.18 715.42 79.63 706.32 75.6 718.17 94.05 720.34 105.4 709.47 100.58 723.63 122.63 727.92 145.1 708.75 139.47 731.34 162.99 734.34 178.7 710.04 171.57 738.66 201.37 741.54 216.41 719.53 209.95 745.46 236.95 749.62 258.77 645.13 258.77 649.91 238.03 683.76 199.35"/>
        <polygon class="cls-10" points="741.11 200.8 767.42 209.43 761.86 185.3 738.22 158.29 757.06 164.46 752.45 144.47 738.52 121.47 748.19 125.96 743.26 104.59 734.88 96.85 741.81 98.29 738.3 83.04 731.99 73.91 736.39 74.75 732.3 57.02 728.89 53.12 731.61 54.01 723.05 16.87 714.64 60.91 719.1 58.93 713.29 67.98 710.23 84.02 719.1 80.09 707.54 98.09 705.43 109.16 716.03 104.45 702.22 125.97 698.03 147.89 716.73 142.4 694.7 165.34 691.77 180.67 715.47 173.71 687.55 202.78 684.75 217.45 706.22 211.14 680.93 237.48 676.86 258.77 778.79 258.77 774.13 238.54 741.11 200.8"/>
        <polygon class="cls-9" points="827.59 220.51 823.78 203.98 799.23 175.93 818.79 182.34 815.05 166.11 802.73 152.03 812.55 155.25 809.35 141.39 795.2 118.02 805.02 122.58 801.91 109.1 790.75 90.67 798.49 94.26 792.76 69.39 786.06 61.73 791.4 63.48 788.09 49.11 783.45 43.81 787.15 45.03 779.26 10.79 771 54.05 775.81 51.91 769.54 61.68 763.43 93.67 772.73 89.54 760.62 108.41 758.25 120.83 767.83 118.02 756.54 129.77 752.81 149.31 764.25 145.95 750.77 159.99 746.26 183.58 765.87 177.83 742.77 201.88 737.96 227.1 751.08 223.24 735.62 239.34 731.91 258.77 836.4 258.77 833.5 246.19 804.37 212.9 827.59 220.51"/>
        <polygon class="cls-3" points="528.88 229.58 532.18 215.68 553.46 192.08 536.5 197.47 539.74 183.81 550.42 171.97 541.91 174.68 544.68 163.01 556.95 143.36 548.44 147.19 551.13 135.85 560.81 120.34 554.09 123.37 559.06 102.44 564.87 96 560.24 97.47 563.11 85.38 567.13 80.93 563.93 81.94 570.77 53.14 577.93 89.53 573.75 87.74 579.19 95.95 584.48 122.87 576.42 119.4 586.92 135.27 588.98 145.72 580.67 143.36 590.46 153.24 593.69 169.68 583.77 166.85 595.46 178.66 599.36 198.51 582.37 193.67 602.39 213.91 606.56 235.12 595.19 231.88 608.59 245.43 611.81 261.77 521.23 261.77 523.75 251.19 549 223.18 528.88 229.58"/>
        <polygon class="cls-5" points="455.95 227.64 459.35 213.33 481.25 189.04 463.79 194.59 467.13 180.53 478.12 168.35 469.36 171.13 472.21 159.13 484.84 138.89 476.08 142.84 478.85 131.17 488.81 115.21 481.9 118.32 487.02 96.78 492.99 90.15 488.23 91.67 491.19 79.22 495.32 74.64 492.03 75.68 499.06 46.04 506.43 83.5 502.14 81.65 507.73 90.11 513.18 117.81 504.88 114.24 515.69 130.57 517.81 141.33 509.26 138.89 519.33 149.07 522.66 165.99 512.45 163.08 524.48 175.23 528.5 195.67 511.01 190.68 531.61 211.51 535.91 233.34 524.2 230.01 537.99 243.95 541.3 260.77 448.08 260.77 450.67 249.88 476.66 221.05 455.95 227.64"/>
        <polygon class="cls-4" points="637.1 228.53 633.59 213.73 610.95 188.62 628.99 194.36 625.54 179.83 614.18 167.23 623.23 170.11 620.29 157.7 607.23 136.79 616.29 140.87 613.42 128.81 603.13 112.3 610.27 115.52 604.98 93.26 598.81 86.4 603.73 87.97 600.68 75.1 596.4 70.37 599.81 71.45 592.53 40.81 584.92 79.53 589.35 77.61 583.57 86.36 577.94 114.99 586.51 111.3 575.34 128.18 573.16 139.3 581.99 136.79 571.58 147.31 568.14 164.79 578.69 161.79 566.26 174.35 562.11 195.47 580.19 190.32 558.89 211.85 554.44 234.42 566.55 230.97 552.29 245.38 548.87 262.77 645.23 262.77 642.56 251.51 615.69 221.71 637.1 228.53"/>
        <polygon class="cls-6" points="976.56 227.27 973.62 214.52 954.69 192.89 969.78 197.84 966.89 185.32 957.39 174.46 964.96 176.95 962.5 166.25 951.59 148.24 959.16 151.75 956.76 141.36 948.15 127.14 954.13 129.92 949.7 110.73 944.54 104.83 948.66 106.18 946.1 95.1 942.53 91.01 945.38 91.95 939.29 65.55 932.92 98.91 936.64 97.26 931.8 104.79 927.09 129.46 934.26 126.28 924.92 140.82 923.09 150.41 930.48 148.24 921.77 157.3 918.9 172.36 927.72 169.77 917.32 180.6 913.85 198.79 928.97 194.35 911.16 212.9 907.44 232.35 917.56 229.37 905.64 241.79 902.78 256.77 983.36 256.77 981.12 247.07 958.66 221.4 976.56 227.27"/>
        <polygon class="cls-56" points="1185.71 234.07 1182.72 221.33 1163.72 199.76 1178.82 204.66 1175.89 192.15 1166.36 181.32 1173.93 183.78 1171.43 173.1 1160.46 155.11 1168.04 158.6 1165.61 148.22 1156.95 134.02 1162.93 136.78 1158.45 117.61 1153.26 111.72 1157.38 113.06 1154.79 101.98 1151.2 97.91 1154.05 98.84 1147.88 72.45 1141.62 105.83 1145.33 104.17 1140.52 111.71 1135.9 136.4 1143.06 133.2 1133.76 147.77 1131.97 157.35 1139.35 155.16 1130.68 164.25 1127.85 179.32 1136.67 176.71 1126.31 187.56 1122.9 205.76 1138 201.28 1120.25 219.88 1116.61 239.33 1126.72 236.33 1114.84 248.78 1112.03 263.77 1192.61 263.56 1190.34 253.86 1167.78 228.25 1185.71 234.07"/>
        <polygon class="cls-54" points="949.55 233.45 946.13 218.61 924.1 193.45 941.66 199.2 938.3 184.64 927.25 172.01 936.05 174.9 933.19 162.46 920.49 141.49 929.3 145.58 926.51 133.49 916.49 116.95 923.44 120.18 918.3 97.86 912.29 90.99 917.08 92.56 914.11 79.67 909.95 74.92 913.26 76 906.19 45.29 898.78 84.1 903.1 82.18 897.47 90.95 891.99 119.65 900.33 115.95 889.46 132.87 887.34 144.02 895.93 141.49 885.8 152.04 882.46 169.57 892.72 166.55 880.63 179.15 876.59 200.32 894.18 195.15 873.45 216.73 869.13 239.35 880.91 235.89 867.03 250.34 863.71 267.77 957.46 267.77 954.86 256.48 928.72 226.62 949.55 233.45"/>
        <polygon class="cls-57" points="521.13 229.82 518.47 218.6 501.31 199.57 514.98 203.92 512.37 192.91 503.76 183.36 510.62 185.54 508.38 176.14 498.49 160.28 505.35 163.38 503.18 154.24 495.38 141.73 500.79 144.17 496.79 127.29 492.1 122.1 495.84 123.28 493.52 113.53 490.28 109.94 492.86 110.76 487.35 87.54 481.58 116.88 484.94 115.44 480.56 122.06 476.29 143.76 482.79 140.97 474.32 153.76 472.66 162.19 479.36 160.28 471.47 168.26 468.86 181.51 476.86 179.23 467.44 188.76 464.29 204.76 477.99 200.86 461.85 217.17 458.48 234.28 467.66 231.67 456.85 242.59 454.26 255.77 527.29 255.77 525.26 247.24 504.9 224.65 521.13 229.82"/>
        <polygon class="cls-59" points="627.98 218.85 631.96 201.6 657.58 172.33 637.16 179.02 641.07 162.08 653.92 147.39 643.68 150.75 647.01 136.28 661.78 111.9 651.54 116.65 654.78 102.59 666.43 83.35 658.34 87.1 664.33 61.15 671.32 53.16 665.75 54.98 669.2 39.99 674.04 34.46 670.18 35.72 678.42 0 687.04 45.14 682.01 42.91 688.56 53.1 694.93 86.49 685.23 82.18 697.87 101.87 700.34 114.83 690.35 111.9 702.12 124.16 706.02 144.55 694.08 141.04 708.15 155.69 712.85 180.31 692.39 174.3 716.49 199.4 721.52 225.72 707.82 221.7 723.96 238.5 727.83 258.77 618.78 258.77 621.81 245.64 652.21 210.91 627.98 218.85"/>
        <polygon class="cls-60" points="1095.73 224.16 1091.98 208.34 1067.77 181.5 1087.06 187.64 1083.37 172.1 1071.23 158.63 1080.91 161.71 1077.76 148.45 1063.8 126.09 1073.48 130.45 1070.42 117.55 1059.41 99.91 1067.05 103.35 1061.4 79.55 1054.79 72.22 1060.06 73.9 1056.79 60.14 1052.22 55.08 1055.86 56.24 1048.09 23.48 1039.94 64.87 1044.69 62.83 1038.51 72.17 1032.49 102.78 1041.65 98.84 1029.71 116.89 1027.37 128.78 1036.82 126.09 1025.69 137.33 1022.01 156.03 1033.29 152.81 1020 166.25 1015.56 188.82 1034.89 183.31 1012.12 206.33 1007.37 230.46 1020.31 226.77 1005.06 242.18 1001.41 260.77 1104.42 260.77 1101.57 248.73 1072.84 216.88 1095.73 224.16"/>
        <polygon class="cls-55" points="1071.49 232.2 1074.73 218.56 1095.6 195.42 1078.97 200.71 1082.15 187.32 1092.62 175.71 1084.28 178.36 1086.99 166.92 1099.02 147.64 1090.68 151.4 1093.32 140.28 1102.81 125.07 1096.23 128.04 1101.1 107.52 1106.79 101.2 1102.25 102.64 1105.07 90.79 1109.01 86.42 1105.87 87.42 1112.58 59.17 1119.6 94.86 1115.5 93.1 1120.84 101.16 1126.03 127.55 1118.12 124.15 1128.42 139.71 1130.44 149.96 1122.29 147.64 1131.89 157.34 1135.06 173.46 1125.33 170.69 1136.79 182.27 1140.62 201.74 1123.96 196.98 1143.59 216.83 1147.68 237.64 1136.53 234.46 1149.67 247.74 1152.82 263.77 1064 263.77 1066.46 253.39 1091.23 225.93 1071.49 232.2"/>
        <polygon class="cls-63" points="980.85 205.15 1004.74 212.98 999.7 191.08 978.23 166.55 995.34 172.16 991.16 154.01 978.51 133.13 987.28 137.2 982.81 117.81 978.51 110.7 981.49 112.09 978.3 98.24 969.76 88.48 976.57 90.71 972.86 74.62 969.76 71.08 972.23 71.89 964.46 38.18 956.83 78.16 960.88 76.36 955.6 84.57 952.82 99.14 960.88 95.56 950.38 111.9 948.47 121.95 958.09 117.68 945.55 137.21 941.75 157.12 958.72 152.13 938.73 172.95 936.07 186.87 957.58 180.55 932.24 206.94 929.69 220.26 949.18 214.54 926.22 238.44 922.53 257.77 1015.07 257.77 1010.83 239.4 980.85 205.15"/>
        <polygon class="cls-64" points="1124.08 233.56 1121.39 222.23 1104.06 203.01 1117.87 207.41 1115.23 196.28 1106.53 186.64 1113.46 188.84 1111.21 179.34 1101.22 163.33 1108.15 166.46 1105.95 157.22 1098.07 144.59 1103.54 147.05 1099.49 130.01 1094.76 124.77 1098.53 125.96 1096.2 116.12 1092.92 112.49 1095.53 113.32 1089.96 89.86 1084.13 119.5 1087.53 118.04 1083.1 124.73 1078.79 146.65 1085.36 143.82 1076.8 156.75 1075.13 165.26 1081.89 163.33 1073.93 171.39 1071.29 184.77 1079.37 182.47 1069.85 192.09 1066.67 208.25 1080.51 204.31 1064.21 220.79 1060.81 238.07 1070.07 235.43 1059.16 246.46 1056.54 259.77 1130.3 259.77 1128.25 251.15 1107.69 228.34 1124.08 233.56"/>
        <polygon class="cls-66" points="1163.4 236.56 1160.71 225.23 1143.38 206.01 1157.19 210.41 1154.55 199.28 1145.86 189.64 1152.79 191.84 1150.53 182.34 1140.54 166.33 1147.47 169.46 1145.28 160.22 1137.4 147.59 1142.87 150.05 1138.82 133.01 1134.09 127.77 1137.86 128.96 1135.52 119.12 1132.25 115.49 1134.86 116.32 1129.29 92.86 1123.46 122.5 1126.86 121.04 1122.43 127.73 1118.12 149.65 1124.68 146.82 1116.13 159.75 1114.46 168.26 1121.22 166.33 1113.25 174.39 1110.62 187.77 1118.7 185.47 1109.18 195.09 1106 211.25 1119.84 207.31 1103.53 223.79 1100.13 241.07 1109.4 238.43 1098.48 249.46 1095.86 262.77 1169.63 262.77 1167.58 254.15 1147.01 231.34 1163.4 236.56"/>
        <polygon class="cls-65" points="1031.98 232.88 1034.84 220.83 1053.28 200.38 1038.59 205.06 1041.4 193.22 1050.65 182.96 1043.28 185.31 1045.68 175.2 1056.31 158.17 1048.93 161.49 1051.26 151.67 1059.65 138.23 1053.83 140.85 1058.14 122.72 1063.17 117.14 1059.16 118.41 1061.65 107.93 1065.13 104.07 1062.35 104.96 1068.28 80 1074.48 111.53 1070.87 109.98 1075.58 117.1 1080.16 140.42 1073.18 137.41 1082.28 151.16 1084.06 160.22 1076.86 158.17 1085.34 166.74 1088.14 180.98 1079.55 178.53 1089.67 188.76 1093.06 205.96 1078.33 201.76 1095.68 219.3 1099.3 237.68 1089.44 234.87 1101.05 246.61 1103.84 260.77 1025.36 260.77 1027.54 251.6 1049.42 227.33 1031.98 232.88"/>
        <polygon class="cls-41" points="1431.13 241.11 1429.11 232.62 1416.12 218.21 1426.47 221.5 1424.49 213.16 1417.97 205.93 1423.17 207.59 1421.48 200.46 1413.99 188.46 1419.18 190.8 1417.54 183.88 1411.63 174.4 1415.73 176.25 1412.69 163.47 1409.15 159.54 1411.97 160.44 1410.22 153.05 1407.77 150.33 1409.72 150.95 1405.55 133.36 1401.17 155.59 1403.72 154.49 1400.4 159.51 1397.17 175.95 1402.09 173.83 1395.68 183.52 1394.42 189.9 1399.5 188.46 1393.52 194.49 1391.55 204.53 1397.6 202.81 1390.47 210.02 1388.08 222.14 1398.46 219.18 1386.23 231.54 1383.68 244.5 1390.63 242.52 1382.45 250.79 1380.48 260.77 1435.8 260.77 1434.26 254.31 1418.84 237.2 1431.13 241.11"/>
        <polygon class="cls-35" points="1400.79 245.8 1402.33 239.33 1412.23 228.35 1404.34 230.86 1405.85 224.5 1410.82 218.99 1406.86 220.25 1408.15 214.83 1413.85 205.68 1409.89 207.47 1411.15 202.19 1415.65 194.98 1412.53 196.38 1414.84 186.65 1417.54 183.65 1415.39 184.34 1416.72 178.71 1418.59 176.64 1417.1 177.11 1420.28 163.71 1423.61 180.64 1421.67 179.81 1424.2 183.63 1426.66 196.15 1422.91 194.54 1427.8 201.92 1428.75 206.78 1424.89 205.68 1429.44 210.28 1430.95 217.93 1426.33 216.61 1431.77 222.11 1433.59 231.34 1425.68 229.09 1434.99 238.5 1436.94 248.37 1431.64 246.86 1437.88 253.17 1439.37 260.77 1397.24 260.77 1398.41 255.85 1410.16 242.82 1400.79 245.8"/>
        <polygon class="cls-42" points="1123.85 241.23 1125.96 232.36 1139.53 217.3 1128.71 220.74 1130.78 212.03 1137.59 204.47 1132.17 206.2 1133.93 198.76 1141.76 186.22 1136.33 188.66 1138.05 181.43 1144.22 171.53 1139.94 173.46 1143.11 160.11 1146.81 156 1143.86 156.94 1145.69 149.22 1148.26 146.38 1146.21 147.03 1150.58 128.65 1155.14 151.87 1152.48 150.73 1155.95 155.97 1159.33 173.14 1154.19 170.93 1160.89 181.06 1162.2 187.73 1156.9 186.22 1163.14 192.52 1165.2 203.01 1158.88 201.21 1166.33 208.74 1168.82 221.41 1157.98 218.32 1170.76 231.23 1173.42 244.77 1166.16 242.7 1174.71 251.34 1176.76 261.77 1118.97 261.77 1120.58 255.02 1136.69 237.15 1123.85 241.23"/>
        <polygon class="cls-43" points="1053.4 219.54 1049.59 203.01 1025.05 174.98 1044.61 181.39 1040.87 165.16 1028.56 151.1 1038.37 154.31 1035.17 140.46 1021.03 117.11 1030.84 121.66 1027.74 108.19 1016.58 89.77 1024.32 93.36 1018.59 68.5 1011.89 60.85 1017.23 62.6 1013.92 48.24 1009.29 42.94 1012.98 44.15 1005.1 9.94 996.84 53.17 1001.65 51.04 995.39 60.8 989.28 92.77 998.57 88.65 986.47 107.5 984.1 119.92 993.67 117.11 982.39 128.85 978.66 148.38 990.1 145.02 976.63 159.05 972.12 182.63 991.72 176.87 968.63 200.91 963.82 226.12 976.94 222.26 961.48 238.36 957.78 257.77 1062.21 257.77 1059.31 245.2 1030.19 211.93 1053.4 219.54"/>
        <polygon class="cls-39" points="921.69 220.77 918 204.78 894.26 177.65 913.18 183.85 909.56 168.15 897.65 154.54 907.14 157.65 904.05 144.24 890.36 121.64 899.86 126.05 896.86 113.02 886.06 95.19 893.55 98.66 888.01 74.61 881.52 67.2 886.69 68.89 883.49 54.99 879 49.87 882.58 51.04 874.95 17.93 866.96 59.77 871.61 57.71 865.55 67.15 859.64 98.09 868.63 94.1 856.92 112.35 854.62 124.36 863.89 121.64 852.97 133.01 849.36 151.91 860.43 148.65 847.39 162.23 843.04 185.05 862 179.48 839.66 202.75 835 227.14 847.69 223.41 832.74 238.98 829.15 257.77 930.22 257.77 927.41 245.6 899.23 213.41 921.69 220.77"/>
        <polygon class="cls-40" points="805.53 222.83 801.95 207.3 778.89 180.95 797.26 186.97 793.75 171.72 782.18 158.5 791.4 161.52 788.4 148.5 775.1 126.55 784.33 130.83 781.41 118.17 770.92 100.85 778.2 104.23 772.81 80.86 766.52 73.67 771.53 75.31 768.42 61.81 764.07 56.84 767.54 57.98 760.13 25.82 752.37 66.45 756.89 64.45 751 73.62 745.26 103.67 754 99.8 742.62 117.52 740.39 129.19 749.39 126.55 738.78 137.59 735.28 155.94 746.03 152.79 733.36 165.97 729.13 188.14 747.55 182.73 725.85 205.32 721.33 229.02 733.66 225.39 719.13 240.52 715.65 258.77 813.81 258.77 811.09 246.95 783.72 215.68 805.53 222.83"/>
        <polygon class="cls-36" points="842.85 197.01 870.89 206.2 864.96 180.5 839.77 151.72 859.85 158.3 854.94 137 840.1 112.49 850.39 117.27 845.15 94.51 836.21 86.27 843.6 87.8 839.86 71.55 833.13 61.82 837.82 62.71 833.47 43.82 829.83 39.67 832.73 40.62 823.61 1.05 814.65 47.97 819.4 45.87 813.21 55.5 809.95 72.6 819.4 68.4 807.09 87.58 804.84 99.38 816.13 94.36 801.42 117.28 796.96 140.64 816.88 134.79 793.41 159.23 790.29 175.56 815.53 168.14 785.79 199.11 782.81 214.75 805.68 208.03 778.73 236.09 774.4 258.77 883 258.77 878.03 237.21 842.85 197.01"/>
        <polygon class="cls-37" points="291.25 229.77 308.95 235.58 305.21 219.35 289.3 201.17 301.98 205.33 298.88 191.88 289.51 176.41 296.01 179.42 292.7 165.05 289.51 159.79 291.72 160.81 289.36 150.55 283.03 143.32 288.07 144.97 285.32 133.04 283.03 130.42 284.86 131.02 279.1 106.04 273.44 135.67 276.44 134.34 272.54 140.42 270.47 151.21 276.44 148.57 268.67 160.67 267.25 168.12 274.38 164.96 265.09 179.43 262.27 194.18 274.85 190.49 260.03 205.92 258.06 216.23 274 211.55 255.22 231.1 253.34 240.97 267.78 236.73 250.76 254.45 248.03 268.77 316.6 268.77 313.46 255.16 291.25 229.77"/>
        <polygon class="cls-38" points="251.18 231.78 234.39 237.28 237.93 221.89 253.02 204.65 241 208.59 243.94 195.83 252.83 181.15 246.66 184.02 249.8 170.38 255.16 165.44 250.73 166.36 252.97 156.63 257 150.8 254.19 151.34 256.8 140.02 258.98 137.53 257.24 138.1 262.7 114.41 268.07 142.51 265.22 141.25 268.93 147.02 270.89 157.26 265.22 154.75 272.6 166.23 273.95 173.3 267.18 170.3 276 184.02 278.67 198.01 266.74 194.51 280.79 209.15 282.66 218.93 267.54 214.49 285.36 233.04 287.14 242.4 273.44 238.38 289.58 255.18 292.18 268.77 227.13 268.77 230.11 255.86 251.18 231.78"/>
        <polygon class="cls-20" points="196.87 243.66 199.37 232.82 215.48 214.41 202.64 218.62 205.09 207.96 213.18 198.73 206.74 200.84 208.83 191.74 218.12 176.41 211.68 179.4 213.71 170.56 221.04 158.46 215.96 160.82 219.72 144.49 224.12 139.47 220.61 140.62 222.79 131.19 225.83 127.71 223.4 128.51 228.58 106.04 234 134.43 230.84 133.03 234.96 139.43 238.97 160.43 232.86 157.72 240.81 170.1 242.37 178.25 236.08 176.41 243.49 184.12 245.94 196.94 238.43 194.73 247.28 203.95 250.23 219.43 237.37 215.65 252.53 231.44 255.69 247.99 247.07 245.46 257.22 256.02 259.65 268.77 191.08 268.77 192.98 260.52 212.1 238.67 196.87 243.66"/>
        <polygon class="cls-51" points="118.79 253.37 120.42 246.28 130.94 234.26 122.56 237.01 124.16 230.05 129.44 224.01 125.23 225.39 126.6 219.45 132.67 209.43 128.46 211.39 129.79 205.61 134.58 197.71 131.26 199.25 133.72 188.59 136.59 185.3 134.3 186.05 135.72 179.89 137.71 177.62 136.12 178.14 139.5 163.47 143.05 182.01 140.98 181.09 143.67 185.28 146.29 198.99 142.3 197.23 147.5 205.31 148.51 210.64 144.41 209.43 149.24 214.47 150.84 222.85 145.94 221.41 151.72 227.42 153.65 237.54 145.24 235.07 155.15 245.38 157.21 256.19 151.58 254.54 158.21 261.44 159.8 269.77 115.01 269.77 116.25 264.38 128.74 250.11 118.79 253.37"/>
        <polygon class="cls-52" points="128.57 254.06 130.63 245.1 143.92 229.92 133.33 233.39 135.35 224.6 142.02 216.98 136.71 218.72 138.44 211.21 146.1 198.56 140.79 201.03 142.47 193.73 148.51 183.75 144.32 185.7 147.42 172.23 151.05 168.08 148.16 169.03 149.95 161.25 152.46 158.38 150.46 159.04 154.73 140.5 159.21 163.92 156.6 162.77 159.99 168.05 163.3 185.38 158.27 183.14 164.83 193.36 166.11 200.08 160.92 198.56 167.03 204.92 169.06 215.5 162.86 213.68 170.16 221.28 172.6 234.06 161.98 230.94 174.49 243.97 177.1 257.62 169.99 255.53 178.36 264.25 180.37 274.77 123.79 274.77 125.36 267.96 141.14 249.93 128.57 254.06"/>
        <polygon class="cls-45" points="331.64 240.44 328.82 228.19 310.63 207.42 325.12 212.17 322.35 200.14 313.23 189.72 320.5 192.1 318.13 181.84 307.65 164.53 314.92 167.91 312.62 157.93 304.35 144.27 310.09 146.93 305.85 128.51 300.88 122.84 304.84 124.14 302.39 113.49 298.95 109.57 301.69 110.47 295.85 85.12 289.73 117.15 293.29 115.57 288.65 122.8 284.13 146.5 291.01 143.44 282.04 157.41 280.28 166.61 287.38 164.53 279.02 173.23 276.26 187.7 284.73 185.21 274.75 195.61 271.41 213.09 285.93 208.82 268.82 226.63 265.26 245.31 274.98 242.46 263.52 254.38 260.78 268.77 338.17 268.77 336.02 259.45 314.44 234.8 331.64 240.44"/>
        <polygon class="cls-49" points="43.13 249.07 41.56 242.29 31.49 230.77 39.52 233.41 37.98 226.74 32.93 220.97 36.96 222.29 35.64 216.6 29.84 207.01 33.87 208.88 32.59 203.35 28.01 195.78 31.19 197.26 28.84 187.05 26.09 183.91 28.28 184.62 26.92 178.73 25.02 176.55 26.53 177.05 23.29 163 19.9 180.75 21.88 179.88 19.31 183.88 16.8 197.01 20.62 195.32 15.64 203.06 14.67 208.16 18.6 207.01 13.97 211.83 12.44 219.85 17.14 218.47 11.6 224.23 9.75 233.91 17.8 231.55 8.32 241.42 6.34 251.77 11.73 250.19 5.38 256.8 3.86 264.77 46.75 264.77 45.56 259.61 33.6 245.95 43.13 249.07"/>
        <polygon class="cls-53" points="116.4 240.52 103.12 244.87 105.92 232.69 117.86 219.06 108.35 222.18 110.67 212.09 117.7 200.48 112.83 202.74 115.31 191.96 117.7 188.01 116.04 188.78 117.82 181.08 122.57 175.66 118.78 176.9 120.84 167.95 122.57 165.98 121.19 166.43 125.51 147.69 129.76 169.92 127.51 168.92 130.44 173.49 131.98 181.58 127.51 179.6 133.34 188.68 134.41 194.27 129.05 191.89 136.02 202.75 138.14 213.81 128.7 211.04 139.82 222.62 141.3 230.35 129.34 226.84 143.43 241.51 144.84 248.92 134.01 245.74 146.77 259.03 148.82 269.77 97.38 269.77 99.73 259.56 116.4 240.52"/>
        <polygon class="cls-46" points="76.07 248.51 78.19 239.33 91.83 223.75 80.96 227.31 83.04 218.29 89.88 210.47 84.43 212.26 86.2 204.55 94.07 191.57 88.61 194.1 90.34 186.62 96.54 176.37 92.24 178.37 95.42 164.55 99.14 160.3 96.18 161.27 98.02 153.29 100.59 150.34 98.54 151.02 102.92 132 107.51 156.03 104.84 154.84 108.32 160.27 111.71 178.04 106.55 175.75 113.28 186.23 114.6 193.13 109.27 191.57 115.54 198.1 117.62 208.96 111.26 207.09 118.75 214.89 121.25 228 110.36 224.8 123.19 238.16 125.87 252.17 118.58 250.03 127.17 258.98 129.23 269.77 71.17 269.77 72.78 262.78 88.97 244.29 76.07 248.51"/>
        <polygon class="cls-50" points="145.38 246.44 147.6 236.79 161.93 220.42 150.51 224.16 152.7 214.68 159.89 206.47 154.16 208.35 156.02 200.25 164.28 186.61 158.55 189.27 160.36 181.41 166.88 170.65 162.36 172.75 165.71 158.23 169.62 153.76 166.5 154.78 168.43 146.39 171.14 143.3 168.98 144.01 173.59 124.03 178.41 149.27 175.6 148.03 179.26 153.73 182.83 172.4 177.4 169.99 184.47 181 185.85 188.26 180.26 186.61 186.85 193.47 189.03 204.88 182.35 202.92 190.22 211.11 192.85 224.88 181.4 221.52 194.89 235.56 197.7 250.28 190.03 248.03 199.06 257.43 201.23 268.77 140.23 268.77 141.92 261.43 158.93 242 145.38 246.44"/>
        <polygon class="cls-48" points="211.34 245.19 213.69 234.99 228.83 217.7 216.76 221.66 219.07 211.65 226.66 202.97 220.61 204.96 222.58 196.41 231.31 182 225.26 184.81 227.17 176.51 234.05 165.14 229.28 167.36 232.81 152.02 236.94 147.3 233.65 148.38 235.69 139.52 238.55 136.26 236.27 137 241.14 115.9 246.23 142.57 243.26 141.25 247.13 147.27 250.89 166.99 245.16 164.45 252.63 176.08 254.09 183.74 248.18 182 255.14 189.25 257.44 201.29 250.39 199.22 258.7 207.88 261.48 222.42 249.39 218.87 263.63 233.7 266.6 249.24 258.51 246.87 268.04 256.79 270.33 268.77 205.91 268.77 207.69 261.02 225.66 240.49 211.34 245.19"/>
        <polygon class="cls-47" points="186.18 225.29 166.44 231.76 170.61 213.67 188.34 193.41 174.21 198.04 177.66 183.05 188.11 165.79 180.86 169.16 184.56 153.13 190.85 147.33 185.65 148.41 188.28 136.97 193.01 130.12 189.72 130.75 192.78 117.45 195.34 114.53 193.3 115.2 199.72 87.34 206.03 120.37 202.68 118.89 207.04 125.68 209.34 137.71 202.68 134.76 211.35 148.26 212.94 156.56 204.98 153.03 215.34 169.16 218.48 185.61 204.46 181.49 220.98 198.69 223.18 210.19 205.4 204.97 226.34 226.77 228.44 237.78 212.34 233.05 231.31 252.8 234.36 268.77 157.91 268.77 161.41 253.59 186.18 225.29"/>
        <polygon class="cls-21" points="400.34 237.26 403.68 222.78 425.18 198.21 408.04 203.83 411.32 189.61 422.11 177.28 413.51 180.1 416.31 167.96 428.71 147.49 420.11 151.48 422.83 139.68 432.61 123.53 425.82 126.68 430.84 104.9 436.71 98.19 432.04 99.72 434.94 87.13 439 82.5 435.76 83.56 442.67 53.57 449.91 91.46 445.69 89.59 451.18 98.14 456.53 126.16 448.39 122.55 459 139.07 461.08 149.96 452.68 147.49 462.57 157.79 465.84 174.9 455.81 171.95 467.62 184.25 471.57 204.92 454.4 199.87 474.63 220.94 478.85 243.03 467.35 239.65 480.89 253.76 484.14 270.77 392.62 270.77 395.16 259.75 420.68 230.6 400.34 237.26"/>
        <polygon class="cls-34" points="293.13 247.68 295.43 237.7 310.24 220.78 298.44 224.65 300.7 214.85 308.13 206.36 302.21 208.3 304.13 199.93 312.67 185.83 306.75 188.58 308.62 180.45 315.36 169.32 310.69 171.49 314.15 156.48 318.19 151.86 314.97 152.91 316.97 144.24 319.76 141.04 317.54 141.77 322.3 121.11 327.28 147.22 324.38 145.93 328.16 151.83 331.85 171.13 326.23 168.64 333.55 180.03 334.98 187.53 329.2 185.83 336.01 192.92 338.26 204.71 331.35 202.68 339.49 211.16 342.21 225.4 330.38 221.92 344.32 236.44 347.22 251.66 339.3 249.33 348.63 259.05 350.87 270.77 287.81 270.77 289.56 263.18 307.14 243.09 293.13 247.68"/>
        <polygon class="cls-27" points="309.18 251.12 311.93 239.17 329.67 218.9 315.54 223.54 318.24 211.8 327.14 201.63 320.05 203.96 322.36 193.94 332.58 177.05 325.49 180.35 327.73 170.61 335.8 157.28 330.2 159.88 334.35 141.91 339.19 136.37 335.33 137.64 337.72 127.25 341.07 123.42 338.4 124.3 344.11 99.56 350.08 130.82 346.6 129.28 351.13 136.33 355.54 159.45 348.82 156.47 357.58 170.11 359.29 179.09 352.37 177.05 360.52 185.55 363.22 199.67 354.95 197.24 364.69 207.38 367.95 224.43 353.78 220.27 370.47 237.65 373.95 255.88 364.47 253.09 375.64 264.73 378.33 278.77 302.81 278.77 304.9 269.68 325.96 245.62 309.18 251.12"/>
        <polygon class="cls-30" points="49.53 244.5 61.91 248.56 59.3 237.2 48.17 224.49 57.04 227.4 54.87 217.99 48.31 207.17 52.86 209.28 50.54 199.23 48.31 195.55 49.86 196.26 48.21 189.09 43.78 184.03 47.31 185.19 45.39 176.84 43.78 175.01 45.06 175.43 41.03 157.96 37.08 178.68 39.18 177.75 36.44 182 35 189.55 39.18 187.7 33.74 196.17 32.74 201.38 37.73 199.16 31.23 209.28 29.26 219.6 38.06 217.02 27.7 227.81 26.32 235.02 37.47 231.75 24.33 245.42 23.01 252.33 33.11 249.36 21.21 261.75 19.3 271.77 67.26 271.77 65.07 262.25 49.53 244.5"/>
        <polygon class="cls-26" points="26.61 234.9 14.86 238.75 17.34 227.98 27.9 215.92 19.49 218.68 21.54 209.76 27.76 199.49 23.45 201.49 25.65 191.96 29.39 188.5 26.29 189.15 27.86 182.34 30.68 178.26 28.72 178.64 30.54 170.72 32.06 168.98 30.85 169.38 34.67 152.81 38.42 172.46 36.43 171.58 39.02 175.62 40.39 182.78 36.43 181.02 41.59 189.05 42.53 194 37.8 191.9 43.96 201.5 45.83 211.28 37.49 208.83 47.32 219.07 48.63 225.91 38.05 222.8 50.51 235.78 51.76 242.33 42.18 239.51 53.47 251.27 55.28 260.77 9.79 260.77 11.87 251.74 26.61 234.9"/>
        <polygon class="cls-28" points="77.78 251.95 75.81 243.39 63.09 228.86 73.22 232.18 71.29 223.77 64.91 216.48 69.99 218.15 68.33 210.97 61 198.86 66.09 201.22 64.48 194.25 58.7 184.69 62.71 186.56 59.74 173.67 56.27 169.71 59.04 170.61 57.32 163.17 54.92 160.43 56.83 161.05 52.75 143.32 48.47 165.73 50.96 164.62 47.71 169.68 44.55 186.25 49.37 184.11 43.09 193.89 41.86 200.32 46.82 198.86 40.98 204.95 39.04 215.07 44.97 213.33 37.99 220.6 35.66 232.82 45.81 229.84 33.85 242.3 31.35 255.36 38.15 253.37 30.14 261.71 28.22 271.77 82.35 271.77 80.84 265.25 65.75 248.01 77.78 251.95"/>
        <polygon class="cls-31" points="50.85 256.62 52.45 249.64 62.82 237.8 54.56 240.51 56.14 233.66 61.34 227.72 57.19 229.08 58.54 223.22 64.52 213.36 60.37 215.28 61.68 209.6 66.4 201.81 63.13 203.33 65.55 192.83 68.37 189.6 66.12 190.34 67.52 184.27 69.47 182.04 67.92 182.55 71.25 168.1 74.73 186.36 72.7 185.46 75.35 189.58 77.93 203.08 74 201.34 79.11 209.3 80.11 214.55 76.07 213.36 80.83 218.32 82.41 226.57 77.58 225.15 83.27 231.08 85.17 241.03 76.9 238.6 86.65 248.76 88.68 259.4 83.14 257.77 89.67 264.57 91.23 272.77 47.12 272.77 48.35 267.46 60.65 253.41 50.85 256.62"/>
        <polygon class="cls-33" points="62.07 259.43 64 251.08 76.41 236.9 66.52 240.14 68.41 231.93 74.63 224.82 69.67 226.45 71.29 219.44 78.44 207.63 73.48 209.93 75.05 203.12 80.69 193.8 76.78 195.62 79.67 183.05 83.06 179.18 80.36 180.06 82.04 172.8 84.38 170.12 82.51 170.73 86.5 153.43 90.67 175.29 88.24 174.21 91.41 179.15 94.5 195.32 89.8 193.23 95.92 202.77 97.12 209.05 92.28 207.63 97.98 213.57 99.87 223.44 94.08 221.74 100.9 228.84 103.18 240.77 93.27 237.86 104.94 250.01 107.38 262.76 100.74 260.81 108.56 268.95 110.43 278.77 57.61 278.77 59.08 272.41 73.81 255.59 62.07 259.43"/>
        <polygon class="cls-29" points="331.62 240.96 334.59 228.09 353.71 206.23 338.47 211.23 341.39 198.58 350.98 187.62 343.34 190.12 345.82 179.32 356.85 161.12 349.2 164.67 351.62 154.17 360.32 139.81 354.29 142.61 358.75 123.23 363.97 117.26 359.81 118.63 362.39 107.43 366 103.31 363.13 104.25 369.27 77.58 375.71 111.28 371.96 109.61 376.84 117.22 381.6 142.15 374.36 138.93 383.79 153.63 385.64 163.31 378.18 161.12 386.97 170.27 389.88 185.49 380.96 182.88 391.47 193.81 394.98 212.19 379.7 207.71 397.7 226.45 401.45 246.09 391.22 243.09 403.27 255.64 406.16 270.77 324.75 270.77 327.01 260.97 349.71 235.04 331.62 240.96"/>
        <polygon class="cls-32" points="419.66 239.29 422.8 225.69 443 202.61 426.9 207.89 429.98 194.53 440.11 182.95 432.04 185.6 434.67 174.19 446.31 154.96 438.23 158.71 440.79 147.62 449.97 132.45 443.6 135.41 448.32 114.95 453.83 108.65 449.44 110.09 452.16 98.26 455.98 93.9 452.94 94.9 459.43 66.73 466.22 102.32 462.26 100.57 467.42 108.6 472.45 134.93 464.8 131.53 474.76 147.05 476.72 157.28 468.83 154.96 478.12 164.63 481.19 180.71 471.77 177.94 482.87 189.49 486.57 208.91 470.44 204.17 489.45 223.96 493.41 244.71 482.61 241.54 495.34 254.79 498.39 270.77 412.41 270.77 414.79 260.42 438.77 233.03 419.66 239.29"/>
        <polygon class="cls-58" points="386.07 212.74 359.73 221.38 365.29 197.22 388.96 170.18 370.1 176.36 374.71 156.35 388.66 133.33 378.98 137.82 383.91 116.43 392.31 108.68 385.37 110.12 388.88 94.85 395.2 85.71 390.8 86.55 394.89 68.8 398.3 64.9 395.58 65.79 404.15 28.62 412.57 72.7 408.1 70.72 413.92 79.78 416.98 95.84 408.1 91.9 419.67 109.92 421.79 121 411.17 116.29 425 137.83 429.19 159.77 410.48 154.28 432.53 177.24 435.46 192.58 411.74 185.62 439.68 214.72 442.49 229.41 421 223.09 446.32 249.46 450.39 270.77 348.34 270.77 353.01 250.51 386.07 212.74"/>
        <polygon class="cls-61" points="1138.23 239.66 1140.6 229.67 1155.88 212.73 1143.71 216.6 1146.04 206.8 1153.7 198.3 1147.59 200.24 1149.58 191.86 1158.39 177.75 1152.28 180.5 1154.21 172.36 1161.16 161.23 1156.34 163.4 1159.91 148.37 1164.08 143.75 1160.75 144.81 1162.81 136.12 1165.7 132.92 1163.4 133.66 1168.31 112.98 1173.45 139.11 1170.45 137.82 1174.36 143.72 1178.16 163.04 1172.37 160.55 1179.91 171.94 1181.39 179.45 1175.42 177.75 1182.45 184.85 1184.77 196.65 1177.65 194.62 1186.04 203.1 1188.84 217.35 1176.64 213.87 1191.02 228.4 1194.01 243.64 1185.84 241.31 1195.47 251.04 1197.78 262.77 1132.75 262.77 1134.55 255.17 1152.68 235.06 1138.23 239.66"/>
        <polygon class="cls-24" points="1323.89 237.3 1308.69 242.28 1311.9 228.35 1325.55 212.75 1314.67 216.32 1317.33 204.77 1325.38 191.49 1319.8 194.08 1322.64 181.75 1325.38 177.23 1323.48 178.11 1325.51 169.3 1330.94 163.09 1326.61 164.51 1328.97 154.27 1330.94 152.02 1329.37 152.54 1334.31 131.1 1339.17 156.53 1336.59 155.38 1339.95 160.61 1341.72 169.87 1336.59 167.6 1343.27 177.99 1344.49 184.38 1338.36 181.67 1346.34 194.09 1348.76 206.75 1337.96 203.58 1350.68 216.82 1352.37 225.67 1338.69 221.65 1354.81 238.44 1356.43 246.91 1344.03 243.27 1358.64 258.48 1360.98 270.77 1302.12 270.77 1304.82 259.09 1323.89 237.3"/>
        <polygon class="cls-25" points="1357.28 235.02 1371.7 239.74 1368.65 226.53 1355.7 211.73 1366.02 215.12 1363.5 204.17 1355.87 191.57 1361.16 194.03 1358.47 182.32 1353.87 178.08 1357.67 178.87 1355.74 170.52 1352.29 165.51 1354.7 165.98 1352.46 156.26 1350.59 154.13 1352.08 154.62 1347.39 134.28 1342.79 158.4 1345.23 157.31 1342.05 162.27 1340.37 171.06 1345.23 168.9 1338.9 178.76 1337.74 184.82 1343.55 182.25 1335.98 194.03 1333.69 206.04 1343.93 203.03 1331.87 215.59 1330.26 223.99 1343.24 220.18 1327.95 236.1 1326.42 244.14 1338.17 240.68 1324.32 255.11 1322.09 266.77 1377.93 266.77 1375.37 255.69 1357.28 235.02"/>
        <polygon class="cls-22" points="1414.87 242.22 1412.73 232.91 1398.9 217.11 1409.92 220.72 1407.81 211.58 1400.87 203.65 1406.4 205.46 1404.6 197.65 1396.63 184.49 1402.16 187.06 1400.41 179.47 1394.12 169.09 1398.49 171.11 1395.26 157.1 1391.48 152.79 1394.49 153.77 1392.63 145.68 1390.02 142.7 1392.1 143.38 1387.65 124.1 1383 148.46 1385.71 147.26 1382.18 152.76 1378.74 170.78 1383.98 168.45 1377.15 179.08 1375.82 186.08 1381.21 184.49 1374.86 191.11 1372.75 202.12 1379.2 200.22 1371.61 208.13 1369.07 221.42 1380.11 218.18 1367.1 231.73 1364.39 245.93 1371.78 243.76 1363.07 252.83 1360.98 263.77 1419.84 263.77 1418.21 256.68 1401.8 237.94 1414.87 242.22"/>
        <polygon class="cls-23" points="1286.27 248.45 1288.7 237.94 1304.3 220.11 1291.87 224.19 1294.24 213.87 1302.07 204.92 1295.83 206.97 1297.86 198.15 1306.86 183.3 1300.62 186.2 1302.59 177.63 1309.69 165.91 1304.77 168.2 1308.41 152.38 1312.67 147.52 1309.28 148.63 1311.38 139.49 1314.33 136.13 1311.98 136.9 1317 115.14 1322.25 142.63 1319.19 141.28 1323.17 147.48 1327.06 167.82 1321.14 165.2 1328.84 177.19 1330.35 185.09 1324.26 183.3 1331.44 190.77 1333.81 203.19 1326.53 201.05 1335.11 209.98 1337.97 224.98 1325.51 221.32 1340.19 236.6 1343.25 252.64 1334.91 250.19 1344.74 260.42 1347.09 272.77 1280.67 272.77 1282.51 264.77 1301.03 243.61 1286.27 248.45"/>
        <polygon class="cls-62" points="1392.57 248.53 1390.56 239.78 1377.57 224.94 1387.92 228.33 1385.94 219.74 1379.42 212.29 1384.62 214 1382.93 206.66 1375.44 194.3 1380.63 196.71 1378.99 189.58 1373.08 179.82 1377.18 181.73 1374.15 168.56 1370.6 164.51 1373.43 165.44 1371.67 157.83 1369.22 155.03 1371.18 155.67 1367 137.56 1362.63 160.45 1365.18 159.32 1361.86 164.48 1358.63 181.41 1363.55 179.23 1357.14 189.21 1355.88 195.79 1360.95 194.3 1354.98 200.52 1353.01 210.85 1359.06 209.07 1351.93 216.5 1349.54 228.99 1359.92 225.94 1347.7 238.67 1345.15 252.01 1352.09 249.97 1343.91 258.49 1341.95 268.77 1397.24 268.77 1395.7 262.11 1380.29 244.5 1392.57 248.53"/>
        <polygon class="cls-19" points="1239.29 241.93 1236.32 229.04 1217.17 207.17 1232.43 212.17 1229.51 199.51 1219.9 188.53 1227.56 191.04 1225.07 180.23 1214.03 162 1221.69 165.56 1219.26 155.05 1210.55 140.67 1216.6 143.47 1212.13 124.08 1206.9 118.11 1211.06 119.47 1208.48 108.26 1204.87 104.13 1207.75 105.08 1201.59 78.38 1195.15 112.11 1198.91 110.45 1194.02 118.06 1189.25 143.01 1196.51 139.8 1187.06 154.51 1185.21 164.2 1192.68 162 1183.88 171.17 1180.97 186.41 1189.89 183.78 1179.38 194.73 1175.86 213.13 1191.15 208.64 1173.14 227.4 1169.38 247.07 1179.62 244.06 1167.56 256.62 1164.67 271.77 1246.16 271.77 1243.9 261.96 1221.18 236 1239.29 241.93"/>
        <polygon class="cls-17" points="1319.32 248.95 1317.35 240.39 1304.63 225.86 1314.76 229.18 1312.82 220.77 1306.44 213.48 1311.53 215.15 1309.87 207.97 1302.54 195.86 1307.63 198.22 1306.02 191.24 1300.24 181.69 1304.25 183.56 1301.28 170.67 1297.81 166.71 1300.57 167.61 1298.86 160.17 1296.46 157.42 1298.37 158.05 1294.28 140.32 1290.01 162.73 1292.5 161.62 1289.25 166.68 1286.09 183.25 1290.9 181.11 1284.63 190.88 1283.4 197.32 1288.36 195.86 1282.52 201.95 1280.58 212.07 1286.51 210.33 1279.53 217.6 1277.19 229.82 1287.35 226.84 1275.38 239.3 1272.89 252.36 1279.69 250.37 1271.68 258.71 1269.76 268.77 1323.89 268.77 1322.38 262.25 1307.29 245.01 1319.32 248.95"/>
        <polygon class="cls-18" points="1304.42 251.04 1302.06 240.78 1286.83 223.39 1298.97 227.36 1296.65 217.29 1289.01 208.56 1295.1 210.56 1293.11 201.96 1284.33 187.46 1290.42 190.29 1288.5 181.93 1281.57 170.5 1286.38 172.73 1282.82 157.3 1278.66 152.55 1281.98 153.63 1279.92 144.72 1277.05 141.43 1279.34 142.18 1274.44 120.95 1269.32 147.78 1272.31 146.46 1268.42 152.51 1264.63 172.36 1270.4 169.8 1262.88 181.5 1261.41 189.21 1267.35 187.46 1260.35 194.75 1258.04 206.87 1265.14 204.79 1256.77 213.5 1253.98 228.13 1266.14 224.56 1251.81 239.48 1248.83 255.12 1256.97 252.73 1247.37 262.72 1245.07 274.77 1309.89 274.77 1308.09 266.97 1290.02 246.32 1304.42 251.04"/>
        <polygon class="cls-44" points="1286.63 246.19 1284.08 235.13 1267.66 216.38 1280.74 220.66 1278.24 209.81 1270 200.4 1276.57 202.55 1274.43 193.28 1264.97 177.65 1271.53 180.7 1269.46 171.69 1261.99 159.36 1267.17 161.77 1263.34 145.13 1258.86 140.01 1262.43 141.18 1260.21 131.57 1257.11 128.03 1259.58 128.84 1254.31 105.95 1248.78 134.88 1252 133.45 1247.81 139.98 1243.73 161.37 1249.94 158.61 1241.84 171.23 1240.26 179.53 1246.66 177.65 1239.12 185.51 1236.62 198.58 1244.27 196.33 1235.26 205.72 1232.25 221.49 1245.36 217.64 1229.91 233.73 1226.69 250.59 1235.47 248.01 1225.13 258.78 1222.65 271.77 1292.52 271.77 1290.58 263.36 1271.1 241.1 1286.63 246.19"/>
        <polygon class="cls-12" points="1222.08 243.74 1219.29 231.63 1201.3 211.08 1215.64 215.78 1212.9 203.88 1203.87 193.57 1211.06 195.93 1208.72 185.77 1198.35 168.65 1205.55 171.99 1203.27 162.12 1195.09 148.61 1200.77 151.25 1196.57 133.02 1191.66 127.42 1195.57 128.7 1193.14 118.17 1189.75 114.29 1192.45 115.18 1186.68 90.1 1180.62 121.79 1184.15 120.22 1179.56 127.38 1175.08 150.81 1181.89 147.79 1173.02 161.61 1171.28 170.72 1178.3 168.65 1170.03 177.26 1167.3 191.58 1175.68 189.12 1165.8 199.4 1162.5 216.69 1176.87 212.47 1159.94 230.09 1156.42 248.57 1166.03 245.74 1154.7 257.54 1151.99 271.77 1228.54 271.77 1226.42 262.55 1205.07 238.17 1222.08 243.74"/>
        <polygon class="cls-13" points="1245 224.62 1265.05 231.19 1260.81 212.82 1242.81 192.24 1257.16 196.94 1253.65 181.72 1243.04 164.2 1250.4 167.62 1246.65 151.35 1240.26 145.45 1245.54 146.55 1242.87 134.93 1238.06 127.97 1241.41 128.61 1238.3 115.11 1235.7 112.14 1237.77 112.82 1231.25 84.54 1224.85 118.08 1228.24 116.57 1223.82 123.46 1221.49 135.68 1228.24 132.68 1219.44 146.39 1217.83 154.82 1225.91 151.24 1215.39 167.62 1212.2 184.32 1226.44 180.14 1209.66 197.61 1207.43 209.28 1225.48 203.98 1204.22 226.12 1202.08 237.3 1218.43 232.5 1199.17 252.56 1196.07 268.77 1273.71 268.77 1270.16 253.36 1245 224.62"/>
        <g>
          <polyline class="cls-14" points="1441 195.48 1434.89 186.23 1439.11 188.05 1436.33 173.96 1433.49 169.66 1435.67 170.6 1431.92 151.55 1428.34 166.63 1430.02 166.09 1427.92 168.42 1426.41 174.75 1428.84 173.98 1425.8 177.36 1423.2 188.31 1426.71 186.73 1421.64 194.85 1420.23 200.78 1424.69 198.78 1418.27 209.07 1416.82 215.18 1421.27 213.76 1415.68 219.96 1413.98 227.11 1422.86 224.28 1411.72 236.64 1409.99 243.92 1420.53 240.57 1407.31 255.23 1405.99 260.77 1441 260.77 1441 195.77"/>
          <polygon class="cls-15" points="1441.03 146.47 1436.1 166.41 1438.54 165.42 1435.57 169.92 1432.67 184.67 1437.08 182.77 1431.33 191.46 1430.2 197.19 1434.75 195.89 1429.39 201.31 1427.62 210.32 1433.05 208.77 1426.65 215.24 1424.51 226.11 1433.82 223.46 1422.85 234.55 1420.57 246.17 1426.8 244.39 1419.46 251.82 1417.7 260.77 1441 260.77 1441.03 146.47"/>
          <rect class="cls-1" x="1354" y="119.77" width="87" height="150"/>
        </g>
        <g class="cls-2">
          <polygon class="cls-16" points="18.94 245.34 30.03 248.97 27.69 238.81 17.72 227.42 25.66 230.02 23.72 221.6 17.85 211.9 21.92 213.79 19.85 204.79 17.85 201.49 19.24 202.13 17.76 195.7 13.79 191.17 16.95 192.21 15.23 184.73 13.79 183.09 14.94 183.47 11.33 167.82 7.78 186.38 9.66 185.54 7.22 189.36 5.92 196.12 9.66 194.46 4.79 202.05 3.9 206.71 8.37 204.73 2.55 213.8 .78 223.04 8.66 220.72 -.62 230.39 -1.85 236.85 8.13 233.92 -3.63 246.17 -4.81 252.36 4.23 249.7 -6.43 260.8 -8.14 269.77 34.82 269.77 32.86 261.24 18.94 245.34"/>
          <polygon class="cls-11" points="-4.38 245.4 -14.08 248.58 -12.03 239.69 -3.32 229.73 -10.26 232.01 -8.57 224.64 -3.43 216.16 -6.99 217.81 -5.18 209.94 -2.09 207.08 -4.64 207.61 -3.35 201.99 -1.02 198.62 -2.64 198.93 -1.14 192.4 .12 190.96 -.88 191.29 2.27 177.6 5.37 193.83 3.73 193.1 5.87 196.44 7 202.35 3.73 200.9 7.99 207.54 8.77 211.62 4.86 209.88 9.95 217.81 11.5 225.9 4.6 223.87 12.72 232.33 13.8 237.98 5.07 235.41 15.36 246.13 16.39 251.54 8.48 249.21 17.8 258.92 19.3 266.77 -18.27 266.77 -16.56 259.31 -4.38 245.4"/>
        </g>
      </g>
      <polygon class="cls-68" points="0 267.33 160.92 248.72 349.25 206.16 506.9 230.62 717.8 209.8 992.36 215.25 1184.25 257.51 1324.03 251.93 1441 245.99 1441 609.77 0 609.77 0 267.33"/>
    </g>
  </g>
</svg>