<?xml version="1.0" encoding="UTF-8"?>
<svg id="Layer_2" data-name="Layer 2" xmlns="http://www.w3.org/2000/svg" xmlns:xlink="http://www.w3.org/1999/xlink" viewBox="0 0 1440.76 428.79">
  <defs>
    <style>
      .cls-1 {
        fill: none;
      }

      .cls-2 {
        clip-path: url(#clippath);
      }

      .cls-3 {
        fill: url(#_É_πÌÚ_·ÂÁ_Ì_Á_Ë_18-6);
      }

      .cls-4 {
        fill: url(#_É_πÌÚ_·ÂÁ_Ì_Á_Ë_18-8);
      }

      .cls-5 {
        fill: url(#_É_πÌÚ_·ÂÁ_Ì_Á_Ë_18-7);
      }

      .cls-6 {
        fill: url(#_É_πÌÚ_·ÂÁ_Ì_Á_Ë_18-9);
      }

      .cls-7 {
        fill: url(#_É_πÌÚ_·ÂÁ_Ì_Á_Ë_18-3);
      }

      .cls-8 {
        fill: url(#_É_πÌÚ_·ÂÁ_Ì_Á_Ë_18-2);
      }

      .cls-9 {
        fill: url(#_É_πÌÚ_·ÂÁ_Ì_Á_Ë_18-5);
      }

      .cls-10 {
        fill: url(#_É_πÌÚ_·ÂÁ_Ì_Á_Ë_18-4);
      }

      .cls-11 {
        fill: url(#_É_πÌÚ_·ÂÁ_Ì_Á_Ë_18-65);
      }

      .cls-12 {
        fill: url(#_É_πÌÚ_·ÂÁ_Ì_Á_Ë_18-60);
      }

      .cls-13 {
        fill: url(#_É_πÌÚ_·ÂÁ_Ì_Á_Ë_18-61);
      }

      .cls-14 {
        fill: url(#_É_πÌÚ_·ÂÁ_Ì_Á_Ë_18-62);
      }

      .cls-15 {
        fill: url(#_É_πÌÚ_·ÂÁ_Ì_Á_Ë_18-63);
      }

      .cls-16 {
        fill: url(#_É_πÌÚ_·ÂÁ_Ì_Á_Ë_18-64);
      }

      .cls-17 {
        fill: url(#_É_πÌÚ_·ÂÁ_Ì_Á_Ë_18-57);
      }

      .cls-18 {
        fill: url(#_É_πÌÚ_·ÂÁ_Ì_Á_Ë_18-58);
      }

      .cls-19 {
        fill: url(#_É_πÌÚ_·ÂÁ_Ì_Á_Ë_18-56);
      }

      .cls-20 {
        fill: url(#_É_πÌÚ_·ÂÁ_Ì_Á_Ë_18-29);
      }

      .cls-21 {
        fill: url(#_É_πÌÚ_·ÂÁ_Ì_Á_Ë_18-39);
      }

      .cls-22 {
        fill: url(#_É_πÌÚ_·ÂÁ_Ì_Á_Ë_18-53);
      }

      .cls-23 {
        fill: url(#_É_πÌÚ_·ÂÁ_Ì_Á_Ë_18-54);
      }

      .cls-24 {
        fill: url(#_É_πÌÚ_·ÂÁ_Ì_Á_Ë_18-51);
      }

      .cls-25 {
        fill: url(#_É_πÌÚ_·ÂÁ_Ì_Á_Ë_18-52);
      }

      .cls-26 {
        fill: url(#_É_πÌÚ_·ÂÁ_Ì_Á_Ë_18-43);
      }

      .cls-27 {
        fill: url(#_É_πÌÚ_·ÂÁ_Ì_Á_Ë_18-41);
      }

      .cls-28 {
        fill: url(#_É_πÌÚ_·ÂÁ_Ì_Á_Ë_18-44);
      }

      .cls-29 {
        fill: url(#_É_πÌÚ_·ÂÁ_Ì_Á_Ë_18-47);
      }

      .cls-30 {
        fill: url(#_É_πÌÚ_·ÂÁ_Ì_Á_Ë_18-42);
      }

      .cls-31 {
        fill: url(#_É_πÌÚ_·ÂÁ_Ì_Á_Ë_18-45);
      }

      .cls-32 {
        fill: url(#_É_πÌÚ_·ÂÁ_Ì_Á_Ë_18-48);
      }

      .cls-33 {
        fill: url(#_É_πÌÚ_·ÂÁ_Ì_Á_Ë_18-46);
      }

      .cls-34 {
        fill: url(#_É_πÌÚ_·ÂÁ_Ì_Á_Ë_18-40);
      }

      .cls-35 {
        fill: url(#_É_πÌÚ_·ÂÁ_Ì_Á_Ë_18-21);
      }

      .cls-36 {
        fill: url(#_É_πÌÚ_·ÂÁ_Ì_Á_Ë_18-26);
      }

      .cls-37 {
        fill: url(#_É_πÌÚ_·ÂÁ_Ì_Á_Ë_18-27);
      }

      .cls-38 {
        fill: url(#_É_πÌÚ_·ÂÁ_Ì_Á_Ë_18-28);
      }

      .cls-39 {
        fill: url(#_É_πÌÚ_·ÂÁ_Ì_Á_Ë_18-24);
      }

      .cls-40 {
        fill: url(#_É_πÌÚ_·ÂÁ_Ì_Á_Ë_18-25);
      }

      .cls-41 {
        fill: url(#_É_πÌÚ_·ÂÁ_Ì_Á_Ë_18-20);
      }

      .cls-42 {
        fill: url(#_É_πÌÚ_·ÂÁ_Ì_Á_Ë_18-22);
      }

      .cls-43 {
        fill: url(#_É_πÌÚ_·ÂÁ_Ì_Á_Ë_18-23);
      }

      .cls-44 {
        fill: url(#_É_πÌÚ_·ÂÁ_Ì_Á_Ë_18-59);
      }

      .cls-45 {
        fill: url(#_É_πÌÚ_·ÂÁ_Ì_Á_Ë_18-32);
      }

      .cls-46 {
        fill: url(#_É_πÌÚ_·ÂÁ_Ì_Á_Ë_18-35);
      }

      .cls-47 {
        fill: url(#_É_πÌÚ_·ÂÁ_Ì_Á_Ë_18-38);
      }

      .cls-48 {
        fill: url(#_É_πÌÚ_·ÂÁ_Ì_Á_Ë_18-37);
      }

      .cls-49 {
        fill: url(#_É_πÌÚ_·ÂÁ_Ì_Á_Ë_18-33);
      }

      .cls-50 {
        fill: url(#_É_πÌÚ_·ÂÁ_Ì_Á_Ë_18-36);
      }

      .cls-51 {
        fill: url(#_É_πÌÚ_·ÂÁ_Ì_Á_Ë_18-30);
      }

      .cls-52 {
        fill: url(#_É_πÌÚ_·ÂÁ_Ì_Á_Ë_18-31);
      }

      .cls-53 {
        fill: url(#_É_πÌÚ_·ÂÁ_Ì_Á_Ë_18-34);
      }

      .cls-54 {
        fill: url(#_É_πÌÚ_·ÂÁ_Ì_Á_Ë_18-11);
      }

      .cls-55 {
        fill: url(#_É_πÌÚ_·ÂÁ_Ì_Á_Ë_18-15);
      }

      .cls-56 {
        fill: url(#_É_πÌÚ_·ÂÁ_Ì_Á_Ë_18-10);
      }

      .cls-57 {
        fill: url(#_É_πÌÚ_·ÂÁ_Ì_Á_Ë_18-12);
      }

      .cls-58 {
        fill: url(#_É_πÌÚ_·ÂÁ_Ì_Á_Ë_18-49);
      }

      .cls-59 {
        fill: url(#_É_πÌÚ_·ÂÁ_Ì_Á_Ë_18-13);
      }

      .cls-60 {
        fill: url(#_É_πÌÚ_·ÂÁ_Ì_Á_Ë_18-14);
      }

      .cls-61 {
        fill: url(#_É_πÌÚ_·ÂÁ_Ì_Á_Ë_18-50);
      }

      .cls-62 {
        fill: url(#_É_πÌÚ_·ÂÁ_Ì_Á_Ë_18-55);
      }

      .cls-63 {
        fill: url(#_É_πÌÚ_·ÂÁ_Ì_Á_Ë_18-16);
      }

      .cls-64 {
        fill: url(#_É_πÌÚ_·ÂÁ_Ì_Á_Ë_18-17);
      }

      .cls-65 {
        fill: url(#_É_πÌÚ_·ÂÁ_Ì_Á_Ë_18-19);
      }

      .cls-66 {
        fill: url(#_É_πÌÚ_·ÂÁ_Ì_Á_Ë_18-18);
      }

      .cls-67 {
        fill: url(#_É_πÌÚ_·ÂÁ_Ì_Á_Ë_18);
      }

      .cls-68 {
        fill: url(#_É_πÌÚ_·ÂÁ_Ì_Á_Ë_916);
      }
    </style>
    <linearGradient id="_É_πÌÚ_·ÂÁ_Ì_Á_Ë_18" data-name="É‡‰¥πÌÚ ·ÂÁ Ì‡Á‚Ë 18" x1="624.64" y1="186.26" x2="624.64" y2="7.47" gradientUnits="userSpaceOnUse">
      <stop offset="0" stop-color="#150551"/>
      <stop offset="1" stop-color="#414587"/>
    </linearGradient>
    <linearGradient id="_É_πÌÚ_·ÂÁ_Ì_Á_Ë_18-2" data-name="É‡‰¥πÌÚ ·ÂÁ Ì‡Á‚Ë 18" x1="550.67" y1="200.89" x2="550.67" y2="12.55" xlink:href="#_É_πÌÚ_·ÂÁ_Ì_Á_Ë_18"/>
    <linearGradient id="_É_πÌÚ_·ÂÁ_Ì_Á_Ë_18-3" data-name="É‡‰¥πÌÚ ·ÂÁ Ì‡Á‚Ë 18" x1="696.86" y1="268.17" x2="696.86" y2="110.65" xlink:href="#_É_πÌÚ_·ÂÁ_Ì_Á_Ë_18"/>
    <linearGradient id="_É_πÌÚ_·ÂÁ_Ì_Á_Ë_18-4" data-name="É‡‰¥πÌÚ ·ÂÁ Ì‡Á‚Ë 18" x1="727.31" y1="204.12" x2="727.31" y2="19.97" xlink:href="#_É_πÌÚ_·ÂÁ_Ì_Á_Ë_18"/>
    <linearGradient id="_É_πÌÚ_·ÂÁ_Ì_Á_Ë_18-5" data-name="É‡‰¥πÌÚ ·ÂÁ Ì‡Á‚Ë 18" x1="783.64" y1="232.48" x2="783.64" y2="20.72" xlink:href="#_É_πÌÚ_·ÂÁ_Ì_Á_Ë_18"/>
    <linearGradient id="_É_πÌÚ_·ÂÁ_Ì_Á_Ë_18-6" data-name="É‡‰¥πÌÚ ·ÂÁ Ì‡Á‚Ë 18" x1="566.01" y1="224.2" x2="566.01" y2="56.65" xlink:href="#_É_πÌÚ_·ÂÁ_Ì_Á_Ë_18"/>
    <linearGradient id="_É_πÌÚ_·ÂÁ_Ì_Á_Ë_18-7" data-name="É‡‰¥πÌÚ ·ÂÁ Ì‡Á‚Ë 18" x1="494.18" y1="193.89" x2="494.18" y2="47.92" xlink:href="#_É_πÌÚ_·ÂÁ_Ì_Á_Ë_18"/>
    <linearGradient id="_É_πÌÚ_·ÂÁ_Ì_Á_Ë_18-8" data-name="É‡‰¥πÌÚ ·ÂÁ Ì‡Á‚Ë 18" x1="596.54" y1="316.99" x2="596.54" y2="68.75" xlink:href="#_É_πÌÚ_·ÂÁ_Ì_Á_Ë_18"/>
    <linearGradient id="_É_πÌÚ_·ÂÁ_Ì_Á_Ë_18-9" data-name="É‡‰¥πÌÚ ·ÂÁ Ì‡Á‚Ë 18" x1="942.56" y1="203.88" x2="942.56" y2="69.04" xlink:href="#_É_πÌÚ_·ÂÁ_Ì_Á_Ë_18"/>
    <linearGradient id="_É_πÌÚ_·ÂÁ_Ì_Á_Ë_18-10" data-name="É‡‰¥πÌÚ ·ÂÁ Ì‡Á‚Ë 18" x1="1150.29" y1="209.55" x2="1150.29" y2="74.69" gradientTransform="translate(.72 4.48) rotate(-.17)" xlink:href="#_É_πÌÚ_·ÂÁ_Ì_Á_Ë_18"/>
    <linearGradient id="_É_πÌÚ_·ÂÁ_Ì_Á_Ë_18-11" data-name="É‡‰¥πÌÚ ·ÂÁ Ì‡Á‚Ë 18" x1="909" y1="240.57" x2="901.53" y2="50.06" xlink:href="#_É_πÌÚ_·ÂÁ_Ì_Á_Ë_18"/>
    <linearGradient id="_É_πÌÚ_·ÂÁ_Ì_Á_Ë_18-12" data-name="É‡‰¥πÌÚ ·ÂÁ Ì‡Á‚Ë 18" x1="490.26" y1="276.45" x2="490.26" y2="83.97" xlink:href="#_É_πÌÚ_·ÂÁ_Ì_Á_Ë_18"/>
    <linearGradient id="_É_πÌÚ_·ÂÁ_Ì_Á_Ë_18-13" data-name="É‡‰¥πÌÚ ·ÂÁ Ì‡Á‚Ë 18" x1="672.79" y1="258.77" x2="672.79" y2="0" xlink:href="#_É_πÌÚ_·ÂÁ_Ì_Á_Ë_18"/>
    <linearGradient id="_É_πÌÚ_·ÂÁ_Ì_Á_Ë_18-14" data-name="É‡‰¥πÌÚ ·ÂÁ Ì‡Á‚Ë 18" x1="1519.51" y1="188.51" x2="1519.51" y2="30.19" gradientTransform="translate(2571.91) rotate(-180) scale(1 -1)" xlink:href="#_É_πÌÚ_·ÂÁ_Ì_Á_Ë_18"/>
    <linearGradient id="_É_πÌÚ_·ÂÁ_Ì_Á_Ë_18-15" data-name="É‡‰¥πÌÚ ·ÂÁ Ì‡Á‚Ë 18" x1="1464.01" y1="214.69" x2="1464.01" y2="61.3" gradientTransform="translate(2571.91) rotate(-180) scale(1 -1)" xlink:href="#_É_πÌÚ_·ÂÁ_Ì_Á_Ë_18"/>
    <linearGradient id="_É_πÌÚ_·ÂÁ_Ì_Á_Ë_18-16" data-name="É‡‰¥πÌÚ ·ÂÁ Ì‡Á‚Ë 18" x1="1603.62" y1="266.74" x2="1603.62" y2="127.24" gradientTransform="translate(2571.91) rotate(-180) scale(1 -1)" xlink:href="#_É_πÌÚ_·ÂÁ_Ì_Á_Ë_18"/>
    <linearGradient id="_É_πÌÚ_·ÂÁ_Ì_Á_Ë_18-17" data-name="É‡‰¥πÌÚ ·ÂÁ Ì‡Á‚Ë 18" x1="1479" y1="229.84" x2="1479" y2="93.39" gradientTransform="translate(2571.91) rotate(-180) scale(1 -1)" xlink:href="#_É_πÌÚ_·ÂÁ_Ì_Á_Ë_18"/>
    <linearGradient id="_É_πÌÚ_·ÂÁ_Ì_Á_Ë_18-18" data-name="É‡‰¥πÌÚ ·ÂÁ Ì‡Á‚Ë 18" x1="1439.68" y1="209.34" x2="1439.68" y2="93.84" gradientTransform="translate(2571.91) rotate(-180) scale(1 -1)" xlink:href="#_É_πÌÚ_·ÂÁ_Ì_Á_Ë_18"/>
    <linearGradient id="_É_πÌÚ_·ÂÁ_Ì_Á_Ë_18-19" data-name="É‡‰¥πÌÚ ·ÂÁ Ì‡Á‚Ë 18" x1="1507.82" y1="291.74" x2="1507.82" y2="89.58" gradientTransform="translate(2571.91) rotate(-180) scale(1 -1)" xlink:href="#_É_πÌÚ_·ÂÁ_Ì_Á_Ë_18"/>
    <linearGradient id="_É_πÌÚ_·ÂÁ_Ì_Á_Ë_18-20" data-name="É‡‰¥πÌÚ ·ÂÁ Ì‡Á‚Ë 18" x1="1164.28" y1="222.34" x2="1164.28" y2="137.33" gradientTransform="translate(2571.91) rotate(-180) scale(1 -1)" xlink:href="#_É_πÌÚ_·ÂÁ_Ì_Á_Ë_18"/>
    <linearGradient id="_É_πÌÚ_·ÂÁ_Ì_Á_Ë_18-21" data-name="É‡‰¥πÌÚ ·ÂÁ Ì‡Á‚Ë 18" x1="1154.11" y1="277.77" x2="1154.11" y2="169.22" gradientTransform="translate(2571.91) rotate(-180) scale(1 -1)" xlink:href="#_É_πÌÚ_·ÂÁ_Ì_Á_Ë_18"/>
    <linearGradient id="_É_πÌÚ_·ÂÁ_Ì_Á_Ë_18-22" data-name="É‡‰¥πÌÚ ·ÂÁ Ì‡Á‚Ë 18" x1="1424.55" y1="278.5" x2="1424.55" y2="166.72" gradientTransform="translate(2571.91) rotate(-180) scale(1 -1)" xlink:href="#_É_πÌÚ_·ÂÁ_Ì_Á_Ë_18"/>
    <linearGradient id="_É_πÌÚ_·ÂÁ_Ì_Á_Ë_18-23" data-name="É‡‰¥πÌÚ ·ÂÁ Ì‡Á‚Ë 18" x1="1562.43" y1="258.41" x2="1562.43" y2="10.58" gradientTransform="translate(2571.91) rotate(-180) scale(1 -1)" xlink:href="#_É_πÌÚ_·ÂÁ_Ì_Á_Ë_18"/>
    <linearGradient id="_É_πÌÚ_·ÂÁ_Ì_Á_Ë_18-24" data-name="É‡‰¥πÌÚ ·ÂÁ Ì‡Á‚Ë 18" x1="879.17" y1="284.77" x2="879.17" y2="61.92" xlink:href="#_É_πÌÚ_·ÂÁ_Ì_Á_Ë_18"/>
    <linearGradient id="_É_πÌÚ_·ÂÁ_Ì_Á_Ë_18-25" data-name="É‡‰¥πÌÚ ·ÂÁ Ì‡Á‚Ë 18" x1="764.21" y1="305.74" x2="764.21" y2="86.36" xlink:href="#_É_πÌÚ_·ÂÁ_Ì_Á_Ë_18"/>
    <linearGradient id="_É_πÌÚ_·ÂÁ_Ì_Á_Ë_18-26" data-name="É‡‰¥πÌÚ ·ÂÁ Ì‡Á‚Ë 18" x1="828.19" y1="227.14" x2="828.19" y2="-2.84" xlink:href="#_É_πÌÚ_·ÂÁ_Ì_Á_Ë_18"/>
    <linearGradient id="_É_πÌÚ_·ÂÁ_Ì_Á_Ë_18-27" data-name="É‡‰¥πÌÚ ·ÂÁ Ì‡Á‚Ë 18" x1="-1566.44" y1="275.43" x2="-1566.44" y2="172.06" gradientTransform="translate(-1284.64) rotate(-180) scale(1 -1)" xlink:href="#_É_πÌÚ_·ÂÁ_Ì_Á_Ë_18"/>
    <linearGradient id="_É_πÌÚ_·ÂÁ_Ì_Á_Ë_18-28" data-name="É‡‰¥πÌÚ ·ÂÁ Ì‡Á‚Ë 18" x1="-1543.78" y1="234.39" x2="-1543.78" y2="116.88" gradientTransform="translate(-1284.64) rotate(-180) scale(1 -1)" xlink:href="#_É_πÌÚ_·ÂÁ_Ì_Á_Ë_18"/>
    <linearGradient id="_É_πÌÚ_·ÂÁ_Ì_Á_Ë_18-29" data-name="É‡‰¥πÌÚ ·ÂÁ Ì‡Á‚Ë 18" x1="-1509.5" y1="252.01" x2="-1509.5" y2="113.05" gradientTransform="translate(-1284.64) rotate(-180) scale(1 -1)" xlink:href="#_É_πÌÚ_·ÂÁ_Ì_Á_Ë_18"/>
    <linearGradient id="_É_πÌÚ_·ÂÁ_Ì_Á_Ë_18-30" data-name="É‡‰¥πÌÚ ·ÂÁ Ì‡Á‚Ë 18" x1="-1421.53" y1="239.93" x2="-1421.53" y2="164.96" gradientTransform="translate(-1284.64) rotate(-180) scale(1 -1)" xlink:href="#_É_πÌÚ_·ÂÁ_Ì_Á_Ë_18"/>
    <linearGradient id="_É_πÌÚ_·ÂÁ_Ì_Á_Ë_18-31" data-name="É‡‰¥πÌÚ ·ÂÁ Ì‡Á‚Ë 18" x1="-1436.85" y1="258.8" x2="-1441.36" y2="143.83" gradientTransform="translate(-1284.64) rotate(-180) scale(1 -1)" xlink:href="#_É_πÌÚ_·ÂÁ_Ì_Á_Ë_18"/>
    <linearGradient id="_É_πÌÚ_·ÂÁ_Ì_Á_Ë_18-32" data-name="É‡‰¥πÌÚ ·ÂÁ Ì‡Á‚Ë 18" x1="-1583.6" y1="269.26" x2="-1583.6" y2="85.61" gradientTransform="translate(-1284.64) rotate(-180) scale(1 -1)" xlink:href="#_É_πÌÚ_·ÂÁ_Ì_Á_Ë_18"/>
    <linearGradient id="_É_πÌÚ_·ÂÁ_Ì_Á_Ë_18-33" data-name="É‡‰¥πÌÚ ·ÂÁ Ì‡Á‚Ë 18" x1="-1309.43" y1="265.25" x2="-1309.43" y2="163.48" gradientTransform="translate(-1284.64) rotate(-180) scale(1 -1)" xlink:href="#_É_πÌÚ_·ÂÁ_Ì_Á_Ë_18"/>
    <linearGradient id="_É_πÌÚ_·ÂÁ_Ì_Á_Ë_18-34" data-name="É‡‰¥πÌÚ ·ÂÁ Ì‡Á‚Ë 18" x1="3979.14" y1="274.87" x2="3979.14" y2="197.32" gradientTransform="translate(-3856.55)" xlink:href="#_É_πÌÚ_·ÂÁ_Ì_Á_Ë_18"/>
    <linearGradient id="_É_πÌÚ_·ÂÁ_Ì_Á_Ë_18-35" data-name="É‡‰¥πÌÚ ·ÂÁ Ì‡Á‚Ë 18" x1="3956.24" y1="270.24" x2="3956.24" y2="132.47" gradientTransform="translate(-3856.55)" xlink:href="#_É_πÌÚ_·ÂÁ_Ì_Á_Ë_18"/>
    <linearGradient id="_É_πÌÚ_·ÂÁ_Ì_Á_Ë_18-36" data-name="É‡‰¥πÌÚ ·ÂÁ Ì‡Á‚Ë 18" x1="-1454.86" y1="285.48" x2="-1454.86" y2="150.99" gradientTransform="translate(-1284.64) rotate(-180) scale(1 -1)" xlink:href="#_É_πÌÚ_·ÂÁ_Ì_Á_Ë_18"/>
    <linearGradient id="_É_πÌÚ_·ÂÁ_Ì_Á_Ë_18-37" data-name="É‡‰¥πÌÚ ·ÂÁ Ì‡Á‚Ë 18" x1="-1522.25" y1="300.09" x2="-1522.25" y2="156.13" gradientTransform="translate(-1284.64) rotate(-180) scale(1 -1)" xlink:href="#_É_πÌÚ_·ÂÁ_Ì_Á_Ë_18"/>
    <linearGradient id="_É_πÌÚ_·ÂÁ_Ì_Á_Ë_18-38" data-name="É‡‰¥πÌÚ ·ÂÁ Ì‡Á‚Ë 18" x1="-1480.27" y1="247" x2="-1480.27" y2="85.1" gradientTransform="translate(-1284.64) rotate(-180) scale(1 -1)" xlink:href="#_É_πÌÚ_·ÂÁ_Ì_Á_Ë_18"/>
    <linearGradient id="_É_πÌÚ_·ÂÁ_Ì_Á_Ë_18-39" data-name="É‡‰¥πÌÚ ·ÂÁ Ì‡Á‚Ë 18" x1="-969.84" y1="248.28" x2="-969.84" y2="62.81" gradientTransform="translate(-531.97) rotate(-180) scale(1 -1)" xlink:href="#_É_πÌÚ_·ÂÁ_Ì_Á_Ë_18"/>
    <linearGradient id="_É_πÌÚ_·ÂÁ_Ì_Á_Ë_18-40" data-name="É‡‰¥πÌÚ ·ÂÁ Ì‡Á‚Ë 18" x1="-850.79" y1="229.28" x2="-850.79" y2="123.75" gradientTransform="translate(-531.97) rotate(-180) scale(1 -1)" xlink:href="#_É_πÌÚ_·ÂÁ_Ì_Á_Ë_18"/>
    <linearGradient id="_É_πÌÚ_·ÂÁ_Ì_Á_Ë_18-41" data-name="É‡‰¥πÌÚ ·ÂÁ Ì‡Á‚Ë 18" x1="-872.88" y1="257.35" x2="-878.9" y2="103.89" gradientTransform="translate(-531.97) rotate(-180) scale(1 -1)" xlink:href="#_É_πÌÚ_·ÂÁ_Ì_Á_Ë_18"/>
    <linearGradient id="_É_πÌÚ_·ÂÁ_Ì_Á_Ë_18-42" data-name="É‡‰¥πÌÚ ·ÂÁ Ì‡Á‚Ë 18" x1="-1327.41" y1="276.58" x2="-1327.41" y2="204.28" gradientTransform="translate(-1284.64) rotate(-180) scale(1 -1)" xlink:href="#_É_πÌÚ_·ÂÁ_Ì_Á_Ë_18"/>
    <linearGradient id="_É_πÌÚ_·ÂÁ_Ì_Á_Ë_18-43" data-name="É‡‰¥πÌÚ ·ÂÁ Ì‡Á‚Ë 18" x1="-1316.66" y1="236.46" x2="-1316.66" y2="154.27" gradientTransform="translate(-1284.64) rotate(-180) scale(1 -1)" xlink:href="#_É_πÌÚ_·ÂÁ_Ì_Á_Ë_18"/>
    <linearGradient id="_É_πÌÚ_·ÂÁ_Ì_Á_Ë_18-44" data-name="É‡‰¥πÌÚ ·ÂÁ Ì‡Á‚Ë 18" x1="-1339.41" y1="272.26" x2="-1339.41" y2="143.81" gradientTransform="translate(-1284.64) rotate(-180) scale(1 -1)" xlink:href="#_É_πÌÚ_·ÂÁ_Ì_Á_Ë_18"/>
    <linearGradient id="_É_πÌÚ_·ÂÁ_Ì_Á_Ë_18-45" data-name="É‡‰¥πÌÚ ·ÂÁ Ì‡Á‚Ë 18" x1="-600.63" y1="258.76" x2="-600.63" y2="184.95" gradientTransform="translate(-531.97) rotate(-180) scale(1 -1)" xlink:href="#_É_πÌÚ_·ÂÁ_Ì_Á_Ë_18"/>
    <linearGradient id="_É_πÌÚ_·ÂÁ_Ì_Á_Ë_18-46" data-name="É‡‰¥πÌÚ ·ÂÁ Ì‡Á‚Ë 18" x1="-616.71" y1="247.77" x2="-620.92" y2="140.45" gradientTransform="translate(-531.97) rotate(-180) scale(1 -1)" xlink:href="#_É_πÌÚ_·ÂÁ_Ì_Á_Ë_18"/>
    <linearGradient id="_É_πÌÚ_·ÂÁ_Ì_Á_Ë_18-47" data-name="É‡‰¥πÌÚ ·ÂÁ Ì‡Á‚Ë 18" x1="-896.91" y1="292.95" x2="-896.91" y2="113.44" gradientTransform="translate(-531.97) rotate(-180) scale(1 -1)" xlink:href="#_É_πÌÚ_·ÂÁ_Ì_Á_Ë_18"/>
    <linearGradient id="_É_πÌÚ_·ÂÁ_Ì_Á_Ë_18-48" data-name="É‡‰¥πÌÚ ·ÂÁ Ì‡Á‚Ë 18" x1="454.88" y1="191.09" x2="454.88" y2="29.8" xlink:href="#_É_πÌÚ_·ÂÁ_Ì_Á_Ë_18"/>
    <linearGradient id="_É_πÌÚ_·ÂÁ_Ì_Á_Ë_18-49" data-name="É‡‰¥πÌÚ ·ÂÁ Ì‡Á‚Ë 18" x1="398.85" y1="268.32" x2="398.85" y2="44" xlink:href="#_É_πÌÚ_·ÂÁ_Ì_Á_Ë_18"/>
    <linearGradient id="_É_πÌÚ_·ÂÁ_Ì_Á_Ë_18-50" data-name="É‡‰¥πÌÚ ·ÂÁ Ì‡Á‚Ë 18" x1="2321.42" y1="259.8" x2="2321.42" y2="134.02" gradientTransform="translate(3486.17) rotate(-180) scale(1 -1)" xlink:href="#_É_πÌÚ_·ÂÁ_Ì_Á_Ë_18"/>
    <linearGradient id="_É_πÌÚ_·ÂÁ_Ì_Á_Ë_18-51" data-name="É‡‰¥πÌÚ ·ÂÁ Ì‡Á‚Ë 18" x1="-3439.77" y1="276.03" x2="-3439.77" y2="187.31" gradientTransform="translate(4770.81)" xlink:href="#_É_πÌÚ_·ÂÁ_Ì_Á_Ë_18"/>
    <linearGradient id="_É_πÌÚ_·ÂÁ_Ì_Á_Ë_18-52" data-name="É‡‰¥πÌÚ ·ÂÁ Ì‡Á‚Ë 18" x1="-3421.31" y1="237.22" x2="-3421.31" y2="136.35" gradientTransform="translate(4770.81)" xlink:href="#_É_πÌÚ_·ÂÁ_Ì_Á_Ë_18"/>
    <linearGradient id="_É_πÌÚ_·ÂÁ_Ì_Á_Ë_18-53" data-name="É‡‰¥πÌÚ ·ÂÁ Ì‡Á‚Ë 18" x1="-3380.91" y1="249.15" x2="-3380.91" y2="129.88" gradientTransform="translate(4770.81)" xlink:href="#_É_πÌÚ_·ÂÁ_Ì_Á_Ë_18"/>
    <linearGradient id="_É_πÌÚ_·ÂÁ_Ì_Á_Ë_18-54" data-name="É‡‰¥πÌÚ ·ÂÁ Ì‡Á‚Ë 18" x1="-3457.44" y1="272.94" x2="-3457.44" y2="115.3" gradientTransform="translate(4770.81)" xlink:href="#_É_πÌÚ_·ÂÁ_Ì_Á_Ë_18"/>
    <linearGradient id="_É_πÌÚ_·ÂÁ_Ì_Á_Ë_18-55" data-name="É‡‰¥πÌÚ ·ÂÁ Ì‡Á‚Ë 18" x1="-3401.73" y1="295.5" x2="-3401.73" y2="171.93" gradientTransform="translate(4770.81)" xlink:href="#_É_πÌÚ_·ÂÁ_Ì_Á_Ë_18"/>
    <linearGradient id="_É_πÌÚ_·ÂÁ_Ì_Á_Ë_18-56" data-name="É‡‰¥πÌÚ ·ÂÁ Ì‡Á‚Ë 18" x1="-2813.23" y1="251.67" x2="-2813.23" y2="86.53" gradientTransform="translate(4018.13)" xlink:href="#_É_πÌÚ_·ÂÁ_Ì_Á_Ë_18"/>
    <linearGradient id="_É_πÌÚ_·ÂÁ_Ì_Á_Ë_18-57" data-name="É‡‰¥πÌÚ ·ÂÁ Ì‡Á‚Ë 18" x1="-2721.83" y1="233.06" x2="-2721.83" y2="142.48" gradientTransform="translate(4018.13)" xlink:href="#_É_πÌÚ_·ÂÁ_Ì_Á_Ë_18"/>
    <linearGradient id="_É_πÌÚ_·ÂÁ_Ì_Á_Ë_18-58" data-name="É‡‰¥πÌÚ ·ÂÁ Ì‡Á‚Ë 18" x1="-2741.9" y1="256" x2="-2747.07" y2="124.29" gradientTransform="translate(4018.13)" xlink:href="#_É_πÌÚ_·ÂÁ_Ì_Á_Ë_18"/>
    <linearGradient id="_É_πÌÚ_·ÂÁ_Ì_Á_Ë_18-59" data-name="É‡‰¥πÌÚ ·ÂÁ Ì‡Á‚Ë 18" x1="-2761.06" y1="290.85" x2="-2761.06" y2="136.77" gradientTransform="translate(4018.13)" xlink:href="#_É_πÌÚ_·ÂÁ_Ì_Á_Ë_18"/>
    <linearGradient id="_É_πÌÚ_·ÂÁ_Ì_Á_Ë_18-60" data-name="É‡‰¥πÌÚ ·ÂÁ Ì‡Á‚Ë 18" x1="2296.42" y1="213.85" x2="2296.42" y2="70.24" gradientTransform="translate(3486.17) rotate(-180) scale(1 -1)" xlink:href="#_É_πÌÚ_·ÂÁ_Ì_Á_Ë_18"/>
    <linearGradient id="_É_πÌÚ_·ÂÁ_Ì_Á_Ë_18-61" data-name="É‡‰¥πÌÚ ·ÂÁ Ì‡Á‚Ë 18" x1="2251.79" y1="232.87" x2="2251.79" y2="62.21" gradientTransform="translate(3486.17) rotate(-180) scale(1 -1)" xlink:href="#_É_πÌÚ_·ÂÁ_Ì_Á_Ë_18"/>
    <linearGradient id="_É_πÌÚ_·ÂÁ_Ì_Á_Ë_18-62" data-name="É‡‰¥πÌÚ ·ÂÁ Ì‡Á‚Ë 18" x1="1149.42" y1="235.1" x2="1149.42" y2="153.21" gradientTransform="translate(2571.91) rotate(-180) scale(1 -1)" xlink:href="#_É_πÌÚ_·ÂÁ_Ì_Á_Ë_18"/>
    <linearGradient id="_É_πÌÚ_·ÂÁ_Ì_Á_Ë_18-63" data-name="É‡‰¥πÌÚ ·ÂÁ Ì‡Á‚Ë 18" x1="1143.55" y1="216.41" x2="1143.55" y2="124.61" gradientTransform="translate(2571.91) rotate(-180) scale(1 -1)" xlink:href="#_É_πÌÚ_·ÂÁ_Ì_Á_Ë_18"/>
    <clipPath id="clippath">
      <rect class="cls-1" x="0" y="130.45" width="49.83" height="162.6"/>
    </clipPath>
    <linearGradient id="_É_πÌÚ_·ÂÁ_Ì_Á_Ë_18-64" data-name="É‡‰¥πÌÚ ·ÂÁ Ì‡Á‚Ë 18" x1="-1297.47" y1="273.88" x2="-1297.47" y2="209.11" gradientTransform="translate(-1284.64) rotate(-180) scale(1 -1)" xlink:href="#_É_πÌÚ_·ÂÁ_Ì_Á_Ë_18"/>
    <linearGradient id="_É_πÌÚ_·ÂÁ_Ì_Á_Ë_18-65" data-name="É‡‰¥πÌÚ ·ÂÁ Ì‡Á‚Ë 18" x1="-1284.64" y1="247.17" x2="-1284.64" y2="179.28" gradientTransform="translate(-1284.64) rotate(-180) scale(1 -1)" xlink:href="#_É_πÌÚ_·ÂÁ_Ì_Á_Ë_18"/>
    <linearGradient id="_É_πÌÚ_·ÂÁ_Ì_Á_Ë_916" data-name="É‡‰¥πÌÚ ·ÂÁ Ì‡Á‚Ë 916" x1="720" y1="690.15" x2="720" y2="225.16" gradientUnits="userSpaceOnUse">
      <stop offset="0" stop-color="#464b89"/>
      <stop offset=".38" stop-color="#393a7c"/>
      <stop offset="1" stop-color="#1f1860"/>
    </linearGradient>
  </defs>
  <g id="_ò__1" data-name="ò‡_1">
    <g>
      <g>
        <polygon class="cls-67" points="576.28 227.41 580.53 209.55 607.86 179.24 586.08 186.17 590.24 168.62 603.96 153.42 593.03 156.89 596.58 141.91 612.34 116.66 601.41 121.59 604.87 107.03 617.3 87.1 608.67 90.99 615.06 64.11 622.52 55.84 616.57 57.73 620.26 42.2 625.42 36.47 621.31 37.78 630.09 .79 639.28 47.53 633.93 45.22 640.91 55.78 647.71 90.35 637.35 85.89 650.84 106.27 653.48 119.7 642.82 116.66 655.38 129.36 659.54 150.47 646.79 146.84 661.8 162.01 666.82 187.51 644.99 181.29 670.71 207.28 676.07 234.53 661.46 230.36 678.67 247.76 682.8 268.76 566.47 268.76 569.7 255.16 602.13 219.19 576.28 227.41"/>
        <polygon class="cls-8" points="596 223.01 592.02 206.26 566.4 177.84 586.82 184.34 582.91 167.89 570.06 153.63 580.3 156.89 576.97 142.85 562.2 119.17 572.44 123.79 569.2 110.14 557.55 91.46 565.63 95.1 559.65 69.9 552.66 62.15 558.23 63.92 554.77 49.36 549.94 44 553.79 45.22 545.56 10.54 536.94 54.36 541.96 52.2 535.41 62.09 529.04 94.5 538.75 90.33 526.1 109.44 523.63 122.02 533.62 119.17 521.84 131.08 517.95 150.87 529.89 147.47 515.82 161.69 511.12 185.6 531.58 179.76 507.47 204.13 502.45 229.68 516.15 225.77 500.01 242.09 496.14 261.77 605.2 261.77 602.18 249.02 571.77 215.3 596 223.01"/>
        <polygon class="cls-7" points="683.25 199.35 656.27 208.19 661.97 183.46 686.21 155.76 666.89 162.09 671.62 141.6 685.9 118.02 675.99 122.62 681.04 100.72 685.9 92.69 682.53 94.26 686.13 78.62 695.77 67.6 688.09 70.12 692.28 51.94 695.77 47.95 692.99 48.86 701.76 10.79 710.38 55.94 705.81 53.91 711.77 63.18 714.91 79.63 705.81 75.6 717.66 94.05 719.83 105.4 708.95 100.58 723.12 122.63 727.41 145.1 708.24 139.47 730.82 162.99 733.82 178.7 709.53 171.57 738.15 201.37 741.02 216.41 719.02 209.95 744.94 236.95 749.11 258.77 644.61 258.77 649.4 238.03 683.25 199.35"/>
        <polygon class="cls-10" points="740.59 200.8 766.91 209.43 761.35 185.3 737.71 158.29 756.55 164.46 751.94 144.47 738.01 121.47 747.68 125.96 742.75 104.59 734.36 96.85 741.3 98.29 737.78 83.04 731.48 73.91 735.87 74.75 731.79 57.02 728.38 53.12 731.09 54.01 722.54 16.87 714.13 60.91 718.59 58.93 712.78 67.98 709.71 84.02 718.59 80.09 707.03 98.09 704.92 109.16 715.52 104.45 701.71 125.97 697.52 147.89 716.22 142.4 694.19 165.34 691.26 180.67 714.96 173.71 687.04 202.78 684.24 217.45 705.71 211.14 680.41 237.48 676.35 258.77 778.28 258.77 773.62 238.54 740.59 200.8"/>
        <polygon class="cls-9" points="827.07 220.51 823.26 203.98 798.71 175.93 818.28 182.34 814.54 166.11 802.22 152.03 812.03 155.25 808.84 141.39 794.69 118.02 804.51 122.58 801.4 109.1 790.23 90.67 797.98 94.26 792.25 69.39 785.55 61.73 790.89 63.48 787.57 49.11 782.94 43.81 786.63 45.03 778.74 10.79 770.48 54.05 775.3 51.91 769.03 61.68 762.92 93.67 772.22 89.54 760.1 108.41 757.73 120.83 767.31 118.02 756.03 129.77 752.29 149.31 763.74 145.95 750.26 159.99 745.75 183.58 765.36 177.83 742.26 201.88 737.44 227.1 750.57 223.24 735.1 239.34 731.39 258.77 835.89 258.77 832.99 246.19 803.86 212.9 827.07 220.51"/>
        <polygon class="cls-3" points="528.36 229.58 531.66 215.67 552.94 192.07 535.99 197.47 539.23 183.81 549.91 171.97 541.4 174.68 544.17 163.01 556.43 143.35 547.92 147.19 550.62 135.85 560.29 120.34 553.58 123.36 558.55 102.44 564.36 96 559.73 97.47 562.6 85.38 566.62 80.92 563.42 81.94 570.25 53.14 577.41 89.53 573.24 87.73 578.67 95.95 583.97 122.87 575.91 119.4 586.41 135.27 588.47 145.72 580.16 143.35 589.94 153.24 593.18 169.68 583.26 166.85 594.95 178.66 598.85 198.51 581.86 193.67 601.88 213.9 606.05 235.12 594.67 231.88 608.08 245.42 611.29 261.77 520.72 261.77 523.23 251.18 548.49 223.18 528.36 229.58"/>
        <polygon class="cls-5" points="455.43 228.43 458.83 214.12 480.74 189.83 463.28 195.38 466.62 181.32 477.61 169.14 468.85 171.92 471.7 159.92 484.33 139.69 475.57 143.63 478.34 131.96 488.3 116 481.39 119.11 486.5 97.57 492.48 90.94 487.72 92.46 490.67 80.01 494.81 75.43 491.51 76.48 498.55 46.83 505.92 84.29 501.62 82.44 507.22 90.9 512.67 118.6 504.37 115.03 515.18 131.36 517.29 142.12 508.75 139.69 518.82 149.86 522.15 166.78 511.94 163.87 523.96 176.03 527.98 196.46 510.49 191.47 531.1 212.3 535.4 234.14 523.69 230.8 537.48 244.74 540.79 261.56 447.57 261.56 450.16 250.67 476.15 221.84 455.43 228.43"/>
        <polygon class="cls-4" points="636.59 228.77 633.07 213.97 610.43 188.86 628.48 194.6 625.03 180.07 613.67 167.47 622.72 170.35 619.77 157.94 606.72 137.03 615.77 141.11 612.91 129.05 602.61 112.54 609.76 115.76 604.47 93.5 598.29 86.64 603.22 88.21 600.16 75.34 595.89 70.61 599.29 71.69 592.02 41.05 584.4 79.77 588.84 77.85 583.06 86.6 577.43 115.23 586 111.54 574.83 128.42 572.64 139.55 581.48 137.03 571.07 147.55 567.63 165.04 578.18 162.03 565.75 174.59 561.59 195.71 579.67 190.56 558.37 212.09 553.93 234.66 566.04 231.21 551.78 245.62 548.35 263.01 644.72 263.01 642.04 251.75 615.18 221.95 636.59 228.77"/>
        <polygon class="cls-6" points="976.05 228.08 973.11 215.33 954.18 193.7 969.26 198.65 966.38 186.13 956.88 175.28 964.45 177.76 961.99 167.07 951.07 149.05 958.64 152.56 956.25 142.17 947.64 127.95 953.61 130.73 949.19 111.54 944.02 105.64 948.14 106.99 945.59 95.91 942.01 91.82 944.86 92.76 938.78 66.36 932.41 99.72 936.12 98.07 931.29 105.6 926.58 130.27 933.75 127.09 924.41 141.63 922.58 151.22 929.96 149.05 921.26 158.11 918.38 173.18 927.21 170.58 916.81 181.41 913.34 199.6 928.46 195.16 910.64 213.71 906.93 233.16 917.05 230.18 905.13 242.6 902.27 257.58 982.85 257.58 980.61 247.88 958.14 222.21 976.05 228.08"/>
        <polygon class="cls-56" points="1185.19 234.68 1182.21 221.94 1163.2 200.36 1178.31 205.27 1175.38 192.75 1165.84 181.93 1173.42 184.39 1170.92 173.7 1159.94 155.71 1167.53 159.21 1165.1 148.82 1156.44 134.63 1162.42 137.39 1157.93 118.22 1152.75 112.33 1156.87 113.67 1154.28 102.59 1150.69 98.52 1153.54 99.44 1147.36 73.06 1141.11 106.43 1144.82 104.78 1140.01 112.32 1135.38 137 1142.54 133.8 1133.25 148.37 1131.46 157.96 1138.84 155.77 1130.16 164.85 1127.34 179.93 1136.15 177.31 1125.8 188.17 1122.38 206.37 1137.49 201.89 1119.74 220.48 1116.09 239.94 1126.2 236.94 1114.32 249.39 1111.51 264.38 1192.09 264.16 1189.82 254.47 1167.27 228.86 1185.19 234.68"/>
        <polygon class="cls-54" points="949.03 233.42 945.62 218.59 923.59 193.42 941.14 199.17 937.79 184.61 926.73 171.98 935.54 174.87 932.67 162.43 919.98 141.47 928.79 145.55 926 133.47 915.98 116.92 922.93 120.15 917.79 97.83 911.78 90.97 916.57 92.54 913.6 79.64 909.44 74.89 912.75 75.98 905.67 45.26 898.26 84.07 902.58 82.16 896.96 90.92 891.48 119.62 899.82 115.92 888.95 132.84 886.82 143.99 895.42 141.47 885.29 152.01 881.94 169.54 892.21 166.52 880.11 179.12 876.07 200.29 893.66 195.12 872.94 216.7 868.62 239.33 880.39 235.87 866.52 250.31 863.19 267.74 956.94 267.74 954.34 256.46 928.2 226.59 949.03 233.42"/>
        <polygon class="cls-57" points="520.62 230.52 517.95 219.31 500.79 200.28 514.47 204.63 511.85 193.62 503.24 184.07 510.1 186.25 507.87 176.84 497.98 160.99 504.84 164.08 502.67 154.94 494.87 142.43 500.28 144.87 496.27 128 491.59 122.81 495.32 123.99 493.01 114.24 489.77 110.65 492.35 111.47 486.84 88.25 481.06 117.59 484.43 116.14 480.05 122.77 475.78 144.47 482.28 141.67 473.81 154.47 472.15 162.9 478.85 160.99 470.96 168.97 468.35 182.22 476.35 179.94 466.92 189.46 463.78 205.47 477.48 201.56 461.33 217.88 457.97 234.99 467.14 232.38 456.33 243.3 453.74 256.48 526.78 256.48 524.75 247.94 504.39 225.36 520.62 230.52"/>
        <polygon class="cls-59" points="627.47 218.85 631.45 201.6 657.07 172.33 636.65 179.02 640.55 162.08 653.41 147.39 643.16 150.75 646.5 136.28 661.27 111.9 651.02 116.65 654.26 102.59 665.92 83.35 657.83 87.1 663.81 61.15 670.81 53.16 665.23 54.98 668.69 39.99 673.53 34.46 669.67 35.72 677.9 0 686.52 45.14 681.5 42.91 688.04 53.1 694.42 86.49 684.71 82.18 697.35 101.87 699.83 114.83 689.83 111.9 701.61 124.16 705.5 144.55 693.56 141.04 707.63 155.69 712.33 180.31 691.87 174.3 715.98 199.4 721 225.72 707.31 221.7 723.44 238.5 727.31 258.77 618.27 258.77 621.3 245.64 651.7 210.91 627.47 218.85"/>
        <polygon class="cls-60" points="1095.22 224.95 1091.46 209.13 1067.26 182.29 1086.55 188.43 1082.86 172.89 1070.72 159.43 1080.39 162.51 1077.24 149.24 1063.29 126.88 1072.97 131.24 1069.91 118.35 1058.9 100.7 1066.54 104.14 1060.89 80.34 1054.28 73.02 1059.54 74.69 1056.28 60.94 1051.71 55.87 1055.35 57.03 1047.57 24.27 1039.43 65.66 1044.18 63.62 1037.99 72.96 1031.97 103.58 1041.14 99.63 1029.2 117.68 1026.86 129.57 1036.3 126.88 1025.18 138.12 1021.5 156.82 1032.78 153.6 1019.49 167.04 1015.05 189.62 1034.38 184.11 1011.6 207.12 1006.86 231.25 1019.8 227.56 1004.55 242.97 1000.89 261.56 1103.91 261.56 1101.05 249.52 1072.33 217.67 1095.22 224.95"/>
        <polygon class="cls-55" points="1070.98 232.7 1074.22 219.07 1095.09 195.92 1078.46 201.21 1081.64 187.82 1092.11 176.21 1083.77 178.86 1086.48 167.42 1098.51 148.14 1090.17 151.9 1092.81 140.79 1102.3 125.57 1095.71 128.54 1100.58 108.02 1106.28 101.7 1101.74 103.14 1104.56 91.29 1108.5 86.92 1105.36 87.92 1112.06 59.67 1119.08 95.36 1114.99 93.6 1120.32 101.66 1125.51 128.05 1117.61 124.65 1127.91 140.21 1129.92 150.46 1121.78 148.14 1131.37 157.84 1134.55 173.96 1124.82 171.19 1136.28 182.77 1140.11 202.24 1123.44 197.49 1143.08 217.33 1147.17 238.14 1136.01 234.96 1149.16 248.24 1152.31 264.27 1063.49 264.27 1065.95 253.89 1090.72 226.43 1070.98 232.7"/>
        <polygon class="cls-63" points="980.34 205.79 1004.23 213.62 999.18 191.72 977.72 167.19 994.82 172.8 990.64 154.65 978 133.77 986.77 137.85 982.3 118.45 978 111.34 980.98 112.73 977.79 98.88 969.25 89.13 976.06 91.36 972.35 75.26 969.25 71.72 971.72 72.53 963.95 38.82 956.31 78.8 960.36 77 955.09 85.21 952.31 99.78 960.36 96.21 949.87 112.54 947.95 122.6 957.58 118.33 945.04 137.85 941.24 157.76 958.21 152.77 938.21 173.59 935.56 187.51 957.07 181.19 931.72 207.58 929.18 220.9 948.67 215.18 925.71 239.09 922.02 258.41 1014.55 258.41 1010.32 240.04 980.34 205.79"/>
        <polygon class="cls-64" points="1123.56 234.22 1120.88 222.9 1103.54 203.68 1117.36 208.07 1114.71 196.95 1106.02 187.3 1112.95 189.51 1110.69 180.01 1100.7 164 1107.63 167.12 1105.44 157.89 1097.56 145.26 1103.03 147.72 1098.98 130.68 1094.25 125.43 1098.02 126.63 1095.68 116.78 1092.41 113.15 1095.02 113.98 1089.45 90.53 1083.62 120.17 1087.02 118.7 1082.59 125.39 1078.28 147.31 1084.84 144.49 1076.29 157.41 1074.62 165.93 1081.38 164 1073.41 172.05 1070.78 185.44 1078.86 183.14 1069.34 192.75 1066.16 208.92 1080 204.97 1063.69 221.45 1060.29 238.73 1069.56 236.09 1058.64 247.13 1056.03 260.44 1129.79 260.44 1127.74 251.82 1107.17 229.01 1123.56 234.22"/>
        <polygon class="cls-66" points="1162.89 236.67 1160.2 225.35 1142.87 206.13 1156.68 210.52 1154.04 199.4 1145.35 189.75 1152.27 191.96 1150.02 182.46 1140.03 166.45 1146.96 169.57 1144.77 160.34 1136.89 147.71 1142.35 150.17 1138.31 133.13 1133.58 127.88 1137.35 129.08 1135.01 119.23 1131.74 115.6 1134.34 116.43 1128.78 92.98 1122.94 122.62 1126.34 121.15 1121.92 127.84 1117.6 149.76 1124.17 146.94 1115.62 159.86 1113.94 168.38 1120.71 166.45 1112.74 174.5 1110.1 187.89 1118.18 185.58 1108.67 195.2 1105.49 211.37 1119.33 207.42 1103.02 223.9 1099.62 241.18 1108.89 238.54 1097.97 249.57 1095.35 262.89 1169.11 262.89 1167.07 254.27 1146.5 231.46 1162.89 236.67"/>
        <polygon class="cls-65" points="1031.47 233.67 1034.33 221.62 1052.77 201.18 1038.08 205.85 1040.89 194.02 1050.14 183.76 1042.76 186.1 1045.16 175.99 1055.79 158.96 1048.42 162.28 1050.75 152.46 1059.14 139.02 1053.32 141.64 1057.63 123.51 1062.66 117.93 1058.65 119.2 1061.13 108.73 1064.62 104.87 1061.84 105.75 1067.77 80.79 1073.97 112.33 1070.35 110.77 1075.06 117.89 1079.65 141.21 1072.67 138.2 1081.76 151.95 1083.55 161.01 1076.35 158.96 1084.83 167.53 1087.63 181.77 1079.04 179.32 1089.16 189.55 1092.54 206.75 1077.82 202.56 1095.17 220.09 1098.78 238.47 1088.93 235.66 1100.54 247.4 1103.33 261.56 1024.85 261.56 1027.03 252.39 1048.91 228.13 1031.47 233.67"/>
        <polygon class="cls-41" points="1430.62 241.91 1428.6 233.41 1415.6 219 1425.96 222.3 1423.98 213.95 1417.46 206.72 1422.65 208.38 1420.96 201.25 1413.47 189.25 1418.67 191.59 1417.03 184.67 1411.11 175.19 1415.22 177.04 1412.18 164.26 1408.63 160.33 1411.46 161.23 1409.71 153.84 1407.25 151.12 1409.21 151.75 1405.03 134.16 1400.66 156.38 1403.21 155.28 1399.89 160.3 1396.66 176.74 1401.58 174.62 1395.17 184.31 1393.91 190.69 1398.98 189.25 1393.01 195.29 1391.03 205.33 1397.09 203.6 1389.95 210.81 1387.57 222.93 1397.95 219.98 1385.72 232.33 1383.17 245.29 1390.12 243.31 1381.93 251.58 1379.97 261.56 1435.28 261.56 1433.75 255.1 1418.33 238 1430.62 241.91"/>
        <polygon class="cls-35" points="1400.28 246.59 1401.82 240.12 1411.72 229.14 1403.83 231.65 1405.34 225.3 1410.3 219.79 1406.34 221.05 1407.63 215.62 1413.34 206.47 1409.38 208.26 1410.63 202.98 1415.14 195.77 1412.01 197.18 1414.32 187.44 1417.03 184.44 1414.87 185.13 1416.21 179.5 1418.08 177.43 1416.59 177.9 1419.77 164.51 1423.1 181.44 1421.16 180.6 1423.69 184.42 1426.15 196.94 1422.4 195.33 1427.28 202.71 1428.24 207.58 1424.38 206.47 1428.93 211.07 1430.43 218.72 1425.82 217.41 1431.26 222.9 1433.07 232.14 1425.17 229.88 1434.48 239.3 1436.42 249.17 1431.13 247.66 1437.37 253.96 1438.86 261.56 1396.73 261.56 1397.89 256.64 1409.64 243.61 1400.28 246.59"/>
        <polygon class="cls-42" points="1123.34 242.16 1125.44 233.28 1139.02 218.22 1128.2 221.67 1130.27 212.95 1137.08 205.4 1131.65 207.12 1133.42 199.68 1141.25 187.14 1135.82 189.58 1137.53 182.35 1143.71 172.45 1139.43 174.38 1142.6 161.03 1146.3 156.92 1143.35 157.86 1145.18 150.15 1147.74 147.3 1145.7 147.95 1150.06 129.58 1154.63 152.8 1151.97 151.65 1155.44 156.89 1158.82 174.07 1153.67 171.85 1160.37 181.98 1161.68 188.65 1156.39 187.14 1162.63 193.45 1164.69 203.93 1158.36 202.13 1165.82 209.67 1168.31 222.33 1157.47 219.24 1170.24 232.15 1172.91 245.69 1165.65 243.62 1174.2 252.26 1176.25 262.69 1118.46 262.69 1120.06 255.94 1136.18 238.07 1123.34 242.16"/>
        <polygon class="cls-43" points="1052.88 220.18 1049.08 203.66 1024.54 175.62 1044.09 182.03 1040.35 165.81 1028.04 151.74 1037.85 154.96 1034.66 141.1 1020.52 117.75 1030.33 122.3 1027.23 108.84 1016.07 90.41 1023.81 94 1018.08 69.14 1011.38 61.49 1016.72 63.24 1013.41 48.88 1008.78 43.59 1012.47 44.8 1004.58 10.58 996.33 53.81 1001.14 51.68 994.87 61.44 988.77 93.41 998.06 89.29 985.96 108.14 983.58 120.56 993.16 117.75 981.88 129.49 978.15 149.02 989.59 145.66 976.11 159.69 971.61 183.27 991.2 177.52 968.12 201.55 963.31 226.76 976.42 222.9 960.97 239 957.26 258.41 1061.7 258.41 1058.8 245.84 1029.68 212.57 1052.88 220.18"/>
        <polygon class="cls-39" points="921.18 220.9 917.49 204.91 893.75 177.78 912.67 183.98 909.05 168.28 897.14 154.67 906.63 157.78 903.54 144.37 889.85 121.77 899.35 126.18 896.34 113.15 885.54 95.31 893.04 98.79 887.49 74.73 881.01 67.33 886.18 69.02 882.97 55.12 878.49 50 882.06 51.17 874.43 18.06 866.44 59.9 871.1 57.83 865.03 67.28 859.13 98.22 868.12 94.23 856.4 112.47 854.11 124.49 863.38 121.77 852.46 133.14 848.85 152.03 859.92 148.78 846.88 162.36 842.52 185.18 861.48 179.61 839.14 202.87 834.49 227.26 847.18 223.54 832.22 239.11 828.64 257.9 929.7 257.9 926.9 245.73 898.72 213.54 921.18 220.9"/>
        <polygon class="cls-40" points="805.01 222.83 801.44 207.3 778.37 180.95 796.75 186.97 793.24 171.72 781.67 158.5 790.89 161.52 787.89 148.5 774.59 126.55 783.81 130.83 780.9 118.17 770.41 100.85 777.68 104.23 772.3 80.86 766 73.67 771.02 75.31 767.91 61.81 763.55 56.84 767.02 57.98 759.61 25.82 751.85 66.45 756.38 64.45 750.49 73.62 744.75 103.67 753.48 99.8 742.1 117.52 739.87 129.19 748.87 126.55 738.27 137.59 734.77 155.94 745.52 152.79 732.85 165.97 728.62 188.14 747.04 182.73 725.34 205.32 720.81 229.02 733.14 225.39 718.62 240.52 715.13 258.77 813.3 258.77 810.57 246.95 783.2 215.68 805.01 222.83"/>
        <polygon class="cls-36" points="842.33 197.01 870.37 206.2 864.45 180.5 839.26 151.72 859.33 158.3 854.43 137 839.58 112.49 849.88 117.27 844.63 94.51 835.7 86.27 843.09 87.8 839.34 71.55 832.62 61.82 837.31 62.71 832.95 43.82 829.32 39.67 832.21 40.62 823.1 1.05 814.14 47.97 818.89 45.87 812.7 55.5 809.44 72.6 818.89 68.4 806.58 87.58 804.32 99.38 815.62 94.36 800.9 117.28 796.44 140.64 816.36 134.79 792.9 159.23 789.78 175.56 815.02 168.14 785.28 199.11 782.29 214.75 805.17 208.03 778.22 236.09 773.89 258.77 882.49 258.77 877.52 237.21 842.33 197.01"/>
        <polygon class="cls-37" points="290.73 230.27 308.44 236.07 304.7 219.84 288.79 201.67 301.47 205.82 298.37 192.37 289 176.9 295.5 179.92 292.19 165.54 289 160.28 291.21 161.31 288.84 151.04 282.52 143.81 287.56 145.47 284.81 133.54 282.52 130.92 284.34 131.52 278.59 106.53 272.93 136.16 275.93 134.83 272.02 140.91 269.96 151.71 275.93 149.06 268.15 161.17 266.73 168.62 273.87 165.45 264.57 179.92 261.76 194.67 274.33 190.98 259.52 206.41 257.55 216.72 273.49 212.04 254.71 231.59 252.82 241.47 267.26 237.22 250.25 254.94 247.51 269.26 316.09 269.26 312.95 255.65 290.73 230.27"/>
        <polygon class="cls-38" points="250.67 232.27 233.87 237.78 237.42 222.38 252.51 205.14 240.49 209.08 243.43 196.33 252.32 181.65 246.15 184.51 249.29 170.88 254.64 165.94 250.22 166.86 252.46 157.12 256.49 151.29 253.68 151.83 256.29 140.52 258.46 138.03 256.73 138.6 262.19 114.9 267.56 143 264.71 141.74 268.42 147.51 270.37 157.75 264.71 155.24 272.09 166.72 273.44 173.79 266.67 170.79 275.48 184.52 278.15 198.51 266.22 195 280.28 209.64 282.15 219.42 267.03 214.98 284.84 233.53 286.63 242.9 272.93 238.87 289.07 255.68 291.67 269.26 226.62 269.26 229.59 256.35 250.67 232.27"/>
        <polygon class="cls-20" points="196.35 244.16 198.85 233.31 214.96 214.9 202.13 219.11 204.58 208.46 212.66 199.22 206.22 201.33 208.32 192.23 217.61 176.9 211.16 179.89 213.2 171.05 220.53 158.95 215.45 161.31 219.21 144.99 223.6 139.96 220.1 141.11 222.27 131.68 225.32 128.2 222.89 129 228.07 106.53 233.49 134.92 230.33 133.52 234.44 139.93 238.45 160.92 232.35 158.21 240.3 170.59 241.86 178.75 235.57 176.9 242.98 184.61 245.43 197.43 237.92 195.23 246.76 204.44 249.72 219.92 236.85 216.15 252.01 231.93 255.17 248.48 246.56 245.95 256.71 256.52 259.14 269.26 190.57 269.26 192.47 261.01 211.59 239.16 196.35 244.16"/>
        <polygon class="cls-51" points="118.27 253.38 119.91 246.29 130.43 234.27 122.04 237.02 123.65 230.06 128.93 224.03 124.72 225.41 126.09 219.46 132.16 209.44 127.95 211.4 129.28 205.62 134.07 197.72 130.75 199.26 133.2 188.6 136.08 185.31 133.79 186.07 135.21 179.9 137.19 177.63 135.61 178.15 138.99 163.48 142.53 182.02 140.47 181.11 143.16 185.29 145.78 199.01 141.79 197.24 146.98 205.32 148 210.65 143.89 209.44 148.73 214.48 150.33 222.86 145.42 221.42 151.2 227.44 153.14 237.55 144.73 235.08 154.63 245.39 156.7 256.2 151.07 254.55 157.7 261.45 159.29 269.78 114.49 269.78 115.74 264.39 128.23 250.12 118.27 253.38"/>
        <polygon class="cls-52" points="128.05 254.49 130.11 245.54 143.41 230.35 132.81 233.82 134.84 225.03 141.51 217.41 136.2 219.15 137.93 211.65 145.59 198.99 140.27 201.46 141.95 194.17 148 184.18 143.81 186.13 146.91 172.66 150.54 168.52 147.65 169.46 149.44 161.68 151.95 158.82 149.95 159.47 154.22 140.93 158.69 164.36 156.09 163.2 159.48 168.49 162.79 185.81 157.75 183.58 164.31 193.79 165.6 200.52 160.41 198.99 166.52 205.36 168.54 215.94 162.35 214.12 169.65 221.72 172.09 234.49 161.47 231.38 173.98 244.4 176.58 258.05 169.48 255.97 177.85 264.69 179.86 275.21 123.28 275.21 124.85 268.39 140.62 250.37 128.05 254.49"/>
        <polygon class="cls-45" points="331.13 240.93 328.3 228.69 310.12 207.91 324.61 212.66 321.84 200.64 312.72 190.21 319.99 192.6 317.62 182.33 307.14 165.02 314.41 168.4 312.11 158.42 303.84 144.76 309.58 147.43 305.33 129.01 300.37 123.34 304.33 124.63 301.87 113.99 298.44 110.07 301.17 110.96 295.33 85.61 289.22 117.64 292.78 116.06 288.14 123.3 283.61 146.99 290.5 143.93 281.53 157.9 279.77 167.11 286.87 165.02 278.51 173.73 275.74 188.2 284.22 185.71 274.23 196.11 270.9 213.58 285.42 209.32 268.31 227.13 264.74 245.81 274.46 242.95 263.01 254.88 260.26 269.26 337.66 269.26 335.51 259.95 313.93 235.29 331.13 240.93"/>
        <polygon class="cls-49" points="42.61 249.55 41.05 242.76 30.98 231.25 39 233.88 37.47 227.22 32.41 221.44 36.44 222.76 35.13 217.07 29.32 207.48 33.35 209.35 32.08 203.82 27.5 196.26 30.67 197.73 28.32 187.53 25.57 184.38 27.76 185.1 26.4 179.2 24.5 177.03 26.02 177.53 22.78 163.48 19.39 181.23 21.37 180.35 18.79 184.36 16.29 197.49 20.1 195.8 15.13 203.54 14.16 208.64 18.09 207.48 13.46 212.31 11.93 220.33 16.62 218.95 11.09 224.71 9.24 234.39 17.29 232.03 7.81 241.9 5.83 252.25 11.22 250.67 4.87 257.27 3.35 265.25 46.23 265.25 45.04 260.08 33.09 246.42 42.61 249.55"/>
        <polygon class="cls-53" points="115.89 240.99 102.61 245.34 105.41 233.17 117.34 219.53 107.83 222.65 110.16 212.56 117.19 200.95 112.31 203.22 114.8 192.44 117.19 188.49 115.53 189.26 117.3 181.56 122.05 176.13 118.27 177.37 120.33 168.42 122.05 166.46 120.68 166.91 125 148.17 129.24 170.39 126.99 169.39 129.92 173.96 131.47 182.06 126.99 180.07 132.83 189.15 133.89 194.74 128.54 192.37 135.51 203.22 137.62 214.29 128.19 211.52 139.31 223.09 140.78 230.83 128.82 227.32 142.91 241.99 144.33 249.39 133.49 246.21 146.26 259.5 148.31 270.24 96.87 270.24 99.22 260.03 115.89 240.99"/>
        <polygon class="cls-46" points="75.56 248.99 77.67 239.8 91.31 224.22 80.44 227.78 82.52 218.76 89.37 210.94 83.91 212.73 85.69 205.03 93.55 192.04 88.1 194.58 89.82 187.09 96.03 176.85 91.72 178.84 94.91 165.02 98.63 160.77 95.66 161.74 97.5 153.76 100.08 150.82 98.03 151.49 102.41 132.47 107 156.5 104.32 155.32 107.81 160.74 111.2 178.52 106.04 176.22 112.77 186.7 114.08 193.61 108.76 192.04 115.03 198.57 117.1 209.43 110.75 207.56 118.24 215.36 120.74 228.47 109.85 225.27 122.68 238.63 125.36 252.65 118.06 250.5 126.66 259.45 128.72 270.24 70.66 270.24 72.27 263.25 88.46 244.76 75.56 248.99"/>
        <polygon class="cls-50" points="144.87 246.93 147.09 237.28 161.42 220.91 150 224.65 152.18 215.18 159.37 206.96 153.64 208.84 155.51 200.75 163.77 187.11 158.04 189.77 159.85 181.9 166.37 171.14 161.85 173.24 165.19 158.72 169.1 154.25 165.99 155.27 167.92 146.88 170.63 143.79 168.47 144.5 173.08 124.52 177.9 149.77 175.09 148.52 178.75 154.22 182.31 172.89 176.88 170.49 183.96 181.5 185.34 188.75 179.75 187.11 186.34 193.97 188.51 205.37 181.83 203.41 189.7 211.61 192.33 225.38 180.89 222.02 194.37 236.06 197.18 250.78 189.52 248.53 198.55 257.92 200.71 269.26 139.72 269.26 141.41 261.92 158.42 242.49 144.87 246.93"/>
        <polygon class="cls-48" points="210.83 245.68 213.18 235.49 228.31 218.2 216.25 222.15 218.56 212.14 226.15 203.47 220.1 205.45 222.07 196.9 230.79 182.5 224.74 185.31 226.66 177 233.54 165.63 228.76 167.85 232.3 152.52 236.43 147.8 233.14 148.88 235.18 140.02 238.04 136.75 235.76 137.5 240.62 116.39 245.71 143.06 242.75 141.74 246.61 147.76 250.38 167.49 244.65 164.94 252.11 176.57 253.58 184.23 247.67 182.5 254.63 189.74 256.93 201.79 249.87 199.71 258.19 208.37 260.96 222.91 248.88 219.36 263.12 234.19 266.08 249.74 257.99 247.36 267.53 257.29 269.81 269.26 205.39 269.26 207.18 261.51 225.14 240.99 210.83 245.68"/>
        <polygon class="cls-47" points="185.66 225.79 165.92 232.26 170.09 214.16 187.83 193.9 173.7 198.53 177.15 183.54 187.6 166.29 180.35 169.65 184.04 153.63 190.34 147.82 185.13 148.9 187.77 137.46 192.5 130.61 189.2 131.24 192.27 117.94 194.83 115.02 192.79 115.69 199.21 87.84 205.51 120.87 202.17 119.38 206.53 126.17 208.82 138.2 202.17 135.25 210.84 148.75 212.42 157.05 204.47 153.52 214.83 169.66 217.97 186.1 203.95 181.98 220.47 199.19 222.66 210.68 204.89 205.46 225.83 227.27 227.93 238.27 211.83 233.54 230.8 253.3 233.85 269.26 157.4 269.26 160.89 254.09 185.66 225.79"/>
        <polygon class="cls-21" points="399.83 237.8 403.16 223.32 424.67 198.75 407.53 204.37 410.81 190.15 421.6 177.82 413 180.64 415.8 168.5 428.19 148.03 419.6 152.02 422.31 140.22 432.1 124.07 425.31 127.22 430.33 105.43 436.2 98.73 431.52 100.26 434.42 87.67 438.48 83.04 435.25 84.1 442.16 54.11 449.39 92 445.18 90.13 450.67 98.68 456.02 126.7 447.87 123.09 458.48 139.61 460.56 150.5 452.17 148.03 462.06 158.32 465.32 175.44 455.3 172.49 467.11 184.79 471.06 205.46 453.88 200.41 474.12 221.48 478.33 243.57 466.84 240.19 480.38 254.29 483.63 271.31 392.11 271.31 394.64 260.29 420.16 231.13 399.83 237.8"/>
        <polygon class="cls-34" points="292.62 248.22 294.91 238.24 309.73 221.32 297.92 225.19 300.18 215.39 307.62 206.89 301.69 208.84 303.62 200.47 312.16 186.37 306.24 189.12 308.11 180.99 314.85 169.86 310.17 172.03 313.63 157.02 317.68 152.4 314.45 153.45 316.45 144.78 319.25 141.58 317.02 142.31 321.78 121.65 326.77 147.76 323.86 146.47 327.65 152.36 331.33 171.67 325.72 169.18 333.03 180.57 334.46 188.06 328.68 186.37 335.49 193.46 337.75 205.25 330.84 203.22 338.98 211.7 341.69 225.93 329.86 222.46 343.8 236.97 346.71 252.19 338.79 249.87 348.12 259.59 350.36 271.31 287.29 271.31 289.04 263.72 306.63 243.63 292.62 248.22"/>
        <polygon class="cls-27" points="308.67 251.59 311.42 239.64 329.16 219.37 315.02 224.01 317.73 212.27 326.63 202.1 319.53 204.43 321.84 194.41 332.07 177.52 324.98 180.81 327.22 171.08 335.29 157.75 329.69 160.35 333.83 142.37 338.68 136.84 334.82 138.11 337.21 127.72 340.56 123.89 337.89 124.77 343.59 100.03 349.56 131.29 346.08 129.75 350.61 136.8 355.03 159.92 348.31 156.94 357.06 170.57 358.78 179.55 351.85 177.52 360.01 186.01 362.71 200.13 354.44 197.71 364.18 207.85 367.44 224.9 353.27 220.74 369.96 238.12 373.44 256.35 363.96 253.56 375.13 265.2 377.81 279.24 302.29 279.24 304.39 270.15 325.45 246.09 308.67 251.59"/>
        <polygon class="cls-30" points="49.02 244.99 61.4 249.05 58.78 237.69 47.66 224.98 56.52 227.89 54.36 218.48 47.8 207.66 52.35 209.77 50.03 199.72 47.8 196.04 49.35 196.76 47.69 189.58 43.27 184.52 46.8 185.68 44.87 177.33 43.27 175.5 44.55 175.92 40.52 158.45 36.56 179.17 38.66 178.24 35.93 182.49 34.49 190.04 38.66 188.19 33.22 196.66 32.23 201.87 37.22 199.66 30.72 209.78 28.75 220.09 37.55 217.51 27.18 228.3 25.81 235.51 36.95 232.24 23.82 245.92 22.5 252.82 32.6 249.85 20.7 262.25 18.79 272.26 66.75 272.26 64.55 262.74 49.02 244.99"/>
        <polygon class="cls-26" points="26.1 234.98 14.35 238.83 16.83 228.06 27.38 216.01 18.97 218.76 21.03 209.84 27.25 199.57 22.93 201.58 25.13 192.04 28.88 188.59 25.78 189.23 27.35 182.42 30.16 178.34 28.2 178.72 30.03 170.81 31.55 169.07 30.33 169.46 34.15 152.89 37.91 172.55 35.92 171.66 38.51 175.7 39.88 182.86 35.92 181.1 41.08 189.14 42.02 194.08 37.29 191.98 43.45 201.58 45.32 211.37 36.98 208.91 46.81 219.15 48.11 225.99 37.54 222.89 50 235.86 51.25 242.41 41.67 239.6 52.96 251.35 54.77 260.85 9.27 260.85 11.36 251.82 26.1 234.98"/>
        <polygon class="cls-28" points="77.27 252.44 75.29 243.88 62.58 229.35 72.71 232.67 70.77 224.26 64.39 216.97 69.48 218.64 67.82 211.46 60.49 199.36 65.58 201.72 63.97 194.74 58.18 185.19 62.2 187.05 59.23 174.16 55.76 170.2 58.52 171.11 56.81 163.66 54.41 160.92 56.32 161.54 52.23 143.81 47.95 166.22 50.45 165.11 47.2 170.17 44.04 186.74 48.85 184.61 42.58 194.38 41.35 200.81 46.31 199.36 40.46 205.44 38.53 215.56 44.46 213.82 37.48 221.09 35.14 233.32 45.3 230.33 33.33 242.79 30.84 255.86 37.64 253.86 29.63 262.2 27.71 272.26 81.83 272.26 80.33 265.75 65.24 248.5 77.27 252.44"/>
        <polygon class="cls-31" points="50.33 257.54 51.94 250.57 62.3 238.73 54.05 241.43 55.62 234.58 60.82 228.64 56.68 230 58.03 224.15 64 214.28 59.86 216.21 61.17 210.52 65.88 202.74 62.61 204.26 65.03 193.76 67.86 190.52 65.61 191.26 67.01 185.2 68.96 182.96 67.4 183.47 70.73 169.02 74.22 187.28 72.19 186.38 74.83 190.5 77.41 204.01 73.49 202.26 78.6 210.23 79.6 215.47 75.56 214.28 80.32 219.24 81.9 227.49 77.07 226.07 82.76 232 84.66 241.96 76.38 239.53 86.13 249.68 88.17 260.32 82.63 258.7 89.15 265.49 90.72 273.69 46.61 273.69 47.83 268.38 60.13 254.33 50.33 257.54"/>
        <polygon class="cls-33" points="61.56 259.9 63.48 251.55 75.89 237.37 66 240.61 67.89 232.4 74.12 225.29 69.16 226.92 70.77 219.91 77.93 208.1 72.97 210.4 74.53 203.59 80.18 194.27 76.26 196.09 79.16 183.51 82.55 179.64 79.85 180.53 81.52 173.26 83.87 170.59 82 171.2 85.99 153.9 90.16 175.76 87.73 174.68 90.9 179.62 93.99 195.79 89.28 193.7 95.41 203.24 96.61 209.52 91.76 208.1 97.47 214.04 99.36 223.91 93.57 222.21 100.39 229.31 102.66 241.24 92.75 238.33 104.43 250.48 106.86 263.23 100.23 261.28 108.04 269.42 109.92 279.24 57.1 279.24 58.57 272.88 73.29 256.05 61.56 259.9"/>
        <polygon class="cls-29" points="331.11 241.5 334.07 228.62 353.2 206.77 337.96 211.77 340.87 199.12 350.47 188.16 342.82 190.66 345.31 179.86 356.34 161.66 348.69 165.21 351.11 154.71 359.81 140.35 353.77 143.15 358.24 123.77 363.46 117.8 359.3 119.17 361.88 107.97 365.49 103.84 362.61 104.79 368.76 78.12 375.19 111.82 371.44 110.15 376.33 117.76 381.09 142.69 373.84 139.47 383.28 154.17 385.13 163.85 377.66 161.66 386.46 170.81 389.36 186.03 380.45 183.41 390.95 194.35 394.46 212.73 379.19 208.25 397.18 226.99 400.94 246.63 390.71 243.63 402.76 256.17 405.65 271.31 324.24 271.31 326.5 261.51 349.19 235.57 331.11 241.5"/>
        <polygon class="cls-32" points="419.15 239.83 422.28 226.23 442.48 203.15 426.39 208.43 429.46 195.07 439.6 183.49 431.52 186.13 434.15 174.73 445.8 155.5 437.72 159.25 440.27 148.16 449.46 132.99 443.09 135.95 447.8 115.49 453.32 109.19 448.92 110.63 451.65 98.8 455.46 94.44 452.42 95.44 458.91 67.27 465.71 102.86 461.75 101.11 466.91 109.14 471.94 135.46 464.28 132.07 474.25 147.59 476.2 157.82 468.32 155.5 477.61 165.17 480.68 181.25 471.26 178.48 482.35 190.03 486.06 209.45 469.93 204.71 488.94 224.5 492.9 245.25 482.1 242.08 494.82 255.33 497.87 271.31 411.89 271.31 414.28 260.96 438.25 233.57 419.15 239.83"/>
        <polygon class="cls-58" points="385.56 213.28 359.21 221.92 364.78 197.76 388.45 170.72 369.59 176.9 374.2 156.89 388.14 133.87 378.47 138.36 383.4 116.97 391.8 109.22 384.85 110.66 388.37 95.39 394.69 86.25 390.28 87.09 394.37 69.34 397.79 65.44 395.07 66.33 403.64 29.16 412.05 73.24 407.59 71.26 413.4 80.32 416.47 96.38 407.59 92.44 419.16 110.46 421.28 121.54 410.66 116.83 424.49 138.36 428.68 160.31 409.96 154.82 432.01 177.78 434.94 193.12 411.22 186.16 439.17 215.26 441.97 229.95 420.48 223.63 445.8 250 449.87 271.31 347.83 271.31 352.5 251.05 385.56 213.28"/>
        <polygon class="cls-61" points="1137.72 240.39 1140.09 230.4 1155.37 213.46 1143.19 217.33 1145.52 207.53 1153.19 199.03 1147.08 200.97 1149.07 192.59 1157.87 178.48 1151.76 181.23 1153.7 173.09 1160.65 161.96 1155.83 164.13 1159.39 149.1 1163.56 144.48 1160.24 145.54 1162.3 136.85 1165.19 133.65 1162.89 134.39 1167.8 113.71 1172.94 139.84 1169.94 138.55 1173.84 144.45 1177.64 163.77 1171.86 161.28 1179.4 172.67 1180.87 180.18 1174.91 178.48 1181.93 185.58 1184.26 197.38 1177.13 195.35 1185.53 203.83 1188.33 218.08 1176.13 214.6 1190.5 229.13 1193.5 244.37 1185.33 242.04 1194.95 251.77 1197.26 263.5 1132.23 263.5 1134.04 255.9 1152.17 235.79 1137.72 240.39"/>
        <polygon class="cls-24" points="1323.37 237.27 1308.18 242.25 1311.39 228.32 1325.04 212.72 1314.16 216.28 1316.82 204.74 1324.86 191.46 1319.28 194.05 1322.13 181.71 1324.86 177.2 1322.97 178.08 1325 169.27 1330.43 163.06 1326.1 164.48 1328.46 154.24 1330.43 151.99 1328.86 152.51 1333.8 131.06 1338.66 156.49 1336.08 155.35 1339.43 160.57 1341.2 169.84 1336.08 167.57 1342.75 177.96 1343.97 184.35 1337.85 181.63 1345.83 194.06 1348.24 206.72 1337.45 203.54 1350.17 216.79 1351.86 225.64 1338.18 221.62 1354.3 238.41 1355.91 246.88 1343.52 243.24 1358.12 258.45 1360.47 270.74 1301.61 270.74 1304.3 259.05 1323.37 237.27"/>
        <polygon class="cls-25" points="1356.77 235.4 1371.19 240.12 1368.14 226.91 1355.19 212.11 1365.51 215.49 1362.99 204.54 1355.36 191.95 1360.65 194.4 1357.95 182.7 1353.36 178.46 1357.16 179.25 1355.23 170.89 1351.78 165.89 1354.19 166.35 1351.95 156.64 1350.08 154.51 1351.57 154.99 1346.88 134.65 1342.27 158.78 1344.72 157.69 1341.54 162.65 1339.86 171.43 1344.72 169.28 1338.39 179.14 1337.23 185.2 1343.04 182.63 1335.47 194.41 1333.18 206.42 1343.42 203.41 1331.35 215.97 1329.75 224.37 1342.73 220.56 1327.44 236.48 1325.9 244.52 1337.66 241.06 1323.81 255.49 1321.58 267.15 1377.41 267.15 1374.86 256.06 1356.77 235.4"/>
        <polygon class="cls-22" points="1414.36 242.41 1412.22 233.1 1398.39 217.3 1409.41 220.91 1407.3 211.76 1400.36 203.84 1405.89 205.65 1404.09 197.84 1396.12 184.68 1401.65 187.25 1399.9 179.66 1393.61 169.27 1397.97 171.3 1394.75 157.29 1390.97 152.97 1393.98 153.96 1392.11 145.87 1389.5 142.88 1391.58 143.56 1387.14 124.28 1382.49 148.65 1385.2 147.44 1381.67 152.94 1378.23 170.96 1383.46 168.64 1376.64 179.27 1375.3 186.26 1380.7 184.68 1374.34 191.3 1372.24 202.3 1378.69 200.41 1371.09 208.32 1368.56 221.61 1379.6 218.36 1366.59 231.91 1363.88 246.12 1371.27 243.95 1362.56 253.01 1360.47 263.96 1419.33 263.96 1417.69 256.87 1401.28 238.12 1414.36 242.41"/>
        <polygon class="cls-23" points="1285.76 248.62 1288.18 238.11 1303.79 220.28 1291.35 224.35 1293.73 214.03 1301.56 205.09 1295.32 207.13 1297.35 198.32 1306.35 183.47 1300.11 186.36 1302.08 177.8 1309.18 166.08 1304.25 168.36 1307.9 152.55 1312.16 147.68 1308.76 148.8 1310.87 139.66 1313.82 136.29 1311.47 137.06 1316.48 115.3 1321.73 142.8 1318.67 141.44 1322.66 147.65 1326.54 167.99 1320.63 165.36 1328.33 177.36 1329.84 185.25 1323.75 183.47 1330.92 190.94 1333.3 203.36 1326.02 201.22 1334.59 210.14 1337.46 225.14 1324.99 221.48 1339.68 236.77 1342.74 252.8 1334.39 250.35 1344.22 260.59 1346.58 272.94 1280.16 272.94 1282 264.94 1300.52 243.78 1285.76 248.62"/>
        <polygon class="cls-62" points="1392.06 248.8 1390.04 240.05 1377.05 225.21 1387.41 228.6 1385.43 220.01 1378.91 212.56 1384.1 214.27 1382.41 206.93 1374.92 194.57 1380.12 196.98 1378.48 189.85 1372.57 180.09 1376.67 181.99 1373.63 168.83 1370.09 164.78 1372.91 165.71 1371.16 158.1 1368.71 155.3 1370.66 155.94 1366.49 137.83 1362.12 160.72 1364.66 159.59 1361.35 164.75 1358.11 181.68 1363.04 179.5 1356.63 189.48 1355.37 196.05 1360.44 194.57 1354.47 200.78 1352.49 211.12 1358.55 209.34 1351.41 216.77 1349.03 229.26 1359.4 226.21 1347.18 238.94 1344.63 252.28 1351.58 250.24 1343.4 258.76 1341.43 269.04 1396.73 269.04 1395.19 262.38 1379.77 244.77 1392.06 248.8"/>
        <polygon class="cls-19" points="1238.77 242.34 1235.8 229.45 1216.66 207.57 1231.91 212.58 1229 199.91 1219.39 188.94 1227.04 191.45 1224.55 180.63 1213.51 162.41 1221.17 165.97 1218.75 155.46 1210.04 141.08 1216.08 143.88 1211.61 124.48 1206.39 118.51 1210.55 119.88 1207.97 108.67 1204.35 104.54 1207.23 105.48 1201.08 78.79 1194.64 112.52 1198.39 110.86 1193.5 118.47 1188.74 143.42 1195.99 140.2 1186.55 154.92 1184.7 164.61 1192.17 162.41 1183.36 171.58 1180.45 186.81 1189.38 184.19 1178.86 195.14 1175.35 213.54 1190.64 209.05 1172.63 227.81 1168.87 247.48 1179.11 244.47 1167.05 257.03 1164.15 272.18 1245.65 272.18 1243.39 262.37 1220.67 236.41 1238.77 242.34"/>
        <polygon class="cls-17" points="1318.81 249.32 1316.83 240.76 1304.12 226.23 1314.25 229.55 1312.31 221.14 1305.93 213.85 1311.02 215.52 1309.36 208.33 1302.03 196.23 1307.12 198.59 1305.51 191.61 1299.72 182.06 1303.74 183.92 1300.77 171.04 1297.29 167.07 1300.06 167.98 1298.35 160.53 1295.94 157.79 1297.86 158.42 1293.77 140.68 1289.49 163.09 1291.99 161.99 1288.74 167.04 1285.57 183.62 1290.39 181.48 1284.12 191.25 1282.89 197.69 1287.85 196.23 1282 202.32 1280.07 212.44 1286 210.7 1279.01 217.97 1276.68 230.19 1286.84 227.21 1274.87 239.67 1272.38 252.73 1279.18 250.73 1271.17 259.07 1269.24 269.14 1323.37 269.14 1321.87 262.62 1306.78 245.38 1318.81 249.32"/>
        <polygon class="cls-18" points="1303.91 251.06 1301.55 240.8 1286.32 223.4 1298.45 227.38 1296.13 217.31 1288.49 208.58 1294.58 210.58 1292.6 201.98 1283.82 187.48 1289.91 190.31 1287.99 181.95 1281.06 170.52 1285.86 172.75 1282.31 157.32 1278.15 152.57 1281.46 153.65 1279.41 144.74 1276.53 141.45 1278.83 142.2 1273.93 120.97 1268.81 147.8 1271.79 146.48 1267.9 152.53 1264.12 172.38 1269.88 169.82 1262.37 181.52 1260.9 189.23 1266.84 187.48 1259.84 194.77 1257.53 206.89 1264.62 204.81 1256.26 213.52 1253.47 228.15 1265.63 224.58 1251.3 239.5 1248.31 255.14 1256.45 252.75 1246.86 262.74 1244.56 274.79 1309.38 274.79 1307.58 266.99 1289.51 246.34 1303.91 251.06"/>
        <polygon class="cls-44" points="1286.11 246.69 1283.56 235.64 1267.15 216.88 1280.23 221.17 1277.73 210.31 1269.49 200.9 1276.06 203.05 1273.92 193.78 1264.45 178.15 1271.02 181.2 1268.94 172.19 1261.48 159.86 1266.66 162.27 1262.82 145.63 1258.34 140.52 1261.91 141.69 1259.7 132.07 1256.6 128.53 1259.07 129.34 1253.79 106.45 1248.27 135.38 1251.49 133.95 1247.3 140.48 1243.21 161.87 1249.43 159.11 1241.33 171.73 1239.74 180.04 1246.15 178.15 1238.6 186.01 1236.11 199.08 1243.76 196.83 1234.74 206.22 1231.73 222 1244.84 218.15 1229.4 234.23 1226.18 251.09 1234.95 248.51 1224.61 259.28 1222.13 272.27 1292.01 272.27 1290.07 263.86 1270.59 241.6 1286.11 246.69"/>
        <polygon class="cls-12" points="1221.57 244.15 1218.78 232.04 1200.79 211.49 1215.13 216.19 1212.38 204.29 1203.36 193.98 1210.55 196.34 1208.21 186.18 1197.84 169.06 1205.04 172.4 1202.76 162.53 1194.58 149.02 1200.25 151.66 1196.05 133.43 1191.15 127.82 1195.06 129.11 1192.63 118.58 1189.24 114.7 1191.94 115.58 1186.16 90.5 1180.11 122.19 1183.64 120.63 1179.04 127.79 1174.57 151.22 1181.38 148.2 1172.51 162.02 1170.77 171.12 1177.79 169.06 1169.52 177.67 1166.78 191.99 1175.17 189.52 1165.29 199.81 1161.99 217.1 1176.35 212.88 1159.43 230.5 1155.9 248.97 1165.52 246.15 1154.19 257.95 1151.47 272.18 1228.03 272.18 1225.9 262.96 1204.56 238.57 1221.57 244.15"/>
        <polygon class="cls-13" points="1244.49 224.67 1264.54 231.24 1260.3 212.87 1242.29 192.29 1256.64 197 1253.14 181.77 1242.53 164.25 1249.89 167.67 1246.14 151.4 1239.75 145.5 1245.03 146.6 1242.35 134.98 1237.55 128.03 1240.9 128.67 1237.79 115.16 1235.19 112.19 1237.26 112.87 1230.74 84.59 1224.34 118.13 1227.73 116.62 1223.31 123.51 1220.97 135.73 1227.73 132.74 1218.93 146.44 1217.32 154.88 1225.4 151.29 1214.87 167.68 1211.69 184.38 1225.93 180.19 1209.15 197.66 1206.92 209.34 1224.97 204.04 1203.7 226.18 1201.57 237.35 1217.92 232.55 1198.66 252.61 1195.56 268.82 1273.2 268.82 1269.64 253.41 1244.49 224.67"/>
        <g>
          <polyline class="cls-14" points="1439.99 196.27 1433.88 187.03 1438.1 188.84 1435.33 174.75 1432.48 170.45 1434.67 171.39 1430.92 152.34 1427.34 167.42 1429.01 166.88 1426.91 169.22 1425.41 175.55 1427.83 174.78 1424.79 178.15 1422.19 189.1 1425.71 187.52 1420.64 195.64 1419.23 201.58 1423.68 199.57 1417.26 209.86 1415.81 215.97 1420.27 214.55 1414.68 220.75 1412.98 227.9 1421.86 225.08 1410.72 237.43 1408.99 244.71 1419.52 241.36 1406.3 256.02 1404.99 261.56 1439.99 261.56 1439.99 196.27"/>
          <polygon class="cls-15" points="1440.02 147.26 1435.1 167.2 1437.54 166.22 1434.56 170.72 1431.66 185.46 1436.08 183.56 1430.32 192.26 1429.2 197.98 1433.75 196.69 1428.39 202.1 1426.61 211.11 1432.05 209.56 1425.65 216.03 1423.51 226.91 1432.82 224.25 1421.85 235.34 1419.56 246.96 1425.79 245.19 1418.45 252.61 1416.69 261.56 1439.99 261.56 1440.02 147.26"/>
          <rect class="cls-1" x="1353.67" y="120.62" width="87.08" height="150.12"/>
        </g>
        <g class="cls-2">
          <polygon class="cls-16" points="18.43 245.58 29.52 249.22 27.18 239.05 17.21 227.66 25.15 230.26 23.21 221.84 17.34 212.14 21.41 214.03 19.34 205.03 17.34 201.73 18.72 202.37 17.24 195.94 13.28 191.41 16.44 192.45 14.71 184.98 13.28 183.33 14.42 183.71 10.82 168.06 7.27 186.62 9.15 185.79 6.7 189.6 5.41 196.36 9.15 194.7 4.28 202.29 3.39 206.95 7.86 204.97 2.04 214.04 .27 223.28 8.15 220.96 -1.13 230.63 -2.37 237.09 7.62 234.16 -4.15 246.41 -5.33 252.6 3.72 249.94 -6.94 261.04 -8.65 270.01 34.31 270.01 32.35 261.48 18.43 245.58"/>
          <polygon class="cls-11" points="-4.89 245.95 -14.6 249.13 -12.55 240.23 -3.83 230.27 -10.78 232.55 -9.08 225.18 -3.94 216.7 -7.51 218.36 -5.69 210.48 -2.6 207.63 -5.16 208.16 -3.86 202.53 -1.53 199.17 -3.16 199.48 -1.65 192.94 -.39 191.5 -1.39 191.83 1.76 178.14 4.86 194.38 3.22 193.65 5.36 196.98 6.49 202.9 3.22 201.45 7.48 208.08 8.26 212.16 4.35 210.43 9.44 218.36 10.98 226.44 4.09 224.42 12.21 232.87 13.29 238.52 4.56 235.96 14.85 246.67 15.88 252.08 7.97 249.76 17.29 259.47 18.79 267.31 -18.79 267.31 -17.07 259.86 -4.89 245.95"/>
        </g>
      </g>
      <polygon class="cls-68" points="0 257.58 160.81 248.27 349.01 226.99 506.55 239.22 717.3 228.81 991.67 231.53 1183.42 252.67 1323.11 249.88 1439.99 246.9 1439.99 428.79 0 428.79 0 257.58"/>
    </g>
  </g>
</svg>