<svg xmlns="http://www.w3.org/2000/svg" xmlns:xlink="http://www.w3.org/1999/xlink" width="52.646" height="52.646" viewBox="0 0 52.646 52.646">
  <defs>
    <style>
      .cls-1, .cls-3 {
        fill: none;
        stroke: #19183a;
      }

      .cls-2 {
        clip-path: url(#clip-path);
      }

      .cls-3 {
        stroke-miterlimit: 10;
        stroke-width: 2px;
      }
    </style>
    <clipPath id="clip-path">
      <rect id="Rectangle_28" data-name="Rectangle 28" class="cls-1" width="52.646" height="52.646"/>
    </clipPath>
  </defs>
  <g id="Group_17" data-name="Group 17" transform="translate(0 0)">
    <g id="Group_16" data-name="Group 16" class="cls-2" transform="translate(0 0)">
      <path id="Path_15" data-name="Path 15" class="cls-3" d="M51.372,28.814V23.557a1.094,1.094,0,0,0-.928-1.081l-5.975-.914a1.1,1.1,0,0,1-.876-.762,18.1,18.1,0,0,0-1.3-3.069,1.094,1.094,0,0,1,.071-1.172l3.6-4.9a1.092,1.092,0,0,0-.108-1.419L42.136,6.517a1.093,1.093,0,0,0-1.419-.108l-4.97,3.65a1.09,1.09,0,0,1-1.151.078,18.171,18.171,0,0,0-3-1.222,1.089,1.089,0,0,1-.768-.873l-.937-6.114A1.091,1.091,0,0,0,28.814,1H23.557a1.091,1.091,0,0,0-1.08.928L21.54,8.042a1.089,1.089,0,0,1-.768.873,18.171,18.171,0,0,0-3,1.222,1.09,1.09,0,0,1-1.151-.078l-4.97-3.65a1.093,1.093,0,0,0-1.419.108L6.519,10.236a1.092,1.092,0,0,0-.109,1.419l3.6,4.9a1.094,1.094,0,0,1,.071,1.172,18.094,18.094,0,0,0-1.3,3.069,1.1,1.1,0,0,1-.876.762l-5.975.914A1.094,1.094,0,0,0,1,23.557v5.257a1.093,1.093,0,0,0,.928,1.08l5.859.9a1.1,1.1,0,0,1,.881.785,18.261,18.261,0,0,0,1.3,3.237,1.094,1.094,0,0,1-.078,1.16L6.409,40.716a1.093,1.093,0,0,0,.109,1.42l3.717,3.717a1.092,1.092,0,0,0,1.419.108l4.679-3.435a1.1,1.1,0,0,1,1.175-.071,18.174,18.174,0,0,0,3.317,1.387,1.1,1.1,0,0,1,.774.878l.877,5.723a1.092,1.092,0,0,0,1.08.928h5.257a1.092,1.092,0,0,0,1.08-.928l.877-5.723a1.1,1.1,0,0,1,.774-.878,18.174,18.174,0,0,0,3.317-1.387,1.1,1.1,0,0,1,1.175.071l4.679,3.435a1.092,1.092,0,0,0,1.419-.108l3.717-3.717a1.093,1.093,0,0,0,.108-1.42l-3.482-4.742a1.094,1.094,0,0,1-.078-1.16,18.261,18.261,0,0,0,1.3-3.237,1.1,1.1,0,0,1,.881-.785l5.859-.9A1.093,1.093,0,0,0,51.372,28.814Z" transform="translate(0.137 0.137)"/>
      <path id="Path_16" data-name="Path 16" class="cls-3" d="M33.927,24.308a9.618,9.618,0,1,1-9.619-9.619A9.619,9.619,0,0,1,33.927,24.308Z" transform="translate(2.015 2.015)"/>
    </g>
  </g>
</svg>
