<svg xmlns="http://www.w3.org/2000/svg" width="80.035" height="89.232" viewBox="0 0 80.035 89.232">
  <defs>
    <style>
      .cls-1 {
        fill: #fff;
      }
    </style>
  </defs>
  <g id="Group_3" data-name="Group 3" transform="translate(-464.01 -338.005)">
    <g id="Group_1" data-name="Group 1" transform="translate(480.198 366.42)">
      <path id="Path_1" data-name="Path 1" class="cls-1" d="M488.014,361.9h-14.5v-7.211h22.316V361.9h0v28.333h-7.82Z" transform="translate(-473.518 -354.694)"/>
      <path id="Path_2" data-name="Path 2" class="cls-1" d="M488.376,354.694h22.36V361.8H496.194v7.566h14.542v7.108H496.194v13.76h-7.818Z" transform="translate(-463.079 -354.694)"/>
    </g>
    <g id="Group_2" data-name="Group 2" transform="translate(464.01 338.005)">
      <path id="Path_3" data-name="Path 3" class="cls-1" d="M504.028,427.237a10.241,10.241,0,0,1-5.128-1.371l-29.763-17.183a10.281,10.281,0,0,1-5.127-8.881V365.438a10.285,10.285,0,0,1,5.127-8.881L498.9,339.374a10.291,10.291,0,0,1,10.255,0l29.762,17.184a10.281,10.281,0,0,1,5.128,8.881V399.8a10.284,10.284,0,0,1-5.128,8.883l-29.762,17.181A10.24,10.24,0,0,1,504.028,427.237Zm0-84.128a5.15,5.15,0,0,0-2.574.688L471.69,360.98a5.162,5.162,0,0,0-2.573,4.457V399.8a5.16,5.16,0,0,0,2.573,4.457l29.763,17.184a5.168,5.168,0,0,0,5.147,0l29.762-17.184a5.162,5.162,0,0,0,2.574-4.457V365.438a5.162,5.162,0,0,0-2.574-4.457L506.6,343.8A5.164,5.164,0,0,0,504.028,343.109Z" transform="translate(-464.01 -338.005)"/>
    </g>
  </g>
</svg>
