<?xml version="1.0" standalone="no"?>
<!DOCTYPE svg PUBLIC "-//W3C//DTD SVG 20010904//EN"
 "http://www.w3.org/TR/2001/REC-SVG-20010904/DTD/svg10.dtd">
<svg version="1.0" xmlns="http://www.w3.org/2000/svg"
 width="872.000000pt" height="872.000000pt" viewBox="0 0 872.000000 872.000000"
 preserveAspectRatio="xMidYMid meet">
<metadata>
Created by potrace 1.14, written by Peter Selinger 2001-2017
</metadata>
<g transform="translate(0.000000,872.000000) scale(0.100000,-0.100000)"
fill="#000000" stroke="none">
<path d="M0 6951 l0 -660 1321 0 c727 0 1324 -2 1327 -5 3 -3 5 -1169 5 -2591
l0 -2585 712 0 c562 0 714 3 717 13 3 10 2 6456 -1 6480 -1 4 -919 7 -2041 7
l-2040 0 0 -659z"/>
<path d="M4630 7433 c-1 -292 -1 -6234 0 -6280 l0 -43 715 0 714 0 0 1251 c0
688 3 1254 6 1258 4 3 601 6 1328 6 l1322 1 3 650 2 650 -1330 -1 -1330 0 0
243 c-1 302 -1 411 0 817 l0 325 1330 0 1330 0 0 650 0 650 -2045 0 -2045 0 0
-177z"/>
</g>
</svg>
